<?xml version="1.0" encoding="UTF-8" standalone="no"?>
<!-- Created with Inkscape (http://www.inkscape.org/) -->

<svg
   xmlns:dc="http://purl.org/dc/elements/1.1/"
   xmlns:cc="http://creativecommons.org/ns#"
   xmlns:rdf="http://www.w3.org/1999/02/22-rdf-syntax-ns#"
   xmlns:svg="http://www.w3.org/2000/svg"
   xmlns="http://www.w3.org/2000/svg"
   xmlns:sodipodi="http://sodipodi.sourceforge.net/DTD/sodipodi-0.dtd"
   xmlns:inkscape="http://www.inkscape.org/namespaces/inkscape"
   width="177.17111"
   height="166.53845"
   id="svg2"
   version="1.1"
   inkscape:version="0.48.4 r9939"
   sodipodi:docname="dotmatrix_connections.svg">
  <defs
     id="defs4" />
  <sodipodi:namedview
     id="base"
     pagecolor="#ffffff"
     bordercolor="#666666"
     borderopacity="1.0"
     inkscape:pageopacity="0.0"
     inkscape:pageshadow="2"
     inkscape:zoom="4.8470624"
     inkscape:cx="94.921759"
     inkscape:cy="89.903359"
     inkscape:document-units="px"
     inkscape:current-layer="layer1"
     showgrid="false"
     fit-margin-top="8"
     fit-margin-left="8"
     fit-margin-right="8"
     fit-margin-bottom="8"
     inkscape:window-width="1871"
     inkscape:window-height="1056"
     inkscape:window-x="49"
     inkscape:window-y="24"
     inkscape:window-maximized="1" />
  <metadata
     id="metadata7">
    <rdf:RDF>
      <cc:Work
         rdf:about="">
        <dc:format>image/svg+xml</dc:format>
        <dc:type
           rdf:resource="http://purl.org/dc/dcmitype/StillImage" />
        <dc:title></dc:title>
      </cc:Work>
    </rdf:RDF>
  </metadata>
  <g
     inkscape:label="Calque 1"
     inkscape:groupmode="layer"
     id="layer1"
     transform="translate(-95.265999,-166.43556)">
    <rect
       style="fill:#1c1c1c;fill-opacity:1;stroke:#404040;stroke-width:1.98158598;stroke-linecap:round;stroke-linejoin:round;stroke-opacity:1"
       id="rect8356"
       width="36.279438"
       height="17.309366"
       x="-201.82765"
       y="218.26494"
       transform="scale(-1,1)" />
    <path
       transform="matrix(-2.0659815,0,0,1.9798991,290.08772,138.55102)"
       d="m 58.399444,46.272289 c 0,0.418419 -0.325062,0.757615 -0.726047,0.757615 -0.400985,0 -0.726047,-0.339196 -0.726047,-0.757615 0,-0.418419 0.325062,-0.757614 0.726047,-0.757614 0.400985,0 0.726047,0.339195 0.726047,0.757614 z"
       sodipodi:ry="0.75761437"
       sodipodi:rx="0.72604716"
       sodipodi:cy="46.272289"
       sodipodi:cx="57.673397"
       id="path3876"
       style="fill:#eeeeec;fill-opacity:1;stroke:none"
       sodipodi:type="arc" />
    <rect
       y="233.89323"
       x="-188.19957"
       height="1.6808528"
       width="9.0232725"
       id="rect8376"
       style="fill:#404040;fill-opacity:1;stroke:#1c1c1c;stroke-width:1.98199999;stroke-linecap:butt;stroke-linejoin:miter;stroke-miterlimit:4;stroke-opacity:1;stroke-dasharray:none"
       transform="scale(-1,1)"
       ry="0" />
    <path
       sodipodi:type="arc"
       style="fill:#eeeeec;fill-opacity:1;stroke:none"
       id="path3878"
       sodipodi:cx="57.673397"
       sodipodi:cy="46.272289"
       sodipodi:rx="0.72604716"
       sodipodi:ry="0.75761437"
       d="m 58.399444,46.272289 c 0,0.418419 -0.325062,0.757615 -0.726047,0.757615 -0.400985,0 -0.726047,-0.339196 -0.726047,-0.757615 0,-0.418419 0.325062,-0.757614 0.726047,-0.757614 0.400985,0 0.726047,0.339195 0.726047,0.757614 z"
       transform="matrix(-2.0659815,0,0,1.9798991,296.28772,138.55102)" />
    <path
       transform="matrix(-2.0659815,0,0,1.9798991,302.48772,138.55102)"
       d="m 58.399444,46.272289 c 0,0.418419 -0.325062,0.757615 -0.726047,0.757615 -0.400985,0 -0.726047,-0.339196 -0.726047,-0.757615 0,-0.418419 0.325062,-0.757614 0.726047,-0.757614 0.400985,0 0.726047,0.339195 0.726047,0.757614 z"
       sodipodi:ry="0.75761437"
       sodipodi:rx="0.72604716"
       sodipodi:cy="46.272289"
       sodipodi:cx="57.673397"
       id="path3880"
       style="fill:#eeeeec;fill-opacity:1;stroke:none"
       sodipodi:type="arc" />
    <path
       sodipodi:type="arc"
       style="fill:#eeeeec;fill-opacity:1;stroke:none"
       id="path3882"
       sodipodi:cx="57.673397"
       sodipodi:cy="46.272289"
       sodipodi:rx="0.72604716"
       sodipodi:ry="0.75761437"
       d="m 58.399444,46.272289 c 0,0.418419 -0.325062,0.757615 -0.726047,0.757615 -0.400985,0 -0.726047,-0.339196 -0.726047,-0.757615 0,-0.418419 0.325062,-0.757614 0.726047,-0.757614 0.400985,0 0.726047,0.339195 0.726047,0.757614 z"
       transform="matrix(-2.0659815,0,0,1.9798991,308.68772,138.55102)" />
    <path
       inkscape:connector-curvature="0"
       id="path8400"
       d="m 189.5567,230.40803 0,44.44414 33.06096,0"
       style="fill:none;stroke:#73d216;stroke-width:1.98158598px;stroke-linecap:round;stroke-linejoin:round;stroke-opacity:1"
       sodipodi:nodetypes="ccc" />
    <path
       transform="matrix(-2.0659815,0,0,1.9798991,314.88772,138.55102)"
       d="m 58.399444,46.272289 c 0,0.418419 -0.325062,0.757615 -0.726047,0.757615 -0.400985,0 -0.726047,-0.339196 -0.726047,-0.757615 0,-0.418419 0.325062,-0.757614 0.726047,-0.757614 0.400985,0 0.726047,0.339195 0.726047,0.757614 z"
       sodipodi:ry="0.75761437"
       sodipodi:rx="0.72604716"
       sodipodi:cy="46.272289"
       sodipodi:cx="57.673397"
       id="path3884"
       style="fill:#eeeeec;fill-opacity:1;stroke:none"
       sodipodi:type="arc" />
    <path
       inkscape:connector-curvature="0"
       id="path8384"
       d="m 177.07349,230.79728 0,33.26232 -29.96845,0"
       style="fill:none;stroke:#555753;stroke-width:1.98158598px;stroke-linecap:round;stroke-linejoin:round;stroke-opacity:1"
       sodipodi:nodetypes="ccc" />
    <path
       sodipodi:type="arc"
       style="fill:#eeeeec;fill-opacity:1;stroke:none"
       id="path3898"
       sodipodi:cx="57.673397"
       sodipodi:cy="46.272289"
       sodipodi:rx="0.72604716"
       sodipodi:ry="0.75761437"
       d="m 58.399444,46.272289 c 0,0.418419 -0.325062,0.757615 -0.726047,0.757615 -0.400985,0 -0.726047,-0.339196 -0.726047,-0.757615 0,-0.418419 0.325062,-0.757614 0.726047,-0.757614 0.400985,0 0.726047,0.339195 0.726047,0.757614 z"
       transform="matrix(-2.0659815,0,0,1.9798991,290.08772,132.55102)" />
    <path
       transform="matrix(-2.0659815,0,0,1.9798991,296.28772,132.55102)"
       d="m 58.399444,46.272289 c 0,0.418419 -0.325062,0.757615 -0.726047,0.757615 -0.400985,0 -0.726047,-0.339196 -0.726047,-0.757615 0,-0.418419 0.325062,-0.757614 0.726047,-0.757614 0.400985,0 0.726047,0.339195 0.726047,0.757614 z"
       sodipodi:ry="0.75761437"
       sodipodi:rx="0.72604716"
       sodipodi:cy="46.272289"
       sodipodi:cx="57.673397"
       id="path3900"
       style="fill:#eeeeec;fill-opacity:1;stroke:none"
       sodipodi:type="arc" />
    <g
       style="font-size:79.26344299px;font-style:normal;font-weight:normal;text-align:center;line-height:125%;letter-spacing:0px;word-spacing:0px;text-anchor:middle;fill:#1c1c1c;fill-opacity:1;stroke:none;font-family:Sans"
       id="text3098">
      <path
         d="m 119.50743,309.95749 c -0.59448,-1.28407 -1.16914,-2.62758 -1.72398,-4.03055 -0.54692,-1.40295 -1.05817,-2.80592 -1.53375,-4.20889 l 1.65265,0 c 0.19023,0.55486 0.38442,1.12159 0.58258,1.70021 0.19816,0.57862 0.39632,1.14932 0.59448,1.71209 0.19816,0.55484 0.39631,1.09383 0.59448,1.61697 0.19815,0.52314 0.39235,1.00268 0.58258,1.43863 0.1823,-0.43595 0.37254,-0.91153 0.5707,-1.42674 0.19815,-0.52314 0.39631,-1.06609 0.59447,-1.62886 0.20608,-0.56277 0.40821,-1.13347 0.60637,-1.71209 0.19815,-0.57862 0.38838,-1.14535 0.5707,-1.70021 l 1.60508,0 c -0.48351,1.40297 -0.99873,2.80594 -1.54564,4.20889 -0.54692,1.40297 -1.11762,2.74648 -1.71209,4.03055 l -1.43863,0"
         style="font-size:11.88951588px;font-variant:normal;font-weight:500;font-stretch:normal;fill:#1c1c1c;font-family:Ubuntu;-inkscape-font-specification:Ubuntu Medium"
         id="path4030"
         inkscape:connector-curvature="0" />
      <path
         d="m 130.05473,309.76726 c -0.27742,0.0713 -0.63807,0.14267 -1.08194,0.21401 -0.44388,0.0793 -0.93135,0.11889 -1.46241,0.11889 -0.49937,0 -0.91946,-0.0713 -1.26029,-0.21401 -0.33291,-0.14267 -0.60241,-0.34083 -0.80849,-0.59447 -0.19816,-0.25365 -0.34083,-0.55485 -0.42802,-0.90361 -0.0872,-0.35668 -0.13079,-0.74507 -0.13079,-1.16517 l 0,-3.48363 1.43864,0 0,3.25773 c -1e-5,0.66581 0.0951,1.14139 0.28534,1.42674 0.19816,0.28535 0.53899,0.42803 1.0225,0.42802 0.17438,10e-6 0.35668,-0.008 0.54692,-0.0238 0.19815,-0.0159 0.34479,-0.0357 0.43991,-0.0595 l 0,-5.02927 1.43863,0 0,6.02799"
         style="font-size:11.88951588px;font-variant:normal;font-weight:500;font-stretch:normal;fill:#1c1c1c;font-family:Ubuntu;-inkscape-font-specification:Ubuntu Medium"
         id="path4032"
         inkscape:connector-curvature="0" />
      <path
         d="m 131.55263,306.8781 c 0,-0.54691 0.0793,-1.02645 0.23779,-1.43863 0.16645,-0.41216 0.38442,-0.75299 0.65392,-1.0225 0.26949,-0.27741 0.57862,-0.4835 0.92738,-0.61825 0.34876,-0.14267 0.70544,-0.21401 1.07006,-0.21401 0.85604,0 1.52185,0.26554 1.99744,0.7966 0.4835,0.53107 0.72525,1.3237 0.72526,2.3779 -1e-5,0.0793 -0.004,0.17042 -0.0119,0.27346 -1e-5,0.0951 -0.004,0.18231 -0.0119,0.26157 l -4.10188,0 c 0.0396,0.49936 0.21401,0.88775 0.52313,1.16517 0.31706,0.2695 0.77282,0.40424 1.3673,0.40424 0.34875,0 0.66581,-0.0317 0.95116,-0.0951 0.29327,-0.0634 0.52313,-0.13079 0.68959,-0.20212 l 0.19023,1.17706 c -0.0793,0.0396 -0.19023,0.0832 -0.3329,0.13078 -0.13476,0.0396 -0.29328,0.0753 -0.47558,0.10701 -0.17439,0.0396 -0.36462,0.0713 -0.5707,0.0951 -0.20609,0.0238 -0.41614,0.0357 -0.63014,0.0357 -0.54692,0 -1.0225,-0.0793 -1.42675,-0.23779 -0.40424,-0.16645 -0.73715,-0.39235 -0.99871,-0.6777 -0.26158,-0.29327 -0.45577,-0.63411 -0.58259,-1.0225 -0.12682,-0.39631 -0.19023,-0.8283 -0.19023,-1.29596 m 4.17322,-0.64203 c -1e-5,-0.19815 -0.0277,-0.38442 -0.0832,-0.55881 -0.0555,-0.1823 -0.13872,-0.33686 -0.24968,-0.46369 -0.10305,-0.13474 -0.23383,-0.23778 -0.39235,-0.30913 -0.15061,-0.0793 -0.33291,-0.11889 -0.54692,-0.11889 -0.22194,0 -0.41614,0.0436 -0.58259,0.13078 -0.16645,0.0793 -0.30913,0.18628 -0.42802,0.32102 -0.11097,0.13475 -0.19816,0.28932 -0.26157,0.46369 -0.0634,0.17439 -0.10701,0.35273 -0.13078,0.53503 l 2.67514,0"
         style="font-size:11.88951588px;font-variant:normal;font-weight:500;font-stretch:normal;fill:#1c1c1c;font-family:Ubuntu;-inkscape-font-specification:Ubuntu Medium"
         id="path4034"
         inkscape:connector-curvature="0" />
      <path
         d="m 142.57105,306.83055 c 0,0.63411 0.1506,1.13347 0.4518,1.49808 0.3012,0.35668 0.71733,0.53502 1.2484,0.53502 0.22986,0 0.42406,-0.008 0.58259,-0.0238 0.16645,-0.0238 0.30119,-0.0476 0.40424,-0.0713 l 0,-3.56686 c -0.12683,-0.0872 -0.29724,-0.16645 -0.51125,-0.23779 -0.20609,-0.0793 -0.42802,-0.11889 -0.66581,-0.11889 -0.52314,0 -0.90757,0.17834 -1.15328,0.53503 -0.2378,0.35669 -0.35669,0.84019 -0.35669,1.45052 m 4.12566,2.93671 c -0.28535,0.0872 -0.646,0.16645 -1.08194,0.23779 -0.42803,0.0713 -0.87983,0.107 -1.35541,0.107 -0.49144,0 -0.93135,-0.0753 -1.31973,-0.2259 -0.3884,-0.1506 -0.7213,-0.36461 -0.99872,-0.64203 -0.2695,-0.28535 -0.47955,-0.62618 -0.63015,-1.0225 -0.14267,-0.40424 -0.21401,-0.85604 -0.21401,-1.35541 0,-0.49142 0.0595,-0.9353 0.17834,-1.33162 0.12682,-0.40424 0.30913,-0.74904 0.54692,-1.03439 0.23779,-0.28534 0.5271,-0.50332 0.86794,-0.65392 0.34083,-0.15852 0.73318,-0.23779 1.17706,-0.23779 0.30119,0 0.56673,0.0357 0.7966,0.107 0.22985,0.0713 0.42801,0.15061 0.59447,0.23779 l 0,-2.98426 1.43863,-0.2378 0,9.03604"
         style="font-size:11.88951588px;font-variant:normal;font-weight:500;font-stretch:normal;fill:#1c1c1c;font-family:Ubuntu;-inkscape-font-specification:Ubuntu Medium"
         id="path4036"
         inkscape:connector-curvature="0" />
      <path
         d="m 153.62477,309.76726 c -0.27743,0.0713 -0.63808,0.14267 -1.08195,0.21401 -0.44388,0.0793 -0.93135,0.11889 -1.46241,0.11889 -0.49936,0 -0.91946,-0.0713 -1.26029,-0.21401 -0.3329,-0.14267 -0.6024,-0.34083 -0.80848,-0.59447 -0.19816,-0.25365 -0.34084,-0.55485 -0.42803,-0.90361 -0.0872,-0.35668 -0.13078,-0.74507 -0.13078,-1.16517 l 0,-3.48363 1.43863,0 0,3.25773 c 0,0.66581 0.0951,1.14139 0.28535,1.42674 0.19816,0.28535 0.53899,0.42803 1.0225,0.42802 0.17437,10e-6 0.35668,-0.008 0.54692,-0.0238 0.19815,-0.0159 0.34479,-0.0357 0.43991,-0.0595 l 0,-5.02927 1.43863,0 0,6.02799"
         style="font-size:11.88951588px;font-variant:normal;font-weight:500;font-stretch:normal;fill:#1c1c1c;font-family:Ubuntu;-inkscape-font-specification:Ubuntu Medium"
         id="path4038"
         inkscape:connector-curvature="0" />
      <path
         d="m 157.88605,306.85433 c 0,-0.45973 0.0713,-0.88775 0.21401,-1.28407 0.14267,-0.40424 0.34479,-0.753 0.60636,-1.04628 0.2695,-0.29327 0.59448,-0.52313 0.97494,-0.68959 0.38047,-0.16645 0.80849,-0.24968 1.28407,-0.24968 0.58655,0 1.14139,0.10701 1.66453,0.32102 l -0.30912,1.17706 c -0.16646,-0.0713 -0.35669,-0.13078 -0.5707,-0.17835 -0.20609,-0.0476 -0.42803,-0.0713 -0.66581,-0.0713 -0.56278,0 -0.9908,0.17835 -1.28407,0.53503 -0.29328,0.34876 -0.43991,0.84416 -0.43991,1.48619 0,0.61825 0.13871,1.10969 0.41613,1.4743 0.27742,0.35668 0.74507,0.53502 1.40296,0.53502 0.24572,0 0.48747,-0.0238 0.72526,-0.0713 0.23779,-0.0476 0.44387,-0.10701 0.61826,-0.17835 l 0.20212,1.18896 c -0.15853,0.0793 -0.40029,0.1506 -0.72526,0.21401 -0.31706,0.0634 -0.646,0.0951 -0.98683,0.0951 -0.53107,0 -0.99476,-0.0793 -1.39107,-0.23779 -0.3884,-0.16645 -0.71338,-0.39235 -0.97494,-0.6777 -0.25365,-0.29327 -0.44388,-0.63807 -0.5707,-1.03439 -0.12682,-0.40424 -0.19023,-0.84019 -0.19023,-1.30784"
         style="font-size:11.88951588px;font-variant:normal;font-weight:500;font-stretch:normal;fill:#1c1c1c;font-family:Ubuntu;-inkscape-font-specification:Ubuntu Medium"
         id="path4040"
         inkscape:connector-curvature="0" />
      <path
         d="m 169.33491,306.84244 c -1e-5,0.49143 -0.0713,0.93927 -0.21401,1.34351 -0.14268,0.40425 -0.34481,0.74904 -0.60637,1.03439 -0.26157,0.28535 -0.57863,0.50729 -0.95116,0.66581 -0.36462,0.15853 -0.76886,0.23779 -1.21273,0.23779 -0.44388,0 -0.84812,-0.0793 -1.21273,-0.23779 -0.36461,-0.15852 -0.67771,-0.38046 -0.93927,-0.66581 -0.26157,-0.28535 -0.46766,-0.63014 -0.61826,-1.03439 -0.14267,-0.40424 -0.21401,-0.85208 -0.21401,-1.34351 0,-0.49143 0.0713,-0.93531 0.21401,-1.33163 0.1506,-0.40424 0.35669,-0.74903 0.61826,-1.03439 0.26949,-0.28534 0.58654,-0.50331 0.95116,-0.65392 0.36461,-0.15852 0.76489,-0.23779 1.20084,-0.23779 0.43594,0 0.83622,0.0793 1.20084,0.23779 0.37253,0.15061 0.68959,0.36858 0.95116,0.65392 0.26157,0.28536 0.46369,0.63015 0.60637,1.03439 0.15059,0.39632 0.22589,0.8402 0.2259,1.33163 m -1.4743,0 c -1e-5,-0.61826 -0.13475,-1.10572 -0.40425,-1.46241 -0.26157,-0.36461 -0.63014,-0.54692 -1.10572,-0.54692 -0.47558,0 -0.84812,0.18231 -1.11761,0.54692 -0.26158,0.35669 -0.39236,0.84415 -0.39236,1.46241 0,0.62618 0.13078,1.12158 0.39236,1.48619 0.26949,0.36461 0.64203,0.54691 1.11761,0.54691 0.47558,0 0.84415,-0.1823 1.10572,-0.54691 0.2695,-0.36461 0.40424,-0.86001 0.40425,-1.48619"
         style="font-size:11.88951588px;font-variant:normal;font-weight:500;font-stretch:normal;fill:#1c1c1c;font-family:Ubuntu;-inkscape-font-specification:Ubuntu Medium"
         id="path4042"
         inkscape:connector-curvature="0" />
      <path
         d="m 170.81701,303.94139 c 0.27742,-0.0793 0.63807,-0.15455 1.08195,-0.2259 0.44387,-0.0713 0.9353,-0.107 1.4743,-0.107 0.50728,0 0.93134,0.0713 1.27217,0.21401 0.34083,0.13475 0.61033,0.32895 0.80849,0.58259 0.20608,0.24572 0.34875,0.54692 0.42802,0.9036 0.0872,0.34876 0.13078,0.73319 0.13079,1.15328 l 0,3.49552 -1.43863,0 0,-3.26962 c -10e-6,-0.3329 -0.0238,-0.61429 -0.0713,-0.84415 -0.0396,-0.23779 -0.11097,-0.42802 -0.21401,-0.5707 -0.0951,-0.1506 -0.22987,-0.2576 -0.40425,-0.32102 -0.16645,-0.0713 -0.37254,-0.107 -0.61825,-0.107 -0.18231,0 -0.37254,0.0119 -0.5707,0.0357 -0.19816,0.0238 -0.3448,0.0436 -0.43991,0.0594 l 0,5.01738 -1.43863,0 0,-6.0161"
         style="font-size:11.88951588px;font-variant:normal;font-weight:500;font-stretch:normal;fill:#1c1c1c;font-family:Ubuntu;-inkscape-font-specification:Ubuntu Medium"
         id="path4044"
         inkscape:connector-curvature="0" />
      <path
         d="m 177.78352,303.94139 c 0.27743,-0.0793 0.63807,-0.15455 1.08195,-0.2259 0.44387,-0.0713 0.93531,-0.107 1.4743,-0.107 0.50728,0 0.93134,0.0713 1.27218,0.21401 0.34083,0.13475 0.61032,0.32895 0.80849,0.58259 0.20607,0.24572 0.34875,0.54692 0.42802,0.9036 0.0872,0.34876 0.13078,0.73319 0.13078,1.15328 l 0,3.49552 -1.43863,0 0,-3.26962 c 0,-0.3329 -0.0238,-0.61429 -0.0713,-0.84415 -0.0396,-0.23779 -0.11097,-0.42802 -0.21401,-0.5707 -0.0951,-0.1506 -0.22987,-0.2576 -0.40424,-0.32102 -0.16646,-0.0713 -0.37254,-0.107 -0.61826,-0.107 -0.1823,0 -0.37254,0.0119 -0.57069,0.0357 -0.19816,0.0238 -0.3448,0.0436 -0.43991,0.0594 l 0,5.01738 -1.43864,0 0,-6.0161"
         style="font-size:11.88951588px;font-variant:normal;font-weight:500;font-stretch:normal;fill:#1c1c1c;font-family:Ubuntu;-inkscape-font-specification:Ubuntu Medium"
         id="path4046"
         inkscape:connector-curvature="0" />
      <path
         d="m 184.40524,306.8781 c 0,-0.54691 0.0793,-1.02645 0.23779,-1.43863 0.16646,-0.41216 0.38443,-0.75299 0.65393,-1.0225 0.26949,-0.27741 0.57862,-0.4835 0.92738,-0.61825 0.34876,-0.14267 0.70544,-0.21401 1.07006,-0.21401 0.85604,0 1.52185,0.26554 1.99743,0.7966 0.48351,0.53107 0.72526,1.3237 0.72526,2.3779 0,0.0793 -0.004,0.17042 -0.0119,0.27346 0,0.0951 -0.004,0.18231 -0.0119,0.26157 l -4.10189,0 c 0.0396,0.49936 0.21401,0.88775 0.52314,1.16517 0.31705,0.2695 0.77282,0.40424 1.3673,0.40424 0.34875,0 0.6658,-0.0317 0.95116,-0.0951 0.29327,-0.0634 0.52313,-0.13079 0.68959,-0.20212 l 0.19023,1.17706 c -0.0793,0.0396 -0.19024,0.0832 -0.33291,0.13078 -0.13475,0.0396 -0.29328,0.0753 -0.47558,0.10701 -0.17438,0.0396 -0.36461,0.0713 -0.57069,0.0951 -0.20609,0.0238 -0.41614,0.0357 -0.63015,0.0357 -0.54692,0 -1.0225,-0.0793 -1.42674,-0.23779 -0.40424,-0.16645 -0.73715,-0.39235 -0.99872,-0.6777 -0.26157,-0.29327 -0.45576,-0.63411 -0.58258,-1.0225 -0.12683,-0.39631 -0.19024,-0.8283 -0.19024,-1.29596 m 4.17322,-0.64203 c 0,-0.19815 -0.0277,-0.38442 -0.0832,-0.55881 -0.0555,-0.1823 -0.13872,-0.33686 -0.24968,-0.46369 -0.10305,-0.13474 -0.23383,-0.23778 -0.39236,-0.30913 -0.1506,-0.0793 -0.33291,-0.11889 -0.54692,-0.11889 -0.22194,0 -0.41613,0.0436 -0.58258,0.13078 -0.16646,0.0793 -0.30913,0.18628 -0.42802,0.32102 -0.11098,0.13475 -0.19816,0.28932 -0.26157,0.46369 -0.0634,0.17439 -0.10701,0.35273 -0.13079,0.53503 l 2.67514,0"
         style="font-size:11.88951588px;font-variant:normal;font-weight:500;font-stretch:normal;fill:#1c1c1c;font-family:Ubuntu;-inkscape-font-specification:Ubuntu Medium"
         id="path4048"
         inkscape:connector-curvature="0" />
      <path
         d="m 191.18598,306.85433 c 0,-0.45973 0.0713,-0.88775 0.21401,-1.28407 0.14268,-0.40424 0.3448,-0.753 0.60637,-1.04628 0.26949,-0.29327 0.59447,-0.52313 0.97494,-0.68959 0.38046,-0.16645 0.80848,-0.24968 1.28407,-0.24968 0.58654,0 1.14139,0.10701 1.66453,0.32102 l -0.30913,1.17706 c -0.16646,-0.0713 -0.35669,-0.13078 -0.5707,-0.17835 -0.20608,-0.0476 -0.42802,-0.0713 -0.66581,-0.0713 -0.56277,0 -0.99079,0.17835 -1.28407,0.53503 -0.29327,0.34876 -0.43991,0.84416 -0.43991,1.48619 0,0.61825 0.13871,1.10969 0.41613,1.4743 0.27742,0.35668 0.74508,0.53502 1.40297,0.53502 0.24571,0 0.48746,-0.0238 0.72526,-0.0713 0.23778,-0.0476 0.44387,-0.10701 0.61825,-0.17835 l 0.20212,1.18896 c -0.15853,0.0793 -0.40028,0.1506 -0.72526,0.21401 -0.31705,0.0634 -0.646,0.0951 -0.98683,0.0951 -0.53106,0 -0.99475,-0.0793 -1.39107,-0.23779 -0.38839,-0.16645 -0.71337,-0.39235 -0.97494,-0.6777 -0.25364,-0.29327 -0.44388,-0.63807 -0.5707,-1.03439 -0.12682,-0.40424 -0.19023,-0.84019 -0.19023,-1.30784"
         style="font-size:11.88951588px;font-variant:normal;font-weight:500;font-stretch:normal;fill:#1c1c1c;font-family:Ubuntu;-inkscape-font-specification:Ubuntu Medium"
         id="path4050"
         inkscape:connector-curvature="0" />
      <path
         d="m 197.07909,302.09852 1.43863,-0.23779 0,1.87854 2.21145,0 0,1.20084 -2.21145,0 0,2.53247 c 0,0.49936 0.0793,0.85605 0.23779,1.07006 0.15853,0.21401 0.42802,0.32101 0.80849,0.32101 0.26157,0 0.49143,-0.0277 0.68959,-0.0832 0.20608,-0.0555 0.36857,-0.10701 0.48747,-0.15457 l 0.23779,1.1414 c -0.16645,0.0713 -0.38443,0.14267 -0.65392,0.21401 -0.2695,0.0793 -0.58655,0.11889 -0.95116,0.11889 -0.44388,0 -0.81642,-0.0594 -1.11762,-0.17834 -0.29327,-0.11889 -0.5271,-0.28931 -0.70148,-0.51125 -0.17438,-0.22986 -0.29724,-0.50332 -0.36857,-0.82038 -0.0713,-0.32497 -0.10701,-0.69355 -0.10701,-1.10572 l 0,-5.38595"
         style="font-size:11.88951588px;font-variant:normal;font-weight:500;font-stretch:normal;fill:#1c1c1c;font-family:Ubuntu;-inkscape-font-specification:Ubuntu Medium"
         id="path4052"
         inkscape:connector-curvature="0" />
      <path
         d="m 201.65897,306.8781 c 0,-0.54691 0.0793,-1.02645 0.23779,-1.43863 0.16646,-0.41216 0.38443,-0.75299 0.65393,-1.0225 0.26949,-0.27741 0.57862,-0.4835 0.92738,-0.61825 0.34876,-0.14267 0.70544,-0.21401 1.07006,-0.21401 0.85604,0 1.52185,0.26554 1.99743,0.7966 0.48351,0.53107 0.72526,1.3237 0.72527,2.3779 -1e-5,0.0793 -0.004,0.17042 -0.0119,0.27346 -1e-5,0.0951 -0.004,0.18231 -0.0119,0.26157 l -4.10189,0 c 0.0396,0.49936 0.21401,0.88775 0.52314,1.16517 0.31705,0.2695 0.77282,0.40424 1.3673,0.40424 0.34875,0 0.6658,-0.0317 0.95116,-0.0951 0.29327,-0.0634 0.52313,-0.13079 0.68959,-0.20212 l 0.19023,1.17706 c -0.0793,0.0396 -0.19024,0.0832 -0.3329,0.13078 -0.13476,0.0396 -0.29328,0.0753 -0.47559,0.10701 -0.17438,0.0396 -0.36461,0.0713 -0.57069,0.0951 -0.20609,0.0238 -0.41614,0.0357 -0.63015,0.0357 -0.54692,0 -1.0225,-0.0793 -1.42674,-0.23779 -0.40424,-0.16645 -0.73715,-0.39235 -0.99872,-0.6777 -0.26157,-0.29327 -0.45576,-0.63411 -0.58258,-1.0225 -0.12683,-0.39631 -0.19024,-0.8283 -0.19024,-1.29596 m 4.17322,-0.64203 c 0,-0.19815 -0.0277,-0.38442 -0.0832,-0.55881 -0.0555,-0.1823 -0.13872,-0.33686 -0.24968,-0.46369 -0.10305,-0.13474 -0.23383,-0.23778 -0.39236,-0.30913 -0.1506,-0.0793 -0.33291,-0.11889 -0.54691,-0.11889 -0.22195,0 -0.41614,0.0436 -0.58259,0.13078 -0.16646,0.0793 -0.30913,0.18628 -0.42802,0.32102 -0.11097,0.13475 -0.19816,0.28932 -0.26157,0.46369 -0.0634,0.17439 -0.10701,0.35273 -0.13079,0.53503 l 2.67514,0"
         style="font-size:11.88951588px;font-variant:normal;font-weight:500;font-stretch:normal;fill:#1c1c1c;font-family:Ubuntu;-inkscape-font-specification:Ubuntu Medium"
         id="path4054"
         inkscape:connector-curvature="0" />
      <path
         d="m 213.88511,309.76726 c -0.27743,0.0713 -0.63808,0.14267 -1.08195,0.21401 -0.44387,0.0793 -0.93134,0.11889 -1.46241,0.11889 -0.49936,0 -0.91945,-0.0713 -1.26028,-0.21401 -0.33291,-0.14267 -0.60241,-0.34083 -0.80849,-0.59447 -0.19816,-0.25365 -0.34084,-0.55485 -0.42802,-0.90361 -0.0872,-0.35668 -0.13079,-0.74507 -0.13079,-1.16517 l 0,-3.48363 1.43863,0 0,3.25773 c 0,0.66581 0.0951,1.14139 0.28535,1.42674 0.19816,0.28535 0.53899,0.42803 1.0225,0.42802 0.17438,10e-6 0.35668,-0.008 0.54692,-0.0238 0.19815,-0.0159 0.34479,-0.0357 0.43991,-0.0595 l 0,-5.02927 1.43863,0 0,6.02799"
         style="font-size:11.88951588px;font-variant:normal;font-weight:500;font-stretch:normal;fill:#1c1c1c;font-family:Ubuntu;-inkscape-font-specification:Ubuntu Medium"
         id="path4056"
         inkscape:connector-curvature="0" />
      <path
         d="m 219.27087,305.03523 c -0.11889,-0.0396 -0.28535,-0.0793 -0.49935,-0.1189 -0.20609,-0.0476 -0.44785,-0.0713 -0.72527,-0.0713 -0.15853,0 -0.32894,0.0159 -0.51124,0.0476 -0.17439,0.0317 -0.29724,0.0594 -0.36858,0.0832 l 0,4.98171 -1.43863,0 0,-5.92098 c 0.27742,-0.10304 0.62222,-0.19815 1.03439,-0.28535 0.42009,-0.0951 0.88378,-0.14267 1.39107,-0.14267 0.0951,0 0.20608,0.008 0.33291,0.0238 0.12681,0.008 0.25364,0.0238 0.38046,0.0476 0.12682,0.0159 0.24968,0.0396 0.36858,0.0713 0.11889,0.0238 0.214,0.0476 0.28534,0.0713 l -0.24968,1.21273"
         style="font-size:11.88951588px;font-variant:normal;font-weight:500;font-stretch:normal;fill:#1c1c1c;font-family:Ubuntu;-inkscape-font-specification:Ubuntu Medium"
         id="path4058"
         inkscape:connector-curvature="0" />
      <path
         d="m 225.46253,308.94688 c 0.44387,0 0.78074,-0.0238 1.01061,-0.0713 l 0,-1.59319 c -0.0793,-0.0238 -0.1942,-0.0476 -0.3448,-0.0713 -0.1506,-0.0238 -0.31706,-0.0357 -0.49936,-0.0357 -0.15853,1e-5 -0.32102,0.0119 -0.48747,0.0357 -0.15853,0.0238 -0.30517,0.0674 -0.43991,0.13079 -0.12682,0.0634 -0.22987,0.15456 -0.30913,0.27345 -0.0793,0.11098 -0.1189,0.25365 -0.11889,0.42803 -1e-5,0.34083 0.107,0.57862 0.32101,0.71337 0.21401,0.12682 0.50332,0.19023 0.86794,0.19023 m -0.1189,-5.36217 c 0.47558,0 0.87586,0.0595 1.20084,0.17834 0.32498,0.1189 0.58259,0.28536 0.77282,0.49936 0.19816,0.21402 0.33687,0.47559 0.41614,0.78471 0.0872,0.3012 0.13077,0.63411 0.13078,0.99872 l 0,3.76897 c -0.22194,0.0476 -0.55881,0.10305 -1.01061,0.16646 -0.44388,0.0713 -0.9472,0.107 -1.50997,0.107 -0.37254,0 -0.71337,-0.0357 -1.0225,-0.107 -0.30912,-0.0713 -0.57466,-0.18627 -0.79659,-0.3448 -0.21402,-0.15852 -0.38443,-0.36461 -0.51125,-0.61825 -0.1189,-0.25364 -0.17835,-0.56673 -0.17834,-0.93927 -1e-5,-0.35669 0.0674,-0.65789 0.20212,-0.90361 0.14267,-0.24571 0.3329,-0.44387 0.57069,-0.59447 0.23779,-0.15853 0.51125,-0.2695 0.82038,-0.33291 0.31705,-0.0713 0.64599,-0.107 0.98683,-0.10701 0.15852,10e-6 0.32498,0.0119 0.49936,0.0357 0.17438,0.0159 0.36064,0.0476 0.55881,0.0951 l 0,-0.23779 c -1e-5,-0.16645 -0.0198,-0.32498 -0.0594,-0.47558 -0.0396,-0.1506 -0.11097,-0.28138 -0.21401,-0.39236 -0.0951,-0.11889 -0.22591,-0.21004 -0.39236,-0.27345 -0.15853,-0.0634 -0.36065,-0.0951 -0.60636,-0.0951 -0.33291,0 -0.63807,0.0238 -0.91549,0.0713 -0.27743,0.0476 -0.50333,0.10304 -0.67771,0.16645 l -0.17834,-1.16517 c 0.18231,-0.0634 0.44784,-0.12682 0.7966,-0.19024 0.34876,-0.0634 0.72129,-0.0951 1.11761,-0.0951"
         style="font-size:11.88951588px;font-variant:normal;font-weight:500;font-stretch:normal;fill:#1c1c1c;font-family:Ubuntu;-inkscape-font-specification:Ubuntu Medium"
         id="path4060"
         inkscape:connector-curvature="0" />
      <path
         d="m 233.15746,305.03523 c -0.1189,-0.0396 -0.28536,-0.0793 -0.49936,-0.1189 -0.20609,-0.0476 -0.44785,-0.0713 -0.72526,-0.0713 -0.15853,0 -0.32895,0.0159 -0.51125,0.0476 -0.17439,0.0317 -0.29724,0.0594 -0.36858,0.0832 l 0,4.98171 -1.43863,0 0,-5.92098 c 0.27742,-0.10304 0.62222,-0.19815 1.03439,-0.28535 0.42009,-0.0951 0.88378,-0.14267 1.39107,-0.14267 0.0951,0 0.20608,0.008 0.33291,0.0238 0.12682,0.008 0.25364,0.0238 0.38046,0.0476 0.12682,0.0159 0.24968,0.0396 0.36858,0.0713 0.11889,0.0238 0.214,0.0476 0.28535,0.0713 l -0.24968,1.21273"
         style="font-size:11.88951588px;font-variant:normal;font-weight:500;font-stretch:normal;fill:#1c1c1c;font-family:Ubuntu;-inkscape-font-specification:Ubuntu Medium"
         id="path4062"
         inkscape:connector-curvature="0" />
      <path
         d="m 237.94113,305.03523 c -0.1189,-0.0396 -0.28535,-0.0793 -0.49936,-0.1189 -0.20609,-0.0476 -0.44784,-0.0713 -0.72526,-0.0713 -0.15853,0 -0.32894,0.0159 -0.51125,0.0476 -0.17438,0.0317 -0.29724,0.0594 -0.36857,0.0832 l 0,4.98171 -1.43863,0 0,-5.92098 c 0.27742,-0.10304 0.62221,-0.19815 1.03438,-0.28535 0.4201,-0.0951 0.88379,-0.14267 1.39108,-0.14267 0.0951,0 0.20608,0.008 0.3329,0.0238 0.12682,0.008 0.25364,0.0238 0.38047,0.0476 0.12682,0.0159 0.24967,0.0396 0.36857,0.0713 0.11889,0.0238 0.21401,0.0476 0.28535,0.0713 l -0.24968,1.21273"
         style="font-size:11.88951588px;font-variant:normal;font-weight:500;font-stretch:normal;fill:#1c1c1c;font-family:Ubuntu;-inkscape-font-specification:Ubuntu Medium"
         id="path4064"
         inkscape:connector-curvature="0" />
      <path
         d="m 240.63225,309.95749 -1.43864,0 0,-6.21822 1.43864,0 0,6.21822 m 0.15456,-8.03731 c 0,0.2695 -0.0872,0.48351 -0.26157,0.64203 -0.17438,0.15853 -0.38047,0.2378 -0.61825,0.23779 -0.24572,10e-6 -0.45577,-0.0793 -0.63015,-0.23779 -0.17438,-0.15852 -0.26157,-0.37253 -0.26157,-0.64203 0,-0.27742 0.0872,-0.49539 0.26157,-0.65393 0.17438,-0.15852 0.38443,-0.23778 0.63015,-0.23779 0.23778,1e-5 0.44387,0.0793 0.61825,0.23779 0.17438,0.15854 0.26157,0.37651 0.26157,0.65393"
         style="font-size:11.88951588px;font-variant:normal;font-weight:500;font-stretch:normal;fill:#1c1c1c;font-family:Ubuntu;-inkscape-font-specification:Ubuntu Medium"
         id="path4066"
         inkscape:connector-curvature="0" />
      <path
         d="m 242.11119,306.8781 c 0,-0.54691 0.0793,-1.02645 0.23779,-1.43863 0.16645,-0.41216 0.38443,-0.75299 0.65392,-1.0225 0.2695,-0.27741 0.57863,-0.4835 0.92739,-0.61825 0.34875,-0.14267 0.70544,-0.21401 1.07005,-0.21401 0.85604,0 1.52186,0.26554 1.99744,0.7966 0.4835,0.53107 0.72526,1.3237 0.72526,2.3779 0,0.0793 -0.004,0.17042 -0.0119,0.27346 0,0.0951 -0.004,0.18231 -0.0119,0.26157 l -4.10188,0 c 0.0396,0.49936 0.21401,0.88775 0.52314,1.16517 0.31705,0.2695 0.77281,0.40424 1.36729,0.40424 0.34876,0 0.66581,-0.0317 0.95116,-0.0951 0.29327,-0.0634 0.52314,-0.13079 0.6896,-0.20212 l 0.19023,1.17706 c -0.0793,0.0396 -0.19024,0.0832 -0.33291,0.13078 -0.13475,0.0396 -0.29328,0.0753 -0.47558,0.10701 -0.17438,0.0396 -0.36461,0.0713 -0.5707,0.0951 -0.20608,0.0238 -0.41613,0.0357 -0.63014,0.0357 -0.54692,0 -1.0225,-0.0793 -1.42674,-0.23779 -0.40425,-0.16645 -0.73715,-0.39235 -0.99872,-0.6777 -0.26157,-0.29327 -0.45577,-0.63411 -0.58259,-1.0225 -0.12682,-0.39631 -0.19023,-0.8283 -0.19023,-1.29596 m 4.17322,-0.64203 c 0,-0.19815 -0.0277,-0.38442 -0.0832,-0.55881 -0.0555,-0.1823 -0.13871,-0.33686 -0.24968,-0.46369 -0.10304,-0.13474 -0.23383,-0.23778 -0.39235,-0.30913 -0.1506,-0.0793 -0.33291,-0.11889 -0.54692,-0.11889 -0.22194,0 -0.41613,0.0436 -0.58258,0.13078 -0.16646,0.0793 -0.30913,0.18628 -0.42803,0.32102 -0.11097,0.13475 -0.19816,0.28932 -0.26157,0.46369 -0.0634,0.17439 -0.107,0.35273 -0.13078,0.53503 l 2.67514,0 m -1.94988,-5.88531 1.72398,2.08067 -0.71337,0.64203 -1.9261,-1.89043 0.91549,-0.83227"
         style="font-size:11.88951588px;font-variant:normal;font-weight:500;font-stretch:normal;fill:#1c1c1c;font-family:Ubuntu;-inkscape-font-specification:Ubuntu Medium"
         id="path4068"
         inkscape:connector-curvature="0" />
      <path
         d="m 252.7798,305.03523 c -0.1189,-0.0396 -0.28535,-0.0793 -0.49936,-0.1189 -0.20609,-0.0476 -0.44784,-0.0713 -0.72526,-0.0713 -0.15853,0 -0.32894,0.0159 -0.51125,0.0476 -0.17438,0.0317 -0.29724,0.0594 -0.36857,0.0832 l 0,4.98171 -1.43863,0 0,-5.92098 c 0.27742,-0.10304 0.62221,-0.19815 1.03438,-0.28535 0.4201,-0.0951 0.88379,-0.14267 1.39108,-0.14267 0.0951,0 0.20608,0.008 0.3329,0.0238 0.12682,0.008 0.25364,0.0238 0.38047,0.0476 0.12682,0.0159 0.24967,0.0396 0.36857,0.0713 0.11889,0.0238 0.21401,0.0476 0.28535,0.0713 l -0.24968,1.21273"
         style="font-size:11.88951588px;font-variant:normal;font-weight:500;font-stretch:normal;fill:#1c1c1c;font-family:Ubuntu;-inkscape-font-specification:Ubuntu Medium"
         id="path4070"
         inkscape:connector-curvature="0" />
      <path
         d="m 253.67561,306.8781 c 0,-0.54691 0.0793,-1.02645 0.23779,-1.43863 0.16645,-0.41216 0.38442,-0.75299 0.65392,-1.0225 0.26949,-0.27741 0.57862,-0.4835 0.92738,-0.61825 0.34876,-0.14267 0.70544,-0.21401 1.07006,-0.21401 0.85604,0 1.52185,0.26554 1.99744,0.7966 0.4835,0.53107 0.72525,1.3237 0.72526,2.3779 -1e-5,0.0793 -0.004,0.17042 -0.0119,0.27346 -10e-6,0.0951 -0.004,0.18231 -0.0119,0.26157 l -4.10188,0 c 0.0396,0.49936 0.214,0.88775 0.52313,1.16517 0.31705,0.2695 0.77282,0.40424 1.3673,0.40424 0.34875,0 0.66581,-0.0317 0.95116,-0.0951 0.29327,-0.0634 0.52313,-0.13079 0.68959,-0.20212 l 0.19023,1.17706 c -0.0793,0.0396 -0.19023,0.0832 -0.3329,0.13078 -0.13476,0.0396 -0.29328,0.0753 -0.47558,0.10701 -0.17439,0.0396 -0.36462,0.0713 -0.5707,0.0951 -0.20609,0.0238 -0.41614,0.0357 -0.63014,0.0357 -0.54693,0 -1.02251,-0.0793 -1.42675,-0.23779 -0.40424,-0.16645 -0.73715,-0.39235 -0.99872,-0.6777 -0.26157,-0.29327 -0.45576,-0.63411 -0.58258,-1.0225 -0.12682,-0.39631 -0.19023,-0.8283 -0.19023,-1.29596 m 4.17322,-0.64203 c -1e-5,-0.19815 -0.0278,-0.38442 -0.0832,-0.55881 -0.0555,-0.1823 -0.13872,-0.33686 -0.24968,-0.46369 -0.10305,-0.13474 -0.23383,-0.23778 -0.39235,-0.30913 -0.15061,-0.0793 -0.33291,-0.11889 -0.54692,-0.11889 -0.22194,0 -0.41614,0.0436 -0.58259,0.13078 -0.16645,0.0793 -0.30913,0.18628 -0.42802,0.32102 -0.11097,0.13475 -0.19816,0.28932 -0.26157,0.46369 -0.0634,0.17439 -0.10701,0.35273 -0.13079,0.53503 l 2.67515,0"
         style="font-size:11.88951588px;font-variant:normal;font-weight:500;font-stretch:normal;fill:#1c1c1c;font-family:Ubuntu;-inkscape-font-specification:Ubuntu Medium"
         id="path4072"
         inkscape:connector-curvature="0" />
      <path
         d="m 163.20354,321.69244 c 0,0.63411 0.1506,1.13347 0.4518,1.49808 0.3012,0.35669 0.71733,0.53503 1.2484,0.53503 0.22986,0 0.42406,-0.008 0.58259,-0.0238 0.16645,-0.0238 0.30119,-0.0476 0.40424,-0.0713 l 0,-3.56685 c -0.12683,-0.0872 -0.29724,-0.16645 -0.51125,-0.23779 -0.20609,-0.0793 -0.42803,-0.11889 -0.66581,-0.1189 -0.52314,1e-5 -0.90757,0.17835 -1.15329,0.53503 -0.23779,0.35669 -0.35668,0.8402 -0.35668,1.45052 m 4.12566,2.93671 c -0.28535,0.0872 -0.646,0.16645 -1.08194,0.23779 -0.42803,0.0713 -0.87983,0.10701 -1.35541,0.10701 -0.49144,0 -0.93135,-0.0753 -1.31974,-0.2259 -0.38839,-0.1506 -0.72129,-0.36461 -0.99871,-0.64204 -0.2695,-0.28534 -0.47955,-0.62618 -0.63015,-1.0225 -0.14267,-0.40424 -0.21401,-0.85604 -0.21401,-1.3554 0,-0.49143 0.0594,-0.9353 0.17834,-1.33163 0.12682,-0.40423 0.30913,-0.74903 0.54692,-1.03438 0.23779,-0.28535 0.5271,-0.50332 0.86793,-0.65393 0.34083,-0.15852 0.73319,-0.23778 1.17707,-0.23779 0.30119,1e-5 0.56673,0.0357 0.79659,0.10701 0.22986,0.0713 0.42802,0.1506 0.59448,0.23779 l 0,-2.98427 1.43863,-0.23779 0,9.03603"
         style="font-size:11.88951588px;font-variant:normal;font-weight:500;font-stretch:normal;fill:#1c1c1c;font-family:Ubuntu;-inkscape-font-specification:Ubuntu Medium"
         id="path4074"
         inkscape:connector-curvature="0" />
      <path
         d="m 168.81186,321.74 c 0,-0.54691 0.0793,-1.02646 0.23779,-1.43863 0.16645,-0.41217 0.38443,-0.753 0.65392,-1.0225 0.2695,-0.27742 0.57863,-0.4835 0.92739,-0.61826 0.34875,-0.14266 0.70544,-0.214 1.07005,-0.21401 0.85604,1e-5 1.52186,0.26554 1.99744,0.7966 0.4835,0.53107 0.72526,1.3237 0.72526,2.3779 0,0.0793 -0.004,0.17042 -0.0119,0.27346 0,0.0951 -0.004,0.18231 -0.0119,0.26157 l -4.10188,0 c 0.0396,0.49936 0.21401,0.88775 0.52314,1.16517 0.31705,0.2695 0.77281,0.40425 1.36729,0.40425 0.34876,0 0.66581,-0.0317 0.95116,-0.0951 0.29327,-0.0634 0.52314,-0.13078 0.6896,-0.20212 l 0.19023,1.17706 c -0.0793,0.0396 -0.19024,0.0832 -0.33291,0.13079 -0.13475,0.0396 -0.29328,0.0753 -0.47558,0.107 -0.17438,0.0396 -0.36461,0.0713 -0.57069,0.0951 -0.20609,0.0238 -0.41614,0.0357 -0.63015,0.0357 -0.54692,0 -1.0225,-0.0793 -1.42674,-0.23779 -0.40425,-0.16646 -0.73715,-0.39236 -0.99872,-0.67771 -0.26157,-0.29327 -0.45577,-0.6341 -0.58259,-1.02249 -0.12682,-0.39632 -0.19023,-0.8283 -0.19023,-1.29596 m 4.17322,-0.64203 c 0,-0.19816 -0.0277,-0.38443 -0.0832,-0.55881 -0.0555,-0.1823 -0.13871,-0.33687 -0.24968,-0.46369 -0.10304,-0.13475 -0.23383,-0.23779 -0.39235,-0.30913 -0.1506,-0.0793 -0.33291,-0.11889 -0.54692,-0.1189 -0.22194,10e-6 -0.41613,0.0436 -0.58258,0.13079 -0.16646,0.0793 -0.30913,0.18627 -0.42803,0.32102 -0.11097,0.13475 -0.19816,0.28931 -0.26157,0.46369 -0.0634,0.17438 -0.107,0.35272 -0.13078,0.53503 l 2.67514,0"
         style="font-size:11.88951588px;font-variant:normal;font-weight:500;font-stretch:normal;fill:#1c1c1c;font-family:Ubuntu;-inkscape-font-specification:Ubuntu Medium"
         id="path4076"
         inkscape:connector-curvature="0" />
      <path
         d="m 180.86467,324.93828 c -0.42802,-0.008 -0.78471,-0.0555 -1.07005,-0.14268 -0.27743,-0.0872 -0.49937,-0.21004 -0.66582,-0.36857 -0.16645,-0.16645 -0.28535,-0.36857 -0.35668,-0.60637 -0.0634,-0.24571 -0.0951,-0.52313 -0.0951,-0.83226 l 0,-7.15749 1.43863,-0.23779 0,7.12182 c 0,0.17438 0.0119,0.32102 0.0357,0.43991 0.0317,0.1189 0.0832,0.22194 0.15457,0.30913 0.0713,0.0793 0.16645,0.14267 0.28534,0.19023 0.12682,0.0396 0.28535,0.0713 0.47558,0.0951 l -0.20212,1.18895"
         style="font-size:11.88951588px;font-variant:normal;font-weight:500;font-stretch:normal;fill:#1c1c1c;font-family:Ubuntu;-inkscape-font-specification:Ubuntu Medium"
         id="path4078"
         inkscape:connector-curvature="0" />
      <path
         d="m 183.58588,315.78335 0,0.73715 c 0,0.38047 -0.0277,0.79264 -0.0832,1.23651 -0.0555,0.43596 -0.1189,0.87587 -0.19023,1.31974 l -0.9155,0 c -0.0793,-0.44387 -0.14267,-0.88378 -0.19023,-1.31974 -0.0476,-0.43594 -0.0713,-0.85207 -0.0713,-1.2484 l 0,-0.72526 1.45052,0"
         style="font-size:11.88951588px;font-variant:normal;font-weight:500;font-stretch:normal;fill:#1c1c1c;font-family:Ubuntu;-inkscape-font-specification:Ubuntu Medium"
         id="path4080"
         inkscape:connector-curvature="0" />
      <path
         d="m 184.97417,321.74 c 0,-0.54691 0.0793,-1.02646 0.23779,-1.43863 0.16645,-0.41217 0.38443,-0.753 0.65393,-1.0225 0.26949,-0.27742 0.57862,-0.4835 0.92738,-0.61826 0.34875,-0.14266 0.70544,-0.214 1.07005,-0.21401 0.85604,1e-5 1.52186,0.26554 1.99744,0.7966 0.4835,0.53107 0.72526,1.3237 0.72526,2.3779 0,0.0793 -0.004,0.17042 -0.0119,0.27346 0,0.0951 -0.004,0.18231 -0.0119,0.26157 l -4.10188,0 c 0.0396,0.49936 0.21401,0.88775 0.52314,1.16517 0.31705,0.2695 0.77282,0.40425 1.36729,0.40425 0.34876,0 0.66581,-0.0317 0.95117,-0.0951 0.29326,-0.0634 0.52313,-0.13078 0.68959,-0.20212 l 0.19023,1.17706 c -0.0793,0.0396 -0.19024,0.0832 -0.33291,0.13079 -0.13475,0.0396 -0.29328,0.0753 -0.47558,0.107 -0.17438,0.0396 -0.36461,0.0713 -0.57069,0.0951 -0.20609,0.0238 -0.41614,0.0357 -0.63015,0.0357 -0.54692,0 -1.0225,-0.0793 -1.42674,-0.23779 -0.40425,-0.16646 -0.73715,-0.39236 -0.99872,-0.67771 -0.26157,-0.29327 -0.45577,-0.6341 -0.58259,-1.02249 -0.12682,-0.39632 -0.19023,-0.8283 -0.19023,-1.29596 m 4.17322,-0.64203 c 0,-0.19816 -0.0277,-0.38443 -0.0832,-0.55881 -0.0555,-0.1823 -0.13872,-0.33687 -0.24968,-0.46369 -0.10305,-0.13475 -0.23384,-0.23779 -0.39236,-0.30913 -0.1506,-0.0793 -0.33291,-0.11889 -0.54692,-0.1189 -0.22194,10e-6 -0.41613,0.0436 -0.58258,0.13079 -0.16646,0.0793 -0.30913,0.18627 -0.42803,0.32102 -0.11097,0.13475 -0.19816,0.28931 -0.26156,0.46369 -0.0634,0.17438 -0.10701,0.35272 -0.13079,0.53503 l 2.67514,0 m 0.24968,-5.04116 -1.93799,1.87854 -0.71337,-0.64203 1.74776,-2.08066 0.9036,0.84415"
         style="font-size:11.88951588px;font-variant:normal;font-weight:500;font-stretch:normal;fill:#1c1c1c;font-family:Ubuntu;-inkscape-font-specification:Ubuntu Medium"
         id="path4082"
         inkscape:connector-curvature="0" />
      <path
         d="m 191.75491,321.71622 c 0,-0.45972 0.0713,-0.88775 0.21401,-1.28407 0.14268,-0.40424 0.3448,-0.753 0.60637,-1.04627 0.26949,-0.29327 0.59447,-0.52314 0.97494,-0.6896 0.38046,-0.16644 0.80848,-0.24967 1.28407,-0.24968 0.58654,1e-5 1.14138,0.10702 1.66453,0.32102 l -0.30913,1.17706 c -0.16646,-0.0713 -0.35669,-0.13078 -0.5707,-0.17834 -0.20609,-0.0476 -0.42802,-0.0713 -0.66581,-0.0713 -0.56277,10e-6 -0.9908,0.17835 -1.28407,0.53503 -0.29327,0.34876 -0.43991,0.84416 -0.43991,1.48619 0,0.61826 0.13871,1.10969 0.41613,1.4743 0.27742,0.35669 0.74508,0.53503 1.40297,0.53503 0.24571,0 0.48746,-0.0238 0.72526,-0.0713 0.23778,-0.0476 0.44387,-0.107 0.61825,-0.17834 l 0.20212,1.18895 c -0.15853,0.0793 -0.40028,0.1506 -0.72526,0.21401 -0.31706,0.0634 -0.646,0.0951 -0.98683,0.0951 -0.53107,0 -0.99476,-0.0793 -1.39107,-0.23779 -0.38839,-0.16646 -0.71337,-0.39236 -0.97494,-0.67771 -0.25364,-0.29327 -0.44388,-0.63806 -0.5707,-1.03438 -0.12682,-0.40424 -0.19023,-0.84019 -0.19023,-1.30785"
         style="font-size:11.88951588px;font-variant:normal;font-weight:500;font-stretch:normal;fill:#1c1c1c;font-family:Ubuntu;-inkscape-font-specification:Ubuntu Medium"
         id="path4084"
         inkscape:connector-curvature="0" />
      <path
         d="m 201.26244,319.89712 c -0.1189,-0.0396 -0.28536,-0.0792 -0.49936,-0.11889 -0.20609,-0.0476 -0.44785,-0.0713 -0.72526,-0.0713 -0.15853,10e-6 -0.32895,0.0159 -0.51125,0.0476 -0.17439,0.0317 -0.29724,0.0594 -0.36858,0.0832 l 0,4.9817 -1.43863,0 0,-5.92098 c 0.27742,-0.10303 0.62222,-0.19815 1.03439,-0.28534 0.42009,-0.0951 0.88378,-0.14267 1.39107,-0.14268 0.0951,10e-6 0.20608,0.008 0.33291,0.0238 0.12682,0.008 0.25364,0.0238 0.38046,0.0476 0.12682,0.0159 0.24968,0.0396 0.36858,0.0713 0.11889,0.0238 0.214,0.0476 0.28535,0.0713 l -0.24968,1.21273"
         style="font-size:11.88951588px;font-variant:normal;font-weight:500;font-stretch:normal;fill:#1c1c1c;font-family:Ubuntu;-inkscape-font-specification:Ubuntu Medium"
         id="path4086"
         inkscape:connector-curvature="0" />
      <path
         d="m 204.6907,323.80878 c 0.44388,0 0.78074,-0.0238 1.01061,-0.0713 l 0,-1.5932 c -0.0793,-0.0238 -0.1942,-0.0476 -0.34479,-0.0713 -0.15061,-0.0238 -0.31706,-0.0357 -0.49936,-0.0357 -0.15853,0 -0.32102,0.0119 -0.48747,0.0357 -0.15853,0.0238 -0.30517,0.0674 -0.43992,0.13078 -0.12682,0.0634 -0.22986,0.15457 -0.30912,0.27346 -0.0793,0.11097 -0.1189,0.25364 -0.1189,0.42802 0,0.34084 0.10701,0.57863 0.32102,0.71337 0.21401,0.12683 0.50332,0.19024 0.86793,0.19024 m -0.11889,-5.36218 c 0.47558,1e-5 0.87586,0.0595 1.20084,0.17835 0.32497,0.1189 0.58258,0.28535 0.77282,0.49936 0.19815,0.21401 0.33686,0.47558 0.41613,0.7847 0.0872,0.30121 0.13078,0.63412 0.13079,0.99872 l 0,3.76898 c -0.22195,0.0476 -0.55882,0.10304 -1.01061,0.16645 -0.44388,0.0713 -0.9472,0.10701 -1.50997,0.10701 -0.37254,0 -0.71337,-0.0357 -1.0225,-0.10701 -0.30913,-0.0713 -0.57466,-0.18627 -0.7966,-0.34479 -0.21401,-0.15853 -0.38443,-0.36461 -0.51125,-0.61826 -0.11889,-0.25364 -0.17834,-0.56673 -0.17834,-0.93927 0,-0.35668 0.0674,-0.65788 0.20212,-0.9036 0.14268,-0.24572 0.33291,-0.44387 0.5707,-0.59448 0.23779,-0.15852 0.51125,-0.26949 0.82038,-0.33291 0.31705,-0.0713 0.64599,-0.107 0.98683,-0.107 0.15852,0 0.32497,0.0119 0.49936,0.0357 0.17437,0.0159 0.36064,0.0476 0.5588,0.0951 l 0,-0.23779 c 0,-0.16645 -0.0198,-0.32497 -0.0594,-0.47558 -0.0396,-0.15059 -0.11097,-0.28138 -0.21401,-0.39235 -0.0951,-0.11889 -0.2259,-0.21004 -0.39235,-0.27346 -0.15853,-0.0634 -0.36065,-0.0951 -0.60637,-0.0951 -0.3329,10e-6 -0.63807,0.0238 -0.91549,0.0713 -0.27742,0.0476 -0.50332,0.10305 -0.6777,0.16645 l -0.17834,-1.16517 c 0.1823,-0.0634 0.44783,-0.12681 0.79659,-0.19023 0.34876,-0.0634 0.7213,-0.0951 1.11762,-0.0951"
         style="font-size:11.88951588px;font-variant:normal;font-weight:500;font-stretch:normal;fill:#1c1c1c;font-family:Ubuntu;-inkscape-font-specification:Ubuntu Medium"
         id="path4088"
         inkscape:connector-curvature="0" />
      <path
         d="m 208.84256,318.80329 c 0.27742,-0.0793 0.63807,-0.15456 1.08195,-0.2259 0.44387,-0.0713 0.9353,-0.107 1.4743,-0.10701 0.50728,1e-5 0.93134,0.0713 1.27217,0.21401 0.34083,0.13476 0.61033,0.32895 0.80849,0.58259 0.20608,0.24572 0.34875,0.54692 0.42802,0.9036 0.0872,0.34877 0.13078,0.73319 0.13079,1.15329 l 0,3.49551 -1.43863,0 0,-3.26961 c -1e-5,-0.33291 -0.0238,-0.61429 -0.0713,-0.84416 -0.0396,-0.23778 -0.11097,-0.42802 -0.21401,-0.5707 -0.0951,-0.15059 -0.22987,-0.2576 -0.40425,-0.32101 -0.16645,-0.0713 -0.37254,-0.107 -0.61825,-0.10701 -0.18231,1e-5 -0.37254,0.0119 -0.5707,0.0357 -0.19816,0.0238 -0.3448,0.0436 -0.43991,0.0594 l 0,5.01737 -1.43863,0 0,-6.01609"
         style="font-size:11.88951588px;font-variant:normal;font-weight:500;font-stretch:normal;fill:#1c1c1c;font-family:Ubuntu;-inkscape-font-specification:Ubuntu Medium"
         id="path4090"
         inkscape:connector-curvature="0" />
    </g>
    <path
       sodipodi:type="arc"
       style="fill:#eeeeec;fill-opacity:1;stroke:none"
       id="path3902"
       sodipodi:cx="57.673397"
       sodipodi:cy="46.272289"
       sodipodi:rx="0.72604716"
       sodipodi:ry="0.75761437"
       d="m 58.399444,46.272289 c 0,0.418419 -0.325062,0.757615 -0.726047,0.757615 -0.400985,0 -0.726047,-0.339196 -0.726047,-0.757615 0,-0.418419 0.325062,-0.757614 0.726047,-0.757614 0.400985,0 0.726047,0.339195 0.726047,0.757614 z"
       transform="matrix(-2.0659815,0,0,1.9798991,302.48772,132.55102)" />
    <path
       transform="matrix(-2.0659815,0,0,1.9798991,308.68772,132.55102)"
       d="m 58.399444,46.272289 c 0,0.418419 -0.325062,0.757615 -0.726047,0.757615 -0.400985,0 -0.726047,-0.339196 -0.726047,-0.757615 0,-0.418419 0.325062,-0.757614 0.726047,-0.757614 0.400985,0 0.726047,0.339195 0.726047,0.757614 z"
       sodipodi:ry="0.75761437"
       sodipodi:rx="0.72604716"
       sodipodi:cy="46.272289"
       sodipodi:cx="57.673397"
       id="path3904"
       style="fill:#eeeeec;fill-opacity:1;stroke:none"
       sodipodi:type="arc" />
    <path
       sodipodi:type="arc"
       style="fill:#eeeeec;fill-opacity:1;stroke:none"
       id="path3906"
       sodipodi:cx="57.673397"
       sodipodi:cy="46.272289"
       sodipodi:rx="0.72604716"
       sodipodi:ry="0.75761437"
       d="m 58.399444,46.272289 c 0,0.418419 -0.325062,0.757615 -0.726047,0.757615 -0.400985,0 -0.726047,-0.339196 -0.726047,-0.757615 0,-0.418419 0.325062,-0.757614 0.726047,-0.757614 0.400985,0 0.726047,0.339195 0.726047,0.757614 z"
       transform="matrix(-2.0659815,0,0,1.9798991,314.88772,132.55102)" />
    <path
       inkscape:connector-curvature="0"
       id="path8390"
       d="m 170.88398,223.36631 0,-33.26233 -23.77894,0"
       style="fill:none;stroke:#ef2929;stroke-width:1.98199999;stroke-linecap:round;stroke-linejoin:round;stroke-miterlimit:4;stroke-opacity:1;stroke-dasharray:none"
       sodipodi:nodetypes="ccc" />
    <path
       sodipodi:nodetypes="ccc"
       style="fill:none;stroke:#3465a4;stroke-width:1.98158598px;stroke-linecap:round;stroke-linejoin:round;stroke-opacity:1"
       d="m 195.88996,230.40803 0,33.26232 26.7277,0"
       id="path3065"
       inkscape:connector-curvature="0" />
    <g
       transform="matrix(5.9449153,0,0,5.9449153,-26.251412,143.63117)"
       style="font-size:2px;font-style:normal;font-variant:normal;font-weight:normal;font-stretch:normal;line-height:125%;letter-spacing:0px;word-spacing:0px;fill:#ef2929;fill-opacity:1;stroke:none;font-family:Ubuntu;-inkscape-font-specification:Ubuntu"
       id="flowRoot3067">
      <path
         d="m 22.05425,7.4571003 c 0.201333,0.008 0.348666,0.052001 0.442,0.132 0.09467,0.080001 0.141999,0.1886672 0.142,0.326 -1e-6,0.061334 -0.01067,0.1180003 -0.032,0.17 -0.02,0.052 -0.05133,0.096667 -0.094,0.134 -0.04133,0.037333 -0.094,0.066667 -0.158,0.088 -0.064,0.021333 -0.140001,0.032 -0.228,0.032 -0.03467,0 -0.07,-0.00267 -0.106,-0.008 -0.036,-0.00533 -0.06933,-0.012 -0.1,-0.02 -0.03067,-0.008 -0.058,-0.016 -0.082,-0.024 -0.024,-0.008 -0.04133,-0.014667 -0.052,-0.02 l 0.036,-0.162 c 0.02267,0.010667 0.05933,0.024667 0.11,0.042 0.052,0.017333 0.115333,0.026 0.19,0.026 0.06,10e-8 0.109999,-0.00667 0.15,-0.02 0.04133,-0.013333 0.07467,-0.031333 0.1,-0.054 0.02533,-0.022666 0.04333,-0.048666 0.054,-0.078 0.012,-0.030666 0.018,-0.062666 0.018,-0.096 -1e-6,-0.050666 -0.0087,-0.095333 -0.026,-0.134 -0.01733,-0.039999 -0.048,-0.073333 -0.092,-0.1 -0.044,-0.026666 -0.102667,-0.046666 -0.176,-0.06 -0.07333,-0.014666 -0.166,-0.021999 -0.278,-0.022 0.008,-0.065333 0.014,-0.1266658 0.018,-0.184 0.0053,-0.057332 0.01,-0.1133323 0.014,-0.168 0.004,-0.054666 0.0073,-0.1086655 0.01,-0.162 0.0027,-0.054665 0.0053,-0.1119987 0.008,-0.172 l 0.668,0 0,0.158 -0.506,0 c -0.0013,0.020001 -0.0033,0.047334 -0.006,0.082 -0.0027,0.033334 -0.0053,0.068668 -0.008,0.106 -0.0027,0.036001 -0.0053,0.071334 -0.008,0.106 -0.0027,0.034668 -0.0053,0.062001 -0.008,0.082"
         style=""
         id="path3922" />
      <path
         d="m 24.077156,6.9231003 c -0.05067,0.1466679 -0.09933,0.2826678 -0.146,0.408 -0.04533,0.1240009 -0.09,0.2420007 -0.134,0.354 -0.044,0.1120005 -0.088,0.2193337 -0.132,0.322 -0.04267,0.1013335 -0.08667,0.2020001 -0.132,0.302 l -0.182,0 c -0.04533,-0.1 -0.09,-0.2006665 -0.134,-0.302 -0.04267,-0.1026663 -0.08667,-0.2099995 -0.132,-0.322 -0.044,-0.1119993 -0.08933,-0.2299991 -0.136,-0.354 -0.04667,-0.1253322 -0.09467,-0.2613321 -0.144,-0.408 l 0.214,0 c 0.072,0.2106678 0.142667,0.4133343 0.212,0.608 0.06933,0.1946673 0.140666,0.3773337 0.214,0.548 0.07333,-0.1693329 0.144666,-0.3513327 0.214,-0.546 0.06933,-0.195999 0.139333,-0.3993322 0.21,-0.61 l 0.208,0"
         style=""
         id="path3924" />
      <path
         d="m 24.106844,8.6791003 -0.19,0 0.678,-1.936 0.186,0 -0.674,1.936"
         style=""
         id="path3926" />
      <path
         d="m 24.920375,7.2091003 c 0.076,-0.029332 0.15,-0.066666 0.222,-0.112 0.072,-0.046665 0.137999,-0.1046653 0.198,-0.174 l 0.132,0 0,1.386 -0.186,0 0,-1.128 c -0.016,0.014668 -0.036,0.030001 -0.06,0.046 -0.02267,0.016001 -0.048,0.031334 -0.076,0.046 -0.02667,0.014668 -0.05533,0.028668 -0.086,0.042 -0.02933,0.013334 -0.058,0.024668 -0.086,0.034 l -0.058,-0.14"
         style=""
         id="path3928" />
      <path
         d="m 26.797281,7.2771003 c -1e-6,0.048001 -0.01,0.094668 -0.03,0.14 -0.01867,0.044001 -0.044,0.088001 -0.076,0.132 -0.032,0.042667 -0.068,0.085334 -0.108,0.128 -0.04,0.041334 -0.08,0.082001 -0.12,0.122 -0.02267,0.022667 -0.04933,0.049334 -0.08,0.08 -0.02933,0.030667 -0.05733,0.062667 -0.084,0.096 -0.02667,0.033334 -0.04933,0.065334 -0.068,0.096 -0.01733,0.030667 -0.026,0.057334 -0.026,0.08 l 0.638,0 0,0.158 -0.84,0 c -0.0013,-0.008 -0.002,-0.016 -0.002,-0.024 0,-0.008 0,-0.015333 0,-0.022 0,-0.062667 0.01,-0.1206665 0.03,-0.174 0.02133,-0.054666 0.04867,-0.1059997 0.082,-0.154 0.03333,-0.048 0.07067,-0.093333 0.112,-0.136 0.04133,-0.042666 0.082,-0.083999 0.122,-0.124 0.03333,-0.031999 0.06467,-0.063333 0.094,-0.094 0.03067,-0.031999 0.05733,-0.063333 0.08,-0.094 0.024,-0.031999 0.04267,-0.064666 0.056,-0.098 0.01467,-0.033332 0.022,-0.068666 0.022,-0.106 0,-0.039999 -0.0067,-0.073999 -0.02,-0.102 -0.012,-0.027999 -0.02867,-0.051332 -0.05,-0.07 -0.02133,-0.018665 -0.04667,-0.031999 -0.076,-0.04 -0.028,-0.00933 -0.058,-0.013999 -0.09,-0.014 -0.03867,1.3e-6 -0.074,0.00533 -0.106,0.016 -0.032,0.010668 -0.06067,0.023335 -0.086,0.038 -0.02533,0.013335 -0.04667,0.028001 -0.064,0.044 -0.01733,0.014668 -0.03067,0.026001 -0.04,0.034 l -0.092,-0.132 c 0.012,-0.013332 0.03,-0.029332 0.054,-0.048 0.024,-0.019999 0.05267,-0.038665 0.086,-0.056 0.03333,-0.017332 0.07067,-0.031999 0.112,-0.044 0.04133,-0.011999 0.086,-0.017999 0.134,-0.018 0.145333,1.4e-6 0.253999,0.034001 0.326,0.102 0.07333,0.066668 0.109999,0.1613345 0.11,0.284"
         style=""
         id="path3930" />
      <path
         d="m 28.284188,6.9231003 c -0.05067,0.1466679 -0.09933,0.2826678 -0.146001,0.408 -0.04533,0.1240009 -0.09,0.2420007 -0.134,0.354 -0.044,0.1120005 -0.088,0.2193337 -0.132,0.322 -0.04267,0.1013335 -0.08667,0.2020001 -0.132,0.302 l -0.182,0 c -0.04533,-0.1 -0.09,-0.2006665 -0.134,-0.302 -0.04267,-0.1026663 -0.08667,-0.2099995 -0.132,-0.322 -0.044,-0.1119993 -0.08933,-0.2299991 -0.135999,-0.354 -0.04667,-0.1253322 -0.09467,-0.2613321 -0.144001,-0.408 l 0.214001,0 c 0.072,0.2106678 0.142666,0.4133343 0.212,0.608 0.06933,0.1946673 0.140666,0.3773337 0.213999,0.548 0.07333,-0.1693329 0.144666,-0.3513327 0.214,-0.546 0.06933,-0.195999 0.139333,-0.3993322 0.21,-0.61 l 0.208001,0"
         style=""
         id="path3932" />
    </g>
    <g
       transform="matrix(5.9449153,0,0,5.9449153,-11.287131,218.15065)"
       style="font-size:2px;font-style:normal;font-variant:normal;font-weight:normal;font-stretch:normal;line-height:125%;letter-spacing:0px;word-spacing:0px;fill:#555753;fill-opacity:1;stroke:none;font-family:Ubuntu;-inkscape-font-specification:Ubuntu"
       id="flowRoot3075">
      <path
         d="m 22.67425,7.6271003 0.194,0 0,0.648 c -0.016,0.00533 -0.03934,0.011333 -0.07,0.018 -0.02933,0.00667 -0.064,0.013333 -0.104,0.02 -0.03867,0.00667 -0.08133,0.012 -0.128,0.016 -0.04667,0.00533 -0.094,0.008 -0.142,0.008 -0.09733,0 -0.186001,-0.016 -0.266,-0.048 -0.08,-0.032 -0.148667,-0.078667 -0.206,-0.14 -0.05733,-0.061333 -0.102,-0.1366664 -0.134,-0.226 -0.03067,-0.089333 -0.046,-0.1919994 -0.046,-0.308 0,-0.1159992 0.01733,-0.2186657 0.052,-0.308 0.036,-0.090666 0.084,-0.1666655 0.144,-0.228 0.06,-0.061332 0.13,-0.1079987 0.21,-0.14 0.08133,-0.031999 0.167999,-0.047999 0.26,-0.048 0.06267,1.4e-6 0.117999,0.004 0.166,0.012 0.04933,0.008 0.09133,0.017335 0.126,0.028 0.03467,0.010668 0.06267,0.021335 0.084,0.032 0.02266,0.010668 0.038,0.018668 0.046,0.024 l -0.062,0.162 c -0.03867,-0.025332 -0.09,-0.045999 -0.154,-0.062 -0.064,-0.017332 -0.129334,-0.025999 -0.196,-0.026 -0.07067,1.3e-6 -0.135334,0.012668 -0.194,0.038 -0.05733,0.025335 -0.106667,0.062001 -0.148,0.11 -0.04,0.048001 -0.07133,0.1066677 -0.094,0.176 -0.02267,0.068001 -0.034,0.1446675 -0.034,0.23 0,0.082667 0.0093,0.1580005 0.028,0.226 0.02,0.068 0.04933,0.126667 0.088,0.176 0.04,0.048 0.08867,0.085334 0.146,0.112 0.05867,0.026667 0.127333,0.04 0.206,0.04 0.056,10e-8 0.103332,-0.00267 0.142,-0.008 0.04,-0.00667 0.06867,-0.012666 0.086,-0.018 l 0,-0.516"
         style=""
         id="path3915" />
      <path
         d="m 24.122,8.3091003 c -0.02933,-0.049333 -0.06333,-0.1046666 -0.102,-0.166 -0.03733,-0.061333 -0.078,-0.1246664 -0.122,-0.19 -0.044,-0.066666 -0.09,-0.1339995 -0.138,-0.202 -0.04667,-0.067999 -0.09333,-0.1333326 -0.14,-0.196 -0.04667,-0.063999 -0.092,-0.1239991 -0.136,-0.18 -0.044,-0.055999 -0.08467,-0.1053323 -0.122,-0.148 l 0,1.082 -0.19,0 0,-1.386 0.154,0 c 0.06267,0.066668 0.129333,0.1446679 0.2,0.234 0.072,0.088001 0.142666,0.1793343 0.212,0.274 0.07067,0.093334 0.136666,0.185334 0.198,0.276 0.06267,0.090667 0.115332,0.1713338 0.158,0.242 l 0,-1.026 0.19,0 0,1.386 -0.162,0"
         style=""
         id="path3917" />
      <path
         d="m 25.767031,7.6151003 c -1e-6,0.1200006 -0.01867,0.2246671 -0.056,0.314 -0.03733,0.088 -0.09,0.1613336 -0.158,0.22 -0.068,0.057333 -0.149334,0.1006667 -0.244,0.13 -0.09467,0.028 -0.198667,0.042 -0.312,0.042 -0.056,0 -0.118,-0.00267 -0.186,-0.008 -0.06667,-0.004 -0.127333,-0.012667 -0.182,-0.026 l 0,-1.344 c 0.05467,-0.013332 0.115333,-0.021999 0.182,-0.026 0.068,-0.00533 0.13,-0.008 0.186,-0.008 0.113333,1.4e-6 0.217333,0.014668 0.312,0.044 0.09467,0.028001 0.175999,0.071335 0.244,0.13 0.068,0.057335 0.120666,0.1306678 0.158,0.22 0.03733,0.088001 0.056,0.1920008 0.056,0.312 m -0.754,0.536 c 0.184,2e-7 0.321333,-0.046666 0.412,-0.14 0.09067,-0.094666 0.135999,-0.2266661 0.136,-0.396 -1e-6,-0.1693325 -0.04533,-0.3006657 -0.136,-0.394 -0.09067,-0.094665 -0.228,-0.1419988 -0.412,-0.142 -0.05467,1.2e-6 -0.09733,6.679e-4 -0.128,0.002 -0.02933,0.00133 -0.05,0.00267 -0.062,0.004 l 0,1.06 c 0.012,0.00133 0.03267,0.00267 0.062,0.004 0.03067,0.00133 0.07333,0.002 0.128,0.002"
         style=""
         id="path3919" />
    </g>
    <g
       transform="matrix(5.9449153,0,0,5.9449153,97.098892,228.6543)"
       style="font-size:2px;font-style:normal;font-variant:normal;font-weight:normal;font-stretch:normal;line-height:125%;letter-spacing:0px;word-spacing:0px;fill:#73d216;fill-opacity:1;stroke:none;font-family:Ubuntu;-inkscape-font-specification:Ubuntu"
       id="flowRoot3083">
      <path
         d="m 22.05425,7.4571003 c 0.201333,0.008 0.348666,0.052001 0.442,0.132 0.09467,0.080001 0.141999,0.1886672 0.142,0.326 -1e-6,0.061334 -0.01067,0.1180003 -0.032,0.17 -0.02,0.052 -0.05133,0.096667 -0.094,0.134 -0.04133,0.037333 -0.094,0.066667 -0.158,0.088 -0.064,0.021333 -0.140001,0.032 -0.228,0.032 -0.03467,0 -0.07,-0.00267 -0.106,-0.008 -0.036,-0.00533 -0.06933,-0.012 -0.1,-0.02 -0.03067,-0.008 -0.058,-0.016 -0.082,-0.024 -0.024,-0.008 -0.04133,-0.014667 -0.052,-0.02 l 0.036,-0.162 c 0.02267,0.010667 0.05933,0.024667 0.11,0.042 0.052,0.017333 0.115333,0.026 0.19,0.026 0.06,10e-8 0.109999,-0.00667 0.15,-0.02 0.04133,-0.013333 0.07467,-0.031333 0.1,-0.054 0.02533,-0.022666 0.04333,-0.048666 0.054,-0.078 0.012,-0.030666 0.018,-0.062666 0.018,-0.096 -1e-6,-0.050666 -0.0087,-0.095333 -0.026,-0.134 -0.01733,-0.039999 -0.048,-0.073333 -0.092,-0.1 -0.044,-0.026666 -0.102667,-0.046666 -0.176,-0.06 -0.07333,-0.014666 -0.166,-0.021999 -0.278,-0.022 0.008,-0.065333 0.014,-0.1266658 0.018,-0.184 0.0053,-0.057332 0.01,-0.1133323 0.014,-0.168 0.004,-0.054666 0.0073,-0.1086655 0.01,-0.162 0.0027,-0.054665 0.0053,-0.1119987 0.008,-0.172 l 0.668,0 0,0.158 -0.506,0 c -0.0013,0.020001 -0.0033,0.047334 -0.006,0.082 -0.0027,0.033334 -0.0053,0.068668 -0.008,0.106 -0.0027,0.036001 -0.0053,0.071334 -0.008,0.106 -0.0027,0.034668 -0.0053,0.062001 -0.008,0.082"
         style=""
         id="path3951" />
      <path
         d="m 24.014094,8.3391003 c -0.09733,0 -0.186001,-0.016 -0.266,-0.048 -0.08,-0.032 -0.148667,-0.078667 -0.206,-0.14 -0.05733,-0.061333 -0.102,-0.1366664 -0.134,-0.226 -0.03067,-0.090666 -0.046,-0.1939994 -0.046,-0.31 0,-0.1159992 0.01733,-0.2186657 0.052,-0.308 0.036,-0.090666 0.084,-0.1666655 0.144,-0.228 0.06,-0.061332 0.129999,-0.1079987 0.21,-0.14 0.08,-0.031999 0.165332,-0.047999 0.256,-0.048 0.05733,1.4e-6 0.108666,0.004 0.154,0.012 0.04666,0.008 0.08666,0.017335 0.12,0.028 0.03467,0.010668 0.06267,0.021335 0.084,0.032 0.02133,0.010668 0.036,0.018668 0.044,0.024 l -0.056,0.16 c -0.012,-0.008 -0.02934,-0.016666 -0.052,-0.026 -0.02267,-0.00933 -0.04867,-0.018666 -0.078,-0.028 -0.028,-0.00933 -0.05934,-0.016665 -0.094,-0.022 -0.03333,-0.00667 -0.06733,-0.01 -0.102,-0.01 -0.07333,1.3e-6 -0.139334,0.012668 -0.198,0.038 -0.05867,0.025335 -0.108667,0.062001 -0.15,0.11 -0.04133,0.048001 -0.07333,0.1066677 -0.096,0.176 -0.02133,0.068001 -0.032,0.1446675 -0.032,0.23 -10e-7,0.082667 0.0093,0.1580005 0.028,0.226 0.02,0.068 0.04933,0.126667 0.088,0.176 0.03867,0.048 0.08667,0.085334 0.144,0.112 0.05867,0.026667 0.126666,0.04 0.204,0.04 0.08933,10e-8 0.163332,-0.00933 0.222,-0.028 0.05867,-0.018667 0.102665,-0.035333 0.132,-0.05 l 0.05,0.16 c -0.0093,0.00667 -0.026,0.015333 -0.05,0.026 -0.024,0.00933 -0.054,0.018667 -0.09,0.028 -0.036,0.00933 -0.078,0.017333 -0.126,0.024 -0.048,0.00667 -0.100001,0.01 -0.156,0.01"
         style=""
         id="path3953" />
      <path
         d="m 24.997906,8.1711003 c 0.202666,10e-8 0.303999,-0.069333 0.304,-0.208 -10e-7,-0.042666 -0.0093,-0.078666 -0.028,-0.108 -0.01733,-0.030666 -0.04133,-0.056666 -0.072,-0.078 -0.03067,-0.022666 -0.066,-0.041999 -0.106,-0.058 -0.03867,-0.015999 -0.08,-0.031999 -0.124,-0.048 -0.05067,-0.017333 -0.09867,-0.036666 -0.144,-0.058 -0.04533,-0.022666 -0.08467,-0.048666 -0.118,-0.078 -0.03333,-0.030666 -0.06,-0.066666 -0.08,-0.108 -0.01867,-0.041332 -0.028,-0.091332 -0.028,-0.15 0,-0.1213322 0.04133,-0.2159987 0.124,-0.284 0.08267,-0.067999 0.196666,-0.1019986 0.342,-0.102 0.084,1.4e-6 0.16,0.00933 0.228,0.028 0.06933,0.017335 0.119999,0.036668 0.152,0.058 l -0.062,0.158 c -0.028,-0.017332 -0.07,-0.033999 -0.126,-0.05 -0.05467,-0.017332 -0.118667,-0.025999 -0.192,-0.026 -0.03733,1.3e-6 -0.072,0.004 -0.104,0.012 -0.032,0.008 -0.06,0.020001 -0.084,0.036 -0.024,0.016001 -0.04333,0.036668 -0.058,0.062 -0.01333,0.024001 -0.02,0.052668 -0.02,0.086 0,0.037334 0.0073,0.068668 0.022,0.094 0.01467,0.025334 0.03533,0.048001 0.062,0.068 0.02667,0.018667 0.05733,0.036001 0.092,0.052 0.036,0.016001 0.07533,0.032001 0.118,0.048 0.06,0.024001 0.114666,0.048001 0.164,0.072 0.05067,0.024001 0.094,0.052667 0.13,0.086 0.03733,0.033334 0.066,0.073334 0.086,0.12 0.02,0.045334 0.03,0.1006671 0.03,0.166 -1e-6,0.1213336 -0.04467,0.2146668 -0.134,0.28 -0.088,0.065333 -0.212667,0.098 -0.374,0.098 -0.05467,0 -0.105333,-0.004 -0.152,-0.012 -0.04533,-0.00667 -0.086,-0.014667 -0.122,-0.024 -0.036,-0.010667 -0.06733,-0.021333 -0.094,-0.032 -0.02533,-0.012 -0.04533,-0.022 -0.06,-0.03 l 0.058,-0.16 c 0.03067,0.017334 0.07733,0.036667 0.14,0.058 0.06267,0.021333 0.139333,0.032 0.23,0.032"
         style=""
         id="path3955" />
    </g>
    <g
       transform="matrix(5.9449153,0,0,5.9449153,97.158341,217.26143)"
       style="font-size:2px;font-style:normal;font-variant:normal;font-weight:normal;font-stretch:normal;line-height:125%;letter-spacing:0px;word-spacing:0px;fill:#3465a4;fill-opacity:1;stroke:none;font-family:Ubuntu;-inkscape-font-specification:Ubuntu"
       id="flowRoot3099">
      <path
         d="m 21.98225,8.3091003 c 0.008,-0.1066666 0.02667,-0.2186664 0.056,-0.336 0.03067,-0.1186662 0.068,-0.2333328 0.112,-0.344 0.044,-0.1119992 0.092,-0.2153324 0.144,-0.31 0.05333,-0.095999 0.105333,-0.1739988 0.156,-0.234 l -0.674,0 0,-0.162 0.882,0 0,0.154 c -0.044,0.050668 -0.09267,0.1206678 -0.146,0.21 -0.05333,0.088001 -0.104001,0.1873342 -0.152,0.298 -0.04667,0.109334 -0.08733,0.2266672 -0.122,0.352 -0.03333,0.1240003 -0.054,0.2480001 -0.062,0.372 l -0.194,0"
         style=""
         id="path3958" />
      <path
         d="m 24.556094,7.6151003 c -2e-6,0.1200006 -0.01867,0.2246671 -0.056,0.314 -0.03734,0.088 -0.09,0.1613336 -0.158,0.22 -0.068,0.057333 -0.149335,0.1006667 -0.244,0.13 -0.09467,0.028 -0.198668,0.042 -0.312,0.042 -0.056,0 -0.118001,-0.00267 -0.186,-0.008 -0.06667,-0.004 -0.127334,-0.012667 -0.182,-0.026 l 0,-1.344 c 0.05467,-0.013332 0.115333,-0.021999 0.182,-0.026 0.068,-0.00533 0.129999,-0.008 0.186,-0.008 0.113332,1.4e-6 0.217332,0.014668 0.312,0.044 0.09466,0.028001 0.175999,0.071335 0.244,0.13 0.068,0.057335 0.120665,0.1306678 0.158,0.22 0.03733,0.088001 0.056,0.1920008 0.056,0.312 m -0.754,0.536 c 0.183999,2e-7 0.321332,-0.046666 0.412,-0.14 0.09067,-0.094666 0.135999,-0.2266661 0.136,-0.396 -10e-7,-0.1693325 -0.04533,-0.3006657 -0.136,-0.394 -0.09067,-0.094665 -0.228001,-0.1419988 -0.412,-0.142 -0.05467,1.2e-6 -0.09733,6.679e-4 -0.128,0.002 -0.02933,0.00133 -0.05,0.00267 -0.062,0.004 l 0,1.06 c 0.012,0.00133 0.03267,0.00267 0.062,0.004 0.03067,0.00133 0.07333,0.002 0.128,0.002"
         style=""
         id="path3960" />
      <path
         d="m 25.730812,8.3091003 c -0.02267,-0.06 -0.044,-0.1186665 -0.064,-0.176 -0.02,-0.058666 -0.04067,-0.1179997 -0.062,-0.178 l -0.628001,0 -0.126,0.354 -0.202,0 c 0.05333,-0.1466665 0.103334,-0.2819997 0.15,-0.406 0.04667,-0.1253328 0.092,-0.2439993 0.136,-0.356 0.04533,-0.1119991 0.09,-0.2186657 0.134,-0.32 0.044,-0.1026655 0.09,-0.2039987 0.138001,-0.304 l 0.177999,0 c 0.048,0.1000013 0.094,0.2013345 0.138,0.304 0.044,0.1013343 0.088,0.2080009 0.132,0.32 0.04533,0.1120007 0.09133,0.2306672 0.138,0.356 0.04667,0.1240003 0.09667,0.2593335 0.15,0.406 l -0.212,0 m -0.182,-0.514 c -0.04267,-0.1159994 -0.08533,-0.2279993 -0.128,-0.336 -0.04133,-0.1093324 -0.08467,-0.2139989 -0.13,-0.314 -0.04667,0.1000011 -0.09133,0.2046676 -0.134,0.314 -0.04133,0.1080007 -0.08267,0.2200006 -0.124,0.336 l 0.516,0"
         style=""
         id="path3962" />
      <path
         d="m 26.926125,6.9231003 0,0.168 -0.436,0 0,1.218 -0.194,0 0,-1.218 -0.436,0 0,-0.168 1.066,0"
         style=""
         id="path3964" />
      <path
         d="m 27.926125,8.3091003 c -0.02267,-0.06 -0.044,-0.1186665 -0.064,-0.176 -0.02,-0.058666 -0.04067,-0.1179997 -0.062,-0.178 l -0.628,0 -0.126,0.354 -0.202,0 c 0.05333,-0.1466665 0.103333,-0.2819997 0.15,-0.406 0.04667,-0.1253328 0.092,-0.2439993 0.136,-0.356 0.04533,-0.1119991 0.09,-0.2186657 0.134,-0.32 0.044,-0.1026655 0.09,-0.2039987 0.138,-0.304 l 0.178,0 c 0.048,0.1000013 0.094,0.2013345 0.138,0.304 0.044,0.1013343 0.088,0.2080009 0.132,0.32 0.04533,0.1120007 0.09133,0.2306672 0.138,0.356 0.04667,0.1240003 0.09667,0.2593335 0.15,0.406 l -0.212,0 m -0.182,-0.514 c -0.04267,-0.1159994 -0.08533,-0.2279993 -0.128,-0.336 -0.04133,-0.1093324 -0.08467,-0.2139989 -0.13,-0.314 -0.04667,0.1000011 -0.09133,0.2046676 -0.134,0.314 -0.04133,0.1080007 -0.08267,0.2200006 -0.124,0.336 l 0.516,0"
         style=""
         id="path3966" />
    </g>
    <path
       sodipodi:nodetypes="ccc"
       style="fill:none;stroke:#f57900;stroke-width:1.98158598px;stroke-linecap:round;stroke-linejoin:round;stroke-opacity:1"
       d="m 189.5567,223.60497 0,-44.44414 33.06096,0"
       id="path3107"
       inkscape:connector-curvature="0" />
    <path
       inkscape:connector-curvature="0"
       id="path3109"
       d="m 195.88996,223.36609 0,-33.26232 26.7277,0"
       style="fill:none;stroke:#fce94f;stroke-width:1.98158598px;stroke-linecap:round;stroke-linejoin:round;stroke-opacity:1"
       sodipodi:nodetypes="ccc" />
    <g
       transform="matrix(5.9449153,0,0,5.9449153,97.122672,144.86142)"
       style="font-size:2px;font-style:normal;font-variant:normal;font-weight:normal;font-stretch:normal;line-height:125%;letter-spacing:0px;word-spacing:0px;fill:#fce94f;fill-opacity:1;stroke:none;font-family:Ubuntu;-inkscape-font-specification:Ubuntu"
       id="flowRoot3111">
      <path
         d="m 21.78225,7.7531003 c 0,-0.134666 0.01867,-0.2533325 0.056,-0.356 0.03733,-0.103999 0.09,-0.1913322 0.158,-0.262 0.06933,-0.070665 0.152666,-0.1239987 0.25,-0.16 0.09867,-0.037332 0.209333,-0.056665 0.332,-0.058 l 0.014,0.156 c -0.07867,0.00133 -0.150667,0.010001 -0.216,0.026 -0.064,0.016001 -0.121334,0.041335 -0.172,0.076 -0.05067,0.034668 -0.09333,0.080001 -0.128,0.136 -0.03467,0.054668 -0.06067,0.1226675 -0.078,0.204 0.03467,-0.015999 0.07333,-0.029333 0.116,-0.04 0.044,-0.010666 0.08933,-0.015999 0.136,-0.016 0.07867,9e-7 0.145333,0.012001 0.2,0.036 0.05467,0.024001 0.09933,0.056001 0.134,0.096 0.03467,0.038667 0.05933,0.084001 0.074,0.136 0.016,0.050667 0.024,0.1040005 0.024,0.16 -1e-6,0.050667 -0.0087,0.102667 -0.026,0.156 -0.01733,0.053334 -0.044,0.1020002 -0.08,0.146 -0.03467,0.044 -0.07933,0.08 -0.134,0.108 -0.05467,0.028 -0.119334,0.042 -0.194,0.042 -0.152,0 -0.268,-0.052 -0.348,-0.156 -0.07867,-0.1039998 -0.118,-0.247333 -0.118,-0.43 m 0.448,-0.142 c -0.04667,7e-7 -0.09,0.00467 -0.13,0.014 -0.04,0.008 -0.08,0.020667 -0.12,0.038 -0.0013,0.014667 -0.0027,0.030001 -0.004,0.046 0,0.014667 0,0.029334 0,0.044 0,0.058667 0.004,0.1140004 0.012,0.166 0.008,0.052 0.022,0.098 0.042,0.138 0.02133,0.038667 0.04933,0.07 0.084,0.094 0.03467,0.022667 0.07867,0.034 0.132,0.034 0.044,10e-8 0.08133,-0.00933 0.112,-0.028 0.03067,-0.018667 0.056,-0.042666 0.076,-0.072 0.02,-0.029333 0.034,-0.060666 0.042,-0.094 0.0093,-0.034666 0.014,-0.068 0.014,-0.1 -1e-6,-0.090666 -0.022,-0.1599994 -0.066,-0.208 -0.04267,-0.047999 -0.107334,-0.071999 -0.194,-0.072"
         style=""
         id="path3944" />
      <path
         d="m 24.176094,7.3691003 c -0.056,0.1786674 -0.112668,0.3440006 -0.17,0.496 -0.05733,0.1520003 -0.114668,0.3000001 -0.172,0.444 l -0.194,0 c -0.07067,-0.2039998 -0.133334,-0.4193329 -0.188,-0.646 -0.05333,-0.2266658 -0.103334,-0.4733322 -0.15,-0.74 l 0.204,0 c 0.01867,0.1040013 0.038,0.2080012 0.058,0.312 0.02,0.104001 0.04067,0.2053342 0.062,0.304 0.02133,0.097334 0.04267,0.1906673 0.064,0.28 0.02133,0.089334 0.04333,0.1720003 0.066,0.248 0.05333,-0.1399996 0.109999,-0.2933328 0.17,-0.46 0.06,-0.1679991 0.115999,-0.3413323 0.168,-0.52 l 0.168,0 c 0.052,0.1786677 0.108665,0.3520009 0.17,0.52 0.06133,0.1666672 0.118665,0.3200004 0.172,0.46 0.02133,-0.074666 0.04266,-0.1566663 0.064,-0.246 0.02133,-0.089333 0.042,-0.182666 0.062,-0.28 0.02133,-0.098666 0.042,-0.199999 0.062,-0.304 0.02,-0.1053322 0.03933,-0.2099987 0.058,-0.314 l 0.198,0 c -0.048,0.2666678 -0.09933,0.5133342 -0.154,0.74 -0.05334,0.2266671 -0.114668,0.4420002 -0.184,0.646 l -0.194,0 c -0.05867,-0.1439999 -0.116001,-0.2919997 -0.172,-0.444 -0.056,-0.1519994 -0.112001,-0.3173326 -0.168,-0.496"
         style=""
         id="path3946" />
      <path
         d="m 25.955469,7.7291003 c 0.02133,0.026667 0.048,0.062 0.08,0.106 0.03333,0.042667 0.06733,0.090667 0.102,0.144 0.03467,0.052 0.06866,0.1066669 0.102,0.164 0.03467,0.057333 0.064,0.1126667 0.088,0.166 l -0.212,0 c -0.02667,-0.050667 -0.056,-0.1019999 -0.088,-0.154 -0.03067,-0.052 -0.062,-0.1013331 -0.094,-0.148 -0.032,-0.048 -0.064,-0.092666 -0.096,-0.134 -0.03067,-0.041333 -0.05867,-0.077333 -0.084,-0.108 -0.01733,0.00133 -0.03533,0.002 -0.054,0.002 -0.01733,5e-7 -0.03533,5e-7 -0.054,0 l -0.174,0 0,0.542 -0.194,0 0,-1.366 c 0.05467,-0.013332 0.115333,-0.021999 0.182,-0.026 0.068,-0.00533 0.129999,-0.008 0.186,-0.008 0.194666,1.4e-6 0.342666,0.036668 0.444,0.11 0.102665,0.073335 0.153999,0.1826678 0.154,0.328 -1e-6,0.092001 -0.02467,0.1706675 -0.074,0.236 -0.048,0.065334 -0.119335,0.1140006 -0.214,0.146 m -0.294,-0.65 c -0.08267,1.2e-6 -0.146001,0.002 -0.19,0.006 l 0,0.522 0.138,0 c 0.06667,7e-7 0.126666,-0.00333 0.18,-0.01 0.05333,-0.00667 0.098,-0.019333 0.134,-0.038 0.03733,-0.018666 0.066,-0.044666 0.086,-0.078 0.02,-0.034666 0.03,-0.079999 0.03,-0.136 -1e-6,-0.051999 -0.01,-0.095332 -0.03,-0.13 -0.02,-0.034666 -0.04733,-0.061999 -0.082,-0.082 -0.03333,-0.019999 -0.07333,-0.033999 -0.12,-0.042 -0.04533,-0.008 -0.094,-0.011999 -0.146,-0.012"
         style=""
         id="path3948" />
    </g>
    <g
       transform="matrix(5.9449153,0,0,5.9449153,97.396138,133.46855)"
       style="font-size:2px;font-style:normal;font-variant:normal;font-weight:normal;font-stretch:normal;line-height:125%;letter-spacing:0px;word-spacing:0px;fill:#f57900;fill-opacity:1;stroke:none;font-family:Ubuntu;-inkscape-font-specification:Ubuntu"
       id="flowRoot3119">
      <path
         d="m 21.73625,7.8291003 c 0.02533,-0.058666 0.06,-0.1266661 0.104,-0.204 0.044,-0.078666 0.09333,-0.1593325 0.148,-0.242 0.056,-0.082666 0.115333,-0.1639989 0.178,-0.244 0.064,-0.079999 0.127999,-0.1519987 0.192,-0.216 l 0.178,0 0,0.88 0.164,0 0,0.152 -0.164,0 0,0.354 -0.18,0 0,-0.354 -0.62,0 0,-0.126 m 0.62,-0.686 c -0.04,0.042668 -0.08067,0.090668 -0.122,0.144 -0.04,0.052001 -0.07933,0.1066676 -0.118,0.164 -0.03867,0.057334 -0.07533,0.1160007 -0.11,0.176 -0.03333,0.060001 -0.06333,0.1186672 -0.09,0.176 l 0.44,0 0,-0.66"
         style=""
         id="path3935" />
      <path
         d="m 24.014094,8.3391003 c -0.09733,0 -0.186001,-0.016 -0.266,-0.048 -0.08,-0.032 -0.148667,-0.078667 -0.206,-0.14 -0.05733,-0.061333 -0.102,-0.1366664 -0.134,-0.226 -0.03067,-0.090666 -0.046,-0.1939994 -0.046,-0.31 0,-0.1159992 0.01733,-0.2186657 0.052,-0.308 0.036,-0.090666 0.084,-0.1666655 0.144,-0.228 0.06,-0.061332 0.129999,-0.1079987 0.21,-0.14 0.08,-0.031999 0.165332,-0.047999 0.256,-0.048 0.05733,1.4e-6 0.108666,0.004 0.154,0.012 0.04666,0.008 0.08666,0.017335 0.12,0.028 0.03467,0.010668 0.06267,0.021335 0.084,0.032 0.02133,0.010668 0.036,0.018668 0.044,0.024 l -0.056,0.16 c -0.012,-0.008 -0.02934,-0.016666 -0.052,-0.026 -0.02267,-0.00933 -0.04867,-0.018666 -0.078,-0.028 -0.028,-0.00933 -0.05934,-0.016665 -0.094,-0.022 -0.03333,-0.00667 -0.06733,-0.01 -0.102,-0.01 -0.07333,1.3e-6 -0.139334,0.012668 -0.198,0.038 -0.05867,0.025335 -0.108667,0.062001 -0.15,0.11 -0.04133,0.048001 -0.07333,0.1066677 -0.096,0.176 -0.02133,0.068001 -0.032,0.1446675 -0.032,0.23 -10e-7,0.082667 0.0093,0.1580005 0.028,0.226 0.02,0.068 0.04933,0.126667 0.088,0.176 0.03867,0.048 0.08667,0.085334 0.144,0.112 0.05867,0.026667 0.126666,0.04 0.204,0.04 0.08933,10e-8 0.163332,-0.00933 0.222,-0.028 0.05867,-0.018667 0.102665,-0.035333 0.132,-0.05 l 0.05,0.16 c -0.0093,0.00667 -0.026,0.015333 -0.05,0.026 -0.024,0.00933 -0.054,0.018667 -0.09,0.028 -0.036,0.00933 -0.078,0.017333 -0.126,0.024 -0.048,0.00667 -0.100001,0.01 -0.156,0.01"
         style=""
         id="path3937" />
      <path
         d="m 25.490375,8.1411003 0,0.168 -0.834,0 0,-1.386 0.194,0 0,1.218 0.64,0"
         style=""
         id="path3939" />
      <path
         d="m 26.721437,6.9231003 c -0.04133,0.045335 -0.088,0.096001 -0.14,0.152 -0.052,0.054668 -0.106667,0.1113345 -0.164,0.17 -0.056,0.057334 -0.112,0.114001 -0.168,0.17 -0.056,0.056001 -0.108667,0.1080008 -0.157999,0.156 0.05733,0.040001 0.117999,0.089334 0.181999,0.148 0.064,0.058667 0.126666,0.1213338 0.188,0.188 0.06133,0.066667 0.118666,0.1346669 0.172,0.204 0.05467,0.069333 0.1,0.1353334 0.136,0.198 l -0.228,0 c -0.04,-0.062667 -0.086,-0.1253332 -0.138,-0.188 -0.052,-0.064 -0.107334,-0.1246663 -0.166,-0.182 -0.05733,-0.058666 -0.116,-0.1126662 -0.176,-0.162 -0.05867,-0.049333 -0.116,-0.091333 -0.172,-0.126 l 0,0.658 -0.194,0 0,-1.386 0.194,0 0,0.612 c 0.04667,-0.043999 0.098,-0.093332 0.154,-0.148 0.056,-0.055999 0.111333,-0.111999 0.166,-0.168 0.05467,-0.055999 0.106,-0.1093321 0.154,-0.16 0.04933,-0.051999 0.09067,-0.097332 0.124,-0.136 l 0.234,0"
         style=""
         id="path3941" />
    </g>
  </g>
</svg>
