<?xml version="1.0" encoding="UTF-8" standalone="no"?>
<!-- Created with Inkscape (http://www.inkscape.org/) -->

<svg
   xmlns:dc="http://purl.org/dc/elements/1.1/"
   xmlns:cc="http://creativecommons.org/ns#"
   xmlns:rdf="http://www.w3.org/1999/02/22-rdf-syntax-ns#"
   xmlns:svg="http://www.w3.org/2000/svg"
   xmlns="http://www.w3.org/2000/svg"
   xmlns:sodipodi="http://sodipodi.sourceforge.net/DTD/sodipodi-0.dtd"
   xmlns:inkscape="http://www.inkscape.org/namespaces/inkscape"
   width="175.98289"
   height="155.65939"
   id="svg2"
   version="1.1"
   inkscape:version="0.48.4 r9939"
   sodipodi:docname="dotmatrix_connections.svg">
  <defs
     id="defs4" />
  <sodipodi:namedview
     id="base"
     pagecolor="#ffffff"
     bordercolor="#666666"
     borderopacity="1.0"
     inkscape:pageopacity="0.0"
     inkscape:pageshadow="2"
     inkscape:zoom="2.4235312"
     inkscape:cx="117.64607"
     inkscape:cy="18.955672"
     inkscape:document-units="px"
     inkscape:current-layer="layer1"
     showgrid="false"
     fit-margin-top="8"
     fit-margin-left="8"
     fit-margin-right="8"
     fit-margin-bottom="8"
     inkscape:window-width="1871"
     inkscape:window-height="1056"
     inkscape:window-x="49"
     inkscape:window-y="24"
     inkscape:window-maximized="1" />
  <metadata
     id="metadata7">
    <rdf:RDF>
      <cc:Work
         rdf:about="">
        <dc:format>image/svg+xml</dc:format>
        <dc:type
           rdf:resource="http://purl.org/dc/dcmitype/StillImage" />
        <dc:title />
      </cc:Work>
    </rdf:RDF>
  </metadata>
  <g
     inkscape:label="Calque 1"
     inkscape:groupmode="layer"
     id="layer1"
     transform="translate(-96.658409,-177.31455)">
    <rect
       style="fill:#1c1c1c;fill-opacity:1;stroke:#404040;stroke-width:1.98158598;stroke-linecap:round;stroke-linejoin:round;stroke-opacity:1"
       id="rect8356"
       width="53.918579"
       height="17.206196"
       x="-219.46721"
       y="218.3681"
       transform="scale(-1,1)" />
    <path
       transform="matrix(-2.0659815,0,0,1.9798991,290.08772,138.55102)"
       d="m 58.399444,46.272289 c 0,0.418419 -0.325062,0.757615 -0.726047,0.757615 -0.400985,0 -0.726047,-0.339196 -0.726047,-0.757615 0,-0.418419 0.325062,-0.757614 0.726047,-0.757614 0.400985,0 0.726047,0.339195 0.726047,0.757614 z"
       sodipodi:ry="0.75761437"
       sodipodi:rx="0.72604716"
       sodipodi:cy="46.272289"
       sodipodi:cx="57.673397"
       id="path3876"
       style="fill:#eeeeec;fill-opacity:1;stroke:none"
       sodipodi:type="arc" />
    <rect
       y="233.89323"
       x="-197.01956"
       height="1.6808528"
       width="9.0232725"
       id="rect8376"
       style="fill:#404040;fill-opacity:1;stroke:#1c1c1c;stroke-width:1.98199999;stroke-linecap:butt;stroke-linejoin:miter;stroke-miterlimit:4;stroke-opacity:1;stroke-dasharray:none"
       transform="scale(-1,1)"
       ry="0" />
    <path
       style="fill:none;stroke:#4e9a06;stroke-width:1.98158598px;stroke-linecap:round;stroke-linejoin:round;stroke-opacity:1"
       d="m 170.6795,230.44342 0,33.26233 -25.38907,0"
       id="path8378"
       inkscape:connector-curvature="0" />
    <path
       sodipodi:type="arc"
       style="fill:#eeeeec;fill-opacity:1;stroke:none"
       id="path3878"
       sodipodi:cx="57.673397"
       sodipodi:cy="46.272289"
       sodipodi:rx="0.72604716"
       sodipodi:ry="0.75761437"
       d="m 58.399444,46.272289 c 0,0.418419 -0.325062,0.757615 -0.726047,0.757615 -0.400985,0 -0.726047,-0.339196 -0.726047,-0.757615 0,-0.418419 0.325062,-0.757614 0.726047,-0.757614 0.400985,0 0.726047,0.339195 0.726047,0.757614 z"
       transform="matrix(-2.0659815,0,0,1.9798991,296.28772,138.55102)" />
    <g
       style="font-size:79.26344299px;font-style:normal;font-weight:normal;line-height:125%;letter-spacing:0px;word-spacing:0px;fill:#4e9a06;fill-opacity:1;stroke:none;font-family:Sans"
       id="text8380">
      <path
         d="m 121.95895,261.91386 c 1.19688,0.0476 2.07274,0.30913 2.62759,0.7847 0.56276,0.47559 0.84415,1.12159 0.84415,1.938 0,0.36461 -0.0634,0.70148 -0.19023,1.0106 -0.1189,0.30913 -0.30517,0.57467 -0.55881,0.7966 -0.24572,0.22194 -0.55881,0.39632 -0.93927,0.52314 -0.38047,0.12682 -0.83227,0.19023 -1.3554,0.19023 -0.20609,0 -0.41614,-0.0159 -0.63015,-0.0476 -0.21401,-0.0317 -0.41217,-0.0713 -0.59447,-0.11889 -0.18231,-0.0476 -0.3448,-0.0951 -0.48747,-0.14267 -0.14268,-0.0476 -0.24572,-0.0872 -0.30913,-0.1189 l 0.21401,-0.96305 c 0.13475,0.0634 0.35272,0.14664 0.65392,0.24968 0.30913,0.10304 0.68563,0.15456 1.12951,0.15456 0.35668,0 0.65392,-0.0396 0.89171,-0.11889 0.24571,-0.0793 0.44387,-0.18627 0.59448,-0.32102 0.15059,-0.13475 0.2576,-0.28931 0.32101,-0.46369 0.0713,-0.1823 0.10701,-0.37254 0.10701,-0.5707 0,-0.3012 -0.0515,-0.56673 -0.15456,-0.79659 -0.10305,-0.23779 -0.28536,-0.43595 -0.54692,-0.59448 -0.26157,-0.15852 -0.61033,-0.27742 -1.04628,-0.35669 -0.43595,-0.0872 -0.98683,-0.13078 -1.65264,-0.13078 0.0476,-0.38839 0.0832,-0.753 0.107,-1.09384 0.0317,-0.34082 0.0594,-0.67373 0.0832,-0.99872 0.0238,-0.32497 0.0436,-0.64599 0.0594,-0.96305 0.0159,-0.32497 0.0317,-0.6658 0.0476,-1.02249 l 3.9711,0 0,0.93927 -3.00805,0 c -0.008,0.1189 -0.0198,0.28139 -0.0357,0.48747 -0.0159,0.19816 -0.0317,0.40821 -0.0476,0.63014 -0.0159,0.21402 -0.0317,0.42407 -0.0476,0.63015 -0.0159,0.20609 -0.0317,0.36858 -0.0476,0.48747"
         style="font-size:11.88951588px;font-variant:normal;font-stretch:normal;fill:#4e9a06;font-family:Ubuntu;-inkscape-font-specification:Ubuntu"
         id="path4005" />
      <path
         d="m 133.60975,267.15713 c -0.57862,0 -1.10573,-0.0951 -1.5813,-0.28535 -0.47559,-0.19023 -0.88379,-0.46765 -1.22462,-0.83226 -0.34084,-0.36461 -0.60637,-0.81245 -0.7966,-1.34352 -0.18231,-0.53899 -0.27346,-1.15328 -0.27346,-1.84287 0,-0.68959 0.10304,-1.29992 0.30913,-1.83099 0.21401,-0.53898 0.49936,-0.99078 0.85604,-1.3554 0.35669,-0.36461 0.77282,-0.64203 1.2484,-0.83227 0.47558,-0.19022 0.98286,-0.28534 1.52186,-0.28535 0.34083,10e-6 0.64599,0.0238 0.91549,0.0713 0.27742,0.0476 0.51521,0.10305 0.71337,0.16645 0.20608,0.0634 0.37253,0.12683 0.49936,0.19024 0.12682,0.0634 0.21401,0.11097 0.26157,0.14267 l -0.3329,0.95116 c -0.0713,-0.0476 -0.17439,-0.0991 -0.30913,-0.15456 -0.13476,-0.0555 -0.28932,-0.11096 -0.46369,-0.16646 -0.16646,-0.0555 -0.35273,-0.0991 -0.55881,-0.13078 -0.19816,-0.0396 -0.40029,-0.0594 -0.60637,-0.0594 -0.43595,10e-6 -0.8283,0.0753 -1.17706,0.2259 -0.34876,0.15061 -0.646,0.36858 -0.89171,0.65393 -0.24572,0.28535 -0.43595,0.63411 -0.5707,1.04627 -0.12682,0.40425 -0.19023,0.86002 -0.19023,1.3673 0,0.49144 0.0555,0.93927 0.16645,1.34351 0.1189,0.40425 0.29328,0.75301 0.52314,1.04628 0.22986,0.28535 0.51521,0.50729 0.85605,0.66581 0.34875,0.15853 0.753,0.2378 1.21273,0.23779 0.53106,10e-6 0.97097,-0.0555 1.31973,-0.16645 0.34876,-0.11097 0.61033,-0.21005 0.78471,-0.29724 l 0.29724,0.95116 c -0.0555,0.0396 -0.15457,0.0912 -0.29724,0.15457 -0.14268,0.0555 -0.32102,0.11097 -0.53503,0.16645 -0.21401,0.0555 -0.46369,0.10304 -0.74904,0.14268 -0.28535,0.0396 -0.59448,0.0594 -0.92738,0.0594"
         style="font-size:11.88951588px;font-variant:normal;font-stretch:normal;fill:#4e9a06;font-family:Ubuntu;-inkscape-font-specification:Ubuntu"
         id="path4007" />
      <path
         d="m 139.45828,266.15841 c 1.2048,0 1.8072,-0.41216 1.80721,-1.23651 -1e-5,-0.25364 -0.0555,-0.46765 -0.16646,-0.64203 -0.10305,-0.1823 -0.24572,-0.33687 -0.42802,-0.46369 -0.18231,-0.13475 -0.39236,-0.24968 -0.63015,-0.3448 -0.22986,-0.0951 -0.47558,-0.19023 -0.73714,-0.28535 -0.30121,-0.10303 -0.58656,-0.21797 -0.85605,-0.34479 -0.2695,-0.13474 -0.50332,-0.28931 -0.70148,-0.46369 -0.19816,-0.1823 -0.35669,-0.39631 -0.47558,-0.64204 -0.11097,-0.24571 -0.16646,-0.54294 -0.16646,-0.89171 0,-0.72129 0.24572,-1.28406 0.73715,-1.68831 0.49144,-0.40424 1.16914,-0.60636 2.03311,-0.60637 0.49936,10e-6 0.95116,0.0555 1.35541,0.16646 0.41216,0.10305 0.71336,0.21798 0.9036,0.34479 l -0.36858,0.93927 c -0.16645,-0.10303 -0.41613,-0.20211 -0.74903,-0.29723 -0.32499,-0.10304 -0.70545,-0.15456 -1.1414,-0.15457 -0.22194,10e-6 -0.42802,0.0238 -0.61825,0.0713 -0.19024,0.0476 -0.35669,0.1189 -0.49936,0.21401 -0.14268,0.0951 -0.25761,0.21798 -0.3448,0.36858 -0.0793,0.14268 -0.1189,0.31309 -0.11889,0.51125 -1e-5,0.22194 0.0436,0.40821 0.13078,0.5588 0.0872,0.15061 0.21005,0.28536 0.36858,0.40425 0.15852,0.11097 0.34083,0.21401 0.54691,0.30912 0.21401,0.0951 0.44784,0.19024 0.70148,0.28535 0.35669,0.14268 0.68167,0.28535 0.97495,0.42802 0.30119,0.14268 0.5588,0.3131 0.77281,0.51125 0.22194,0.19817 0.39235,0.43596 0.51125,0.71337 0.11889,0.2695 0.17834,0.59845 0.17835,0.98683 -1e-5,0.7213 -0.26554,1.27615 -0.7966,1.66454 -0.52315,0.38839 -1.26426,0.58258 -2.22334,0.58258 -0.32498,0 -0.62618,-0.0238 -0.9036,-0.0713 -0.2695,-0.0396 -0.51126,-0.0872 -0.72526,-0.14268 -0.21402,-0.0634 -0.40029,-0.12682 -0.55881,-0.19023 -0.1506,-0.0713 -0.2695,-0.13078 -0.35669,-0.17834 l 0.3448,-0.95116 c 0.1823,0.10304 0.45973,0.21797 0.83226,0.34479 0.37254,0.12682 0.8283,0.19023 1.3673,0.19023"
         style="font-size:11.88951588px;font-variant:normal;font-stretch:normal;fill:#4e9a06;font-family:Ubuntu;-inkscape-font-specification:Ubuntu"
         id="path4009" />
    </g>
    <path
       transform="matrix(-2.0659815,0,0,1.9798991,302.48772,138.55102)"
       d="m 58.399444,46.272289 c 0,0.418419 -0.325062,0.757615 -0.726047,0.757615 -0.400985,0 -0.726047,-0.339196 -0.726047,-0.757615 0,-0.418419 0.325062,-0.757614 0.726047,-0.757614 0.400985,0 0.726047,0.339195 0.726047,0.757614 z"
       sodipodi:ry="0.75761437"
       sodipodi:rx="0.72604716"
       sodipodi:cy="46.272289"
       sodipodi:cx="57.673397"
       id="path3880"
       style="fill:#eeeeec;fill-opacity:1;stroke:none"
       sodipodi:type="arc" />
    <path
       sodipodi:type="arc"
       style="fill:#eeeeec;fill-opacity:1;stroke:none"
       id="path3882"
       sodipodi:cx="57.673397"
       sodipodi:cy="46.272289"
       sodipodi:rx="0.72604716"
       sodipodi:ry="0.75761437"
       d="m 58.399444,46.272289 c 0,0.418419 -0.325062,0.757615 -0.726047,0.757615 -0.400985,0 -0.726047,-0.339196 -0.726047,-0.757615 0,-0.418419 0.325062,-0.757614 0.726047,-0.757614 0.400985,0 0.726047,0.339195 0.726047,0.757614 z"
       transform="matrix(-2.0659815,0,0,1.9798991,308.68772,138.55102)" />
    <g
       style="font-size:79.26344299px;font-style:normal;font-weight:normal;line-height:125%;letter-spacing:0px;word-spacing:0px;fill:#ef2929;fill-opacity:1;stroke:none;font-family:Sans"
       id="text8392">
      <path
         d="m 242.10498,189.52344 2.24712,0 0,-2.44924 0.95116,0 0,2.44924 2.24712,0 0,0.93927 -2.24712,0 0,2.46113 -0.95116,0 0,-2.46113 -2.24712,0 0,-0.93927"
         style="font-size:11.88951588px;font-variant:normal;font-stretch:normal;fill:#ef2929;font-family:Ubuntu;-inkscape-font-specification:Ubuntu"
         id="path3989" />
      <path
         d="m 250.55193,188.48905 c 1.19687,0.0476 2.07273,0.30913 2.62758,0.78471 0.56276,0.47558 0.84415,1.12158 0.84415,1.93799 0,0.36461 -0.0634,0.70148 -0.19023,1.01061 -0.1189,0.30913 -0.30517,0.57466 -0.5588,0.7966 -0.24573,0.22194 -0.55882,0.39631 -0.93928,0.52314 -0.38046,0.12682 -0.83227,0.19023 -1.3554,0.19023 -0.20609,0 -0.41614,-0.0159 -0.63015,-0.0476 -0.21401,-0.0317 -0.41217,-0.0713 -0.59447,-0.11889 -0.18231,-0.0476 -0.3448,-0.0951 -0.48747,-0.14268 -0.14268,-0.0476 -0.24572,-0.0872 -0.30913,-0.11889 l 0.21401,-0.96306 c 0.13475,0.0634 0.35272,0.14664 0.65393,0.24968 0.30912,0.10305 0.68562,0.15457 1.1295,0.15457 0.35668,0 0.65392,-0.0396 0.89171,-0.1189 0.24572,-0.0793 0.44387,-0.18626 0.59448,-0.32101 0.1506,-0.13475 0.2576,-0.28931 0.32102,-0.46369 0.0713,-0.18231 0.107,-0.37254 0.107,-0.5707 0,-0.3012 -0.0515,-0.56673 -0.15456,-0.7966 -0.10305,-0.23779 -0.28535,-0.43594 -0.54692,-0.59447 -0.26157,-0.15853 -0.61033,-0.27742 -1.04628,-0.35669 -0.43595,-0.0872 -0.98683,-0.13078 -1.65264,-0.13078 0.0476,-0.38839 0.0832,-0.753 0.10701,-1.09384 0.0317,-0.34083 0.0594,-0.67373 0.0832,-0.99872 0.0238,-0.32497 0.0436,-0.64599 0.0594,-0.96305 0.0159,-0.32497 0.0317,-0.66581 0.0476,-1.0225 l 3.9711,0 0,0.93927 -3.00805,0 c -0.008,0.11891 -0.0198,0.2814 -0.0357,0.48747 -0.0159,0.19817 -0.0317,0.40822 -0.0476,0.63015 -0.0159,0.21401 -0.0317,0.42406 -0.0476,0.63014 -0.0159,0.20609 -0.0317,0.36858 -0.0476,0.48747"
         style="font-size:11.88951588px;font-variant:normal;font-stretch:normal;fill:#ef2929;font-family:Ubuntu;-inkscape-font-specification:Ubuntu"
         id="path3991" />
      <path
         d="m 262.57761,185.31455 c -0.3012,0.87191 -0.59052,1.68039 -0.86793,2.42546 -0.2695,0.73716 -0.53503,1.43864 -0.7966,2.10445 -0.26157,0.66581 -0.52314,1.30388 -0.78471,1.91421 -0.25364,0.6024 -0.51521,1.20084 -0.7847,1.79532 l -1.08195,0 c -0.2695,-0.59448 -0.53503,-1.19292 -0.7966,-1.79532 -0.25364,-0.61033 -0.51521,-1.2484 -0.78471,-1.91421 -0.26157,-0.66581 -0.53106,-1.36729 -0.80848,-2.10445 -0.27743,-0.74507 -0.56277,-1.55355 -0.85605,-2.42546 l 1.27218,0 c 0.42802,1.25237 0.84812,2.45717 1.26029,3.61441 0.41217,1.15725 0.83622,2.24316 1.27218,3.25773 0.43594,-1.00664 0.86,-2.08859 1.27218,-3.24584 0.41216,-1.16516 0.82829,-2.37393 1.24839,-3.6263 l 1.23651,0"
         style="font-size:11.88951588px;font-variant:normal;font-stretch:normal;fill:#ef2929;font-family:Ubuntu;-inkscape-font-specification:Ubuntu"
         id="path3993" />
    </g>
    <g
       style="font-size:79.26344299px;font-style:normal;font-weight:normal;line-height:125%;letter-spacing:0px;word-spacing:0px;fill:#555753;fill-opacity:1;stroke:none;font-family:Sans"
       id="text8396">
      <path
         d="m 246.25547,262.21676 1.15328,0 0,3.85221 c -0.0951,0.0317 -0.23383,0.0674 -0.41613,0.107 -0.17439,0.0396 -0.38047,0.0793 -0.61826,0.1189 -0.22987,0.0396 -0.48351,0.0713 -0.76093,0.0951 -0.27742,0.0317 -0.55881,0.0476 -0.84415,0.0476 -0.57863,0 -1.10573,-0.0951 -1.58131,-0.28535 -0.47558,-0.19023 -0.88379,-0.46765 -1.22462,-0.83226 -0.34083,-0.36461 -0.60636,-0.81245 -0.79659,-1.34352 -0.18231,-0.53106 -0.27346,-1.14139 -0.27346,-1.83098 0,-0.68959 0.10304,-1.29992 0.30912,-1.83099 0.21401,-0.53898 0.49936,-0.99079 0.85605,-1.3554 0.35668,-0.36461 0.77282,-0.64203 1.2484,-0.83227 0.4835,-0.19022 0.99871,-0.28534 1.54564,-0.28535 0.37253,10e-6 0.70147,0.0238 0.98683,0.0713 0.29326,0.0476 0.54294,0.10305 0.74903,0.16645 0.20608,0.0634 0.37254,0.12683 0.49936,0.19023 0.13475,0.0634 0.2259,0.11098 0.27346,0.14268 l -0.36857,0.96305 c -0.22987,-0.1506 -0.53504,-0.27345 -0.91549,-0.36858 -0.38047,-0.10303 -0.76886,-0.15455 -1.16518,-0.15456 -0.4201,10e-6 -0.80452,0.0753 -1.15328,0.2259 -0.34084,0.15061 -0.63411,0.36858 -0.87982,0.65392 -0.2378,0.28536 -0.42407,0.63412 -0.55881,1.04628 -0.13475,0.40425 -0.20213,0.86001 -0.20212,1.3673 -1e-5,0.49143 0.0555,0.93927 0.16645,1.34351 0.11889,0.40425 0.29327,0.75301 0.52314,1.04628 0.23779,0.28535 0.5271,0.50729 0.86793,0.66581 0.34876,0.15853 0.75697,0.23779 1.22462,0.23779 0.33291,0 0.61429,-0.0159 0.84416,-0.0476 0.23778,-0.0396 0.4082,-0.0753 0.51125,-0.107 l 0,-3.0675"
         style="font-size:11.88951588px;font-variant:normal;font-stretch:normal;fill:#555753;font-family:Ubuntu;-inkscape-font-specification:Ubuntu"
         id="path3982" />
      <path
         d="m 254.86199,266.27109 c -0.17438,-0.29328 -0.37651,-0.62222 -0.60636,-0.98683 -0.22195,-0.36461 -0.4637,-0.74111 -0.72526,-1.12951 -0.26158,-0.39631 -0.53504,-0.79659 -0.82038,-1.20084 -0.27743,-0.40424 -0.55485,-0.79263 -0.83227,-1.16517 -0.27742,-0.38046 -0.54692,-0.73714 -0.80848,-1.07006 -0.26158,-0.3329 -0.50333,-0.62617 -0.72526,-0.87982 l 0,6.43223 -1.12951,0 0,-8.23944 0.91549,0 c 0.37254,0.39633 0.76886,0.86002 1.18896,1.39108 0.42801,0.52314 0.84811,1.0661 1.26028,1.62886 0.4201,0.55485 0.81245,1.10177 1.17707,1.64075 0.37253,0.539 0.68562,1.01854 0.93927,1.43863 l 0,-6.09932 1.1295,0 0,8.23944 -0.96305,0"
         style="font-size:11.88951588px;font-variant:normal;font-stretch:normal;fill:#555753;font-family:Ubuntu;-inkscape-font-specification:Ubuntu"
         id="path3984" />
      <path
         d="m 264.6413,262.14543 c 0,0.71337 -0.11097,1.33559 -0.3329,1.86665 -0.22195,0.52314 -0.53504,0.95909 -0.93927,1.30785 -0.40425,0.34083 -0.88776,0.59844 -1.45052,0.77281 -0.56278,0.16646 -1.18103,0.24968 -1.85477,0.24968 -0.33291,0 -0.70148,-0.0159 -1.10572,-0.0476 -0.39632,-0.0238 -0.75697,-0.0753 -1.08195,-0.15457 l 0,-7.98975 c 0.32498,-0.0793 0.68563,-0.13078 1.08195,-0.15457 0.40424,-0.0317 0.77281,-0.0476 1.10572,-0.0476 0.67374,0 1.29199,0.0872 1.85477,0.26157 0.56276,0.16646 1.04627,0.42406 1.45052,0.77281 0.40423,0.34084 0.71732,0.77679 0.93927,1.30785 0.22193,0.52315 0.3329,1.1414 0.3329,1.85477 m -4.48234,3.18639 c 1.09383,0 1.91024,-0.27742 2.44924,-0.83227 0.53898,-0.56277 0.80848,-1.34748 0.80848,-2.35412 0,-1.00664 -0.2695,-1.78739 -0.80848,-2.34224 -0.539,-0.56276 -1.35541,-0.84415 -2.44924,-0.84415 -0.32499,0 -0.57863,0.004 -0.76093,0.0119 -0.17438,0.008 -0.29724,0.0159 -0.36858,0.0238 l 0,6.30145 c 0.0713,0.008 0.1942,0.0159 0.36858,0.0238 0.1823,0.008 0.43594,0.0119 0.76093,0.0119"
         style="font-size:11.88951588px;font-variant:normal;font-stretch:normal;fill:#555753;font-family:Ubuntu;-inkscape-font-specification:Ubuntu"
         id="path3986" />
    </g>
    <path
       inkscape:connector-curvature="0"
       id="path8400"
       d="m 183.38282,230.40803 0,44.44414 -37.61968,0"
       style="fill:none;stroke:#eeeeec;stroke-width:1.98158598px;stroke-linecap:round;stroke-linejoin:round;stroke-opacity:1"
       sodipodi:nodetypes="ccc" />
    <path
       transform="matrix(-2.0659815,0,0,1.9798991,314.88772,138.55102)"
       d="m 58.399444,46.272289 c 0,0.418419 -0.325062,0.757615 -0.726047,0.757615 -0.400985,0 -0.726047,-0.339196 -0.726047,-0.757615 0,-0.418419 0.325062,-0.757614 0.726047,-0.757614 0.400985,0 0.726047,0.339195 0.726047,0.757614 z"
       sodipodi:ry="0.75761437"
       sodipodi:rx="0.72604716"
       sodipodi:cy="46.272289"
       sodipodi:cx="57.673397"
       id="path3884"
       style="fill:#eeeeec;fill-opacity:1;stroke:none"
       sodipodi:type="arc" />
    <g
       style="font-size:79.26344299px;font-style:normal;font-weight:normal;line-height:125%;letter-spacing:0px;word-spacing:0px;fill:#eeeeec;fill-opacity:1;stroke:none;font-family:Sans"
       id="text8402">
      <path
         d="m 115.48177,274.86552 c 0,-0.80056 0.11096,-1.506 0.3329,-2.11633 0.22194,-0.61825 0.53503,-1.13743 0.93927,-1.55753 0.41217,-0.42009 0.90757,-0.73714 1.48619,-0.95116 0.58655,-0.22193 1.24444,-0.33686 1.97366,-0.3448 l 0.0832,0.92739 c -0.46766,0.008 -0.89568,0.0595 -1.28407,0.15456 -0.38047,0.0951 -0.7213,0.24572 -1.0225,0.4518 -0.3012,0.20609 -0.55484,0.47559 -0.76092,0.80849 -0.20609,0.32498 -0.36066,0.72923 -0.4637,1.21273 0.20609,-0.0951 0.43595,-0.17438 0.6896,-0.23779 0.26156,-0.0634 0.53106,-0.0951 0.80848,-0.0951 0.46765,1e-5 0.86397,0.0713 1.18895,0.21401 0.32498,0.14268 0.59051,0.33291 0.7966,0.5707 0.20608,0.22987 0.35272,0.49936 0.43991,0.80849 0.0951,0.3012 0.14267,0.61826 0.14268,0.95116 -10e-6,0.3012 -0.0515,0.61033 -0.15457,0.92738 -0.10304,0.31706 -0.26157,0.60637 -0.47558,0.86794 -0.20609,0.26157 -0.47162,0.47558 -0.79659,0.64203 -0.32499,0.16645 -0.70941,0.24968 -1.15329,0.24968 -0.9036,0 -1.59319,-0.30913 -2.06877,-0.92738 -0.46766,-0.61826 -0.70148,-1.47034 -0.70148,-2.55625 m 2.66325,-0.84415 c -0.27743,0 -0.53503,0.0277 -0.77282,0.0832 -0.23779,0.0476 -0.47558,0.12286 -0.71337,0.2259 -0.008,0.0872 -0.0159,0.17835 -0.0238,0.27346 0,0.0872 0,0.17439 0,0.26157 0,0.34876 0.0238,0.67771 0.0713,0.98683 0.0476,0.30913 0.13078,0.58259 0.24968,0.82038 0.12682,0.22986 0.29327,0.41613 0.49936,0.55881 0.20608,0.13474 0.46765,0.20212 0.7847,0.20212 0.26157,0 0.48351,-0.0555 0.66582,-0.16646 0.1823,-0.11096 0.3329,-0.25364 0.4518,-0.42802 0.11889,-0.17438 0.20212,-0.36065 0.24968,-0.55881 0.0555,-0.20608 0.0832,-0.40424 0.0832,-0.59447 -10e-6,-0.53899 -0.13079,-0.95116 -0.39236,-1.23651 -0.25365,-0.28535 -0.63807,-0.42802 -1.15328,-0.42802"
         style="font-size:11.88951588px;font-variant:normal;font-stretch:normal;fill:#eeeeec;font-family:Ubuntu;-inkscape-font-specification:Ubuntu"
         id="path4012" />
      <path
         d="m 129.71259,272.58273 c -0.33291,1.06214 -0.66978,2.045 -1.01061,2.9486 -0.34084,0.90361 -0.68167,1.78343 -1.0225,2.63948 l -1.15328,0 c -0.4201,-1.21273 -0.79264,-2.49284 -1.11762,-3.84032 -0.31705,-1.34747 -0.61429,-2.81384 -0.89171,-4.39912 l 1.21273,0 c 0.11097,0.61826 0.2259,1.23652 0.3448,1.85477 0.11889,0.61826 0.24175,1.22066 0.36857,1.8072 0.12682,0.57863 0.25364,1.13347 0.38047,1.66454 0.12682,0.53106 0.2576,1.0225 0.39235,1.4743 0.31705,-0.83227 0.65392,-1.7438 1.01061,-2.73459 0.35668,-0.99872 0.68959,-2.02914 0.99872,-3.09128 l 0.99872,0 c 0.30912,1.06214 0.64599,2.09256 1.01061,3.09128 0.3646,0.99079 0.70543,1.90232 1.0225,2.73459 0.12681,-0.44388 0.25363,-0.93135 0.38046,-1.46241 0.12681,-0.53107 0.24967,-1.08591 0.36857,-1.66454 0.12682,-0.58654 0.24968,-1.18894 0.36858,-1.8072 0.11889,-0.62618 0.23382,-1.2484 0.3448,-1.86666 l 1.17706,0 c -0.28536,1.58528 -0.59053,3.05165 -0.9155,4.39912 -0.31706,1.34748 -0.68167,2.62759 -1.09383,3.84032 l -1.15328,0 c -0.34877,-0.85605 -0.6896,-1.73587 -1.0225,-2.63948 -0.33291,-0.9036 -0.66582,-1.88646 -0.99872,-2.9486"
         style="font-size:11.88951588px;font-variant:normal;font-stretch:normal;fill:#eeeeec;font-family:Ubuntu;-inkscape-font-specification:Ubuntu"
         id="path4014" />
      <path
         d="m 140.29054,274.72285 c 0.12682,0.15853 0.28534,0.36858 0.47558,0.63014 0.19816,0.25365 0.40028,0.539 0.60637,0.85605 0.20608,0.30913 0.4082,0.63411 0.60636,0.97494 0.20608,0.34083 0.38046,0.66977 0.52314,0.98683 l -1.26029,0 c -0.15853,-0.3012 -0.33291,-0.60637 -0.52314,-0.9155 -0.18231,-0.30912 -0.36858,-0.6024 -0.5588,-0.87982 -0.19024,-0.28535 -0.38047,-0.55088 -0.5707,-0.7966 -0.18231,-0.24571 -0.34876,-0.45972 -0.49936,-0.64203 -0.10305,0.008 -0.21005,0.0119 -0.32102,0.0119 -0.10304,0 -0.21005,0 -0.32101,0 l -1.03439,0 0,3.22206 -1.15328,0 0,-8.12054 c 0.32497,-0.0793 0.68562,-0.13078 1.08194,-0.15457 0.40424,-0.0317 0.77282,-0.0476 1.10573,-0.0476 1.15724,0 2.03706,0.21798 2.63947,0.65392 0.61032,0.43596 0.91549,1.08591 0.91549,1.94988 0,0.54692 -0.14664,1.01458 -0.43991,1.40296 -0.28535,0.3884 -0.70941,0.67771 -1.27218,0.86794 m -1.74776,-3.8641 c -0.49143,1e-5 -0.86793,0.0119 -1.1295,0.0357 l 0,3.10317 0.82038,0 c 0.39631,0 0.75299,-0.0198 1.07005,-0.0595 0.31705,-0.0396 0.58258,-0.11493 0.7966,-0.2259 0.22193,-0.11097 0.39235,-0.26553 0.51125,-0.46369 0.11889,-0.20608 0.17834,-0.47558 0.17834,-0.80849 0,-0.30912 -0.0594,-0.56673 -0.17834,-0.77282 -0.1189,-0.20608 -0.28139,-0.36857 -0.48747,-0.48747 -0.19816,-0.11889 -0.43596,-0.20211 -0.71337,-0.24968 -0.2695,-0.0476 -0.55881,-0.0713 -0.86794,-0.0713"
         style="font-size:11.88951588px;font-variant:normal;font-stretch:normal;fill:#eeeeec;font-family:Ubuntu;-inkscape-font-specification:Ubuntu"
         id="path4016" />
    </g>
    <path
       inkscape:connector-curvature="0"
       id="path8406"
       d="m 189.69518,230.05921 0,55.58032 -44.20407,0"
       style="fill:none;stroke:#204a87;stroke-width:1.98158598px;stroke-linecap:round;stroke-linejoin:round;stroke-opacity:1"
       sodipodi:nodetypes="ccc" />
    <path
       sodipodi:type="arc"
       style="fill:#eeeeec;fill-opacity:1;stroke:none"
       id="path3886"
       sodipodi:cx="57.673397"
       sodipodi:cy="46.272289"
       sodipodi:rx="0.72604716"
       sodipodi:ry="0.75761437"
       d="m 58.399444,46.272289 c 0,0.418419 -0.325062,0.757615 -0.726047,0.757615 -0.400985,0 -0.726047,-0.339196 -0.726047,-0.757615 0,-0.418419 0.325062,-0.757614 0.726047,-0.757614 0.400985,0 0.726047,0.339195 0.726047,0.757614 z"
       transform="matrix(-2.0659815,0,0,1.9798991,321.08772,138.55102)" />
    <g
       style="font-size:79.26344299px;font-style:normal;font-weight:normal;line-height:125%;letter-spacing:0px;word-spacing:0px;fill:#204a87;fill-opacity:1;stroke:none;font-family:Sans"
       id="text8408">
      <path
         d="m 105.88303,289.44604 c 0.0476,-0.6341 0.15852,-1.29991 0.33291,-1.99743 0.1823,-0.70545 0.40424,-1.38711 0.66581,-2.045 0.26156,-0.66581 0.54691,-1.2801 0.85604,-1.84288 0.31705,-0.57069 0.62618,-1.03438 0.92739,-1.39107 l -4.00677,0 0,-0.96305 5.24328,0 0,0.91549 c -0.26158,0.30121 -0.55089,0.71734 -0.86794,1.2484 -0.31706,0.52315 -0.61826,1.11366 -0.9036,1.77154 -0.27743,0.64996 -0.51918,1.34748 -0.72526,2.09255 -0.19816,0.73716 -0.32102,1.47431 -0.36858,2.21145 l -1.15328,0"
         style="font-size:11.88951588px;font-variant:normal;font-stretch:normal;fill:#204a87;font-family:Ubuntu;-inkscape-font-specification:Ubuntu"
         id="path4019" />
      <path
         d="m 121.18391,285.32038 c -1e-5,0.71338 -0.11098,1.33559 -0.33291,1.86666 -0.22194,0.52314 -0.53503,0.95909 -0.93927,1.30784 -0.40425,0.34084 -0.88776,0.59844 -1.45052,0.77282 -0.56278,0.16646 -1.18103,0.24968 -1.85477,0.24968 -0.33291,0 -0.70148,-0.0159 -1.10572,-0.0476 -0.39632,-0.0238 -0.75697,-0.0753 -1.08195,-0.15456 l 0,-7.98975 c 0.32498,-0.0793 0.68563,-0.13078 1.08195,-0.15457 0.40424,-0.0317 0.77281,-0.0476 1.10572,-0.0476 0.67374,10e-6 1.29199,0.0872 1.85477,0.26157 0.56276,0.16646 1.04627,0.42407 1.45052,0.77282 0.40424,0.34084 0.71733,0.77679 0.93927,1.30785 0.22193,0.52314 0.3329,1.1414 0.33291,1.85476 m -4.48235,3.18639 c 1.09383,0 1.91024,-0.27742 2.44924,-0.83226 0.53899,-0.56277 0.80848,-1.34748 0.80849,-2.35413 -10e-6,-1.00664 -0.2695,-1.78738 -0.80849,-2.34223 -0.539,-0.56277 -1.35541,-0.84415 -2.44924,-0.84416 -0.32498,1e-5 -0.57863,0.004 -0.76093,0.0119 -0.17438,0.008 -0.29724,0.0159 -0.36857,0.0238 l 0,6.30144 c 0.0713,0.008 0.19419,0.0159 0.36857,0.0238 0.1823,0.008 0.43595,0.0119 0.76093,0.0119"
         style="font-size:11.88951588px;font-variant:normal;font-stretch:normal;fill:#204a87;font-family:Ubuntu;-inkscape-font-specification:Ubuntu"
         id="path4021" />
      <path
         d="m 128.16733,289.44604 c -0.13476,-0.35668 -0.26158,-0.70544 -0.38047,-1.04627 -0.1189,-0.34876 -0.24176,-0.70148 -0.36857,-1.05817 l -3.73331,0 -0.74904,2.10444 -1.20084,0 c 0.31705,-0.87189 0.61429,-1.67642 0.89171,-2.41357 0.27742,-0.74507 0.54692,-1.45051 0.80849,-2.11633 0.26949,-0.66581 0.53503,-1.29992 0.7966,-1.90232 0.26156,-0.61032 0.53502,-1.21273 0.82037,-1.80721 l 1.05817,0 c 0.28534,0.59448 0.5588,1.19689 0.82038,1.80721 0.26156,0.6024 0.52313,1.23651 0.7847,1.90232 0.26949,0.66582 0.54295,1.37126 0.82038,2.11633 0.27742,0.73715 0.57465,1.54168 0.89172,2.41357 l -1.26029,0 m -1.08195,-3.0556 c -0.25365,-0.68959 -0.50729,-1.3554 -0.76093,-1.99744 -0.24572,-0.64995 -0.50333,-1.27217 -0.77282,-1.86665 -0.27742,0.59448 -0.54295,1.2167 -0.79659,1.86665 -0.24572,0.64204 -0.49144,1.30785 -0.73715,1.99744 l 3.06749,0"
         style="font-size:11.88951588px;font-variant:normal;font-stretch:normal;fill:#204a87;font-family:Ubuntu;-inkscape-font-specification:Ubuntu"
         id="path4023" />
      <path
         d="m 135.27317,281.20661 0,0.99872 -2.59192,0 0,7.24071 -1.15328,0 0,-7.24071 -2.59191,0 0,-0.99872 6.33711,0"
         style="font-size:11.88951588px;font-variant:normal;font-stretch:normal;fill:#204a87;font-family:Ubuntu;-inkscape-font-specification:Ubuntu"
         id="path4025" />
      <path
         d="m 141.21793,289.44604 c -0.13476,-0.35668 -0.26158,-0.70544 -0.38047,-1.04627 -0.1189,-0.34876 -0.24176,-0.70148 -0.36857,-1.05817 l -3.73331,0 -0.74904,2.10444 -1.20084,0 c 0.31705,-0.87189 0.61429,-1.67642 0.89171,-2.41357 0.27742,-0.74507 0.54692,-1.45051 0.80849,-2.11633 0.26949,-0.66581 0.53503,-1.29992 0.7966,-1.90232 0.26156,-0.61032 0.53502,-1.21273 0.82037,-1.80721 l 1.05817,0 c 0.28534,0.59448 0.5588,1.19689 0.82038,1.80721 0.26156,0.6024 0.52313,1.23651 0.7847,1.90232 0.26949,0.66582 0.54295,1.37126 0.82038,2.11633 0.27742,0.73715 0.57465,1.54168 0.89172,2.41357 l -1.26029,0 m -1.08195,-3.0556 c -0.25365,-0.68959 -0.50729,-1.3554 -0.76093,-1.99744 -0.24572,-0.64995 -0.50333,-1.27217 -0.77282,-1.86665 -0.27742,0.59448 -0.54295,1.2167 -0.79659,1.86665 -0.24572,0.64204 -0.49144,1.30785 -0.73715,1.99744 l 3.06749,0"
         style="font-size:11.88951588px;font-variant:normal;font-stretch:normal;fill:#204a87;font-family:Ubuntu;-inkscape-font-specification:Ubuntu"
         id="path4027" />
    </g>
    <path
       transform="matrix(-2.0659815,0,0,1.9798991,327.28772,138.55102)"
       d="m 58.399444,46.272289 c 0,0.418419 -0.325062,0.757615 -0.726047,0.757615 -0.400985,0 -0.726047,-0.339196 -0.726047,-0.757615 0,-0.418419 0.325062,-0.757614 0.726047,-0.757614 0.400985,0 0.726047,0.339195 0.726047,0.757614 z"
       sodipodi:ry="0.75761437"
       sodipodi:rx="0.72604716"
       sodipodi:cy="46.272289"
       sodipodi:cx="57.673397"
       id="path3888"
       style="fill:#eeeeec;fill-opacity:1;stroke:none"
       sodipodi:type="arc" />
    <path
       sodipodi:type="arc"
       style="fill:#eeeeec;fill-opacity:1;stroke:none"
       id="path3890"
       sodipodi:cx="57.673397"
       sodipodi:cy="46.272289"
       sodipodi:rx="0.72604716"
       sodipodi:ry="0.75761437"
       d="m 58.399444,46.272289 c 0,0.418419 -0.325062,0.757615 -0.726047,0.757615 -0.400985,0 -0.726047,-0.339196 -0.726047,-0.757615 0,-0.418419 0.325062,-0.757614 0.726047,-0.757614 0.400985,0 0.726047,0.339195 0.726047,0.757614 z"
       transform="matrix(-2.0659815,0,0,1.9798991,333.48772,138.55102)" />
    <path
       inkscape:connector-curvature="0"
       id="path8384"
       d="m 214.35396,230.79728 0,33.26232 22.16899,0"
       style="fill:none;stroke:#555753;stroke-width:1.98158598px;stroke-linecap:round;stroke-linejoin:round;stroke-opacity:1"
       sodipodi:nodetypes="ccc" />
    <path
       sodipodi:type="arc"
       style="fill:#eeeeec;fill-opacity:1;stroke:none"
       id="path3898"
       sodipodi:cx="57.673397"
       sodipodi:cy="46.272289"
       sodipodi:rx="0.72604716"
       sodipodi:ry="0.75761437"
       d="m 58.399444,46.272289 c 0,0.418419 -0.325062,0.757615 -0.726047,0.757615 -0.400985,0 -0.726047,-0.339196 -0.726047,-0.757615 0,-0.418419 0.325062,-0.757614 0.726047,-0.757614 0.400985,0 0.726047,0.339195 0.726047,0.757614 z"
       transform="matrix(-2.0659815,0,0,1.9798991,290.08772,132.55102)" />
    <path
       inkscape:connector-curvature="0"
       id="path8412"
       d="m 170.42929,223.42146 0,-33.26233 -25.38907,0"
       style="fill:none;stroke:#fce94f;stroke-width:1.98158598px;stroke-linecap:round;stroke-linejoin:round;stroke-opacity:1" />
    <path
       transform="matrix(-2.0659815,0,0,1.9798991,296.28772,132.55102)"
       d="m 58.399444,46.272289 c 0,0.418419 -0.325062,0.757615 -0.726047,0.757615 -0.400985,0 -0.726047,-0.339196 -0.726047,-0.757615 0,-0.418419 0.325062,-0.757614 0.726047,-0.757614 0.400985,0 0.726047,0.339195 0.726047,0.757614 z"
       sodipodi:ry="0.75761437"
       sodipodi:rx="0.72604716"
       sodipodi:cy="46.272289"
       sodipodi:cx="57.673397"
       id="path3900"
       style="fill:#eeeeec;fill-opacity:1;stroke:none"
       sodipodi:type="arc" />
    <g
       style="font-size:79.26344299px;font-style:normal;font-weight:normal;line-height:125%;letter-spacing:0px;word-spacing:0px;fill:#fce94f;fill-opacity:1;stroke:none;font-family:Sans"
       id="text8414">
      <path
         d="m 112.60417,191.51006 c 0.1506,-0.34876 0.35669,-0.753 0.61826,-1.21273 0.26157,-0.46765 0.55484,-0.9472 0.87982,-1.43864 0.33291,-0.49142 0.68563,-0.97493 1.05817,-1.45052 0.38046,-0.47557 0.76093,-0.90359 1.14139,-1.28406 l 1.05817,0 0,5.23138 0.97494,0 0,0.90361 -0.97494,0 0,2.10444 -1.07006,0 0,-2.10444 -3.68575,0 0,-0.74904 m 3.68575,-4.07811 c -0.23779,0.25365 -0.47954,0.539 -0.72526,0.85605 -0.23779,0.30913 -0.47162,0.63411 -0.70148,0.97494 -0.22986,0.34084 -0.44784,0.68959 -0.65392,1.04628 -0.19816,0.35668 -0.3765,0.70544 -0.53503,1.04627 l 2.61569,0 0,-3.92354"
         style="font-size:11.88951588px;font-variant:normal;font-stretch:normal;fill:#fce94f;font-family:Ubuntu;-inkscape-font-specification:Ubuntu"
         id="path3996" />
      <path
         d="m 126.1454,194.54188 c -0.57862,0 -1.10572,-0.0951 -1.5813,-0.28534 -0.47558,-0.19024 -0.88379,-0.46766 -1.22462,-0.83227 -0.34084,-0.36461 -0.60637,-0.81245 -0.7966,-1.34352 -0.18231,-0.53898 -0.27346,-1.15328 -0.27346,-1.84287 0,-0.68959 0.10304,-1.29992 0.30913,-1.83099 0.21401,-0.53898 0.49936,-0.99078 0.85604,-1.3554 0.35669,-0.36461 0.77282,-0.64203 1.2484,-0.83227 0.47558,-0.19022 0.98287,-0.28534 1.52186,-0.28535 0.34083,10e-6 0.64599,0.0238 0.91549,0.0713 0.27742,0.0476 0.51521,0.10305 0.71338,0.16645 0.20607,0.0634 0.37253,0.12683 0.49936,0.19024 0.12681,0.0634 0.214,0.11097 0.26156,0.14267 l -0.3329,0.95116 c -0.0713,-0.0476 -0.17439,-0.0991 -0.30913,-0.15456 -0.13475,-0.0555 -0.28932,-0.11096 -0.46369,-0.16646 -0.16646,-0.0555 -0.35273,-0.0991 -0.55881,-0.13078 -0.19816,-0.0396 -0.40028,-0.0594 -0.60636,-0.0594 -0.43596,1e-5 -0.82831,0.0753 -1.17707,0.2259 -0.34876,0.15061 -0.646,0.36859 -0.89171,0.65393 -0.24572,0.28535 -0.43595,0.63411 -0.5707,1.04627 -0.12682,0.40425 -0.19023,0.86002 -0.19023,1.3673 0,0.49144 0.0555,0.93927 0.16646,1.34351 0.11889,0.40425 0.29327,0.75301 0.52313,1.04628 0.22987,0.28535 0.51521,0.50729 0.85605,0.66581 0.34875,0.15853 0.753,0.2378 1.21273,0.23779 0.53106,1e-5 0.97097,-0.0555 1.31974,-0.16645 0.34875,-0.11097 0.61032,-0.21005 0.7847,-0.29724 l 0.29724,0.95116 c -0.0555,0.0396 -0.15457,0.0912 -0.29724,0.15457 -0.14268,0.0555 -0.32102,0.11097 -0.53502,0.16645 -0.21402,0.0555 -0.4637,0.10304 -0.74904,0.14268 -0.28536,0.0396 -0.59448,0.0594 -0.92739,0.0594"
         style="font-size:11.88951588px;font-variant:normal;font-stretch:normal;fill:#fce94f;font-family:Ubuntu;-inkscape-font-specification:Ubuntu"
         id="path3998" />
      <path
         d="m 134.92154,193.36482 0,0.99872 -4.95793,0 0,-8.23943 1.15328,0 0,7.24071 3.80465,0"
         style="font-size:11.88951588px;font-variant:normal;font-stretch:normal;fill:#fce94f;font-family:Ubuntu;-inkscape-font-specification:Ubuntu"
         id="path4000" />
      <path
         d="m 142.23991,186.12411 c -0.24573,0.2695 -0.52315,0.5707 -0.83227,0.9036 -0.30913,0.32499 -0.63411,0.66186 -0.97494,1.01061 -0.33291,0.34084 -0.66582,0.67771 -0.99872,1.01061 -0.33291,0.33291 -0.646,0.64204 -0.93927,0.92738 0.34083,0.23779 0.70148,0.53107 1.08195,0.87982 0.38046,0.34877 0.75299,0.7213 1.11761,1.11762 0.36461,0.39632 0.70544,0.80056 1.0225,1.21273 0.32497,0.41217 0.59447,0.80452 0.80849,1.17706 l -1.35541,0 c -0.23779,-0.37254 -0.51125,-0.74507 -0.82038,-1.11761 -0.30913,-0.38047 -0.63807,-0.74112 -0.98683,-1.08195 -0.34083,-0.34876 -0.68959,-0.66977 -1.04627,-0.96305 -0.34876,-0.29327 -0.6896,-0.54295 -1.0225,-0.74904 l 0,3.91165 -1.15328,0 0,-8.23943 1.15328,0 0,3.63819 c 0.27742,-0.26157 0.58258,-0.55484 0.91549,-0.87983 0.3329,-0.3329 0.66185,-0.6658 0.98683,-0.99872 0.32498,-0.3329 0.63014,-0.64995 0.91549,-0.95116 0.29327,-0.30912 0.53899,-0.57861 0.73715,-0.80848 l 1.39108,0"
         style="font-size:11.88951588px;font-variant:normal;font-stretch:normal;fill:#fce94f;font-family:Ubuntu;-inkscape-font-specification:Ubuntu"
         id="path4002" />
    </g>
    <g
       style="font-size:79.26344299px;font-style:normal;font-weight:normal;text-align:center;line-height:125%;letter-spacing:0px;word-spacing:0px;text-anchor:middle;fill:#1c1c1c;fill-opacity:1;stroke:none;font-family:Sans"
       id="text3098">
      <path
         d="m 119.50743,309.95749 c -0.59448,-1.28407 -1.16914,-2.62758 -1.72398,-4.03055 -0.54692,-1.40295 -1.05817,-2.80592 -1.53375,-4.20889 l 1.65265,0 c 0.19023,0.55486 0.38442,1.12159 0.58258,1.70021 0.19816,0.57862 0.39632,1.14932 0.59448,1.71209 0.19816,0.55484 0.39631,1.09383 0.59448,1.61697 0.19815,0.52314 0.39235,1.00268 0.58258,1.43863 0.1823,-0.43595 0.37254,-0.91153 0.5707,-1.42674 0.19815,-0.52314 0.39631,-1.06609 0.59447,-1.62886 0.20608,-0.56277 0.40821,-1.13347 0.60637,-1.71209 0.19815,-0.57862 0.38838,-1.14535 0.5707,-1.70021 l 1.60508,0 c -0.48351,1.40297 -0.99873,2.80594 -1.54564,4.20889 -0.54692,1.40297 -1.11762,2.74648 -1.71209,4.03055 l -1.43863,0"
         style="font-size:11.88951588px;font-variant:normal;font-weight:500;font-stretch:normal;fill:#1c1c1c;font-family:Ubuntu;-inkscape-font-specification:Ubuntu Medium"
         id="path4030" />
      <path
         d="m 130.05473,309.76726 c -0.27742,0.0713 -0.63807,0.14267 -1.08194,0.21401 -0.44388,0.0793 -0.93135,0.11889 -1.46241,0.11889 -0.49937,0 -0.91946,-0.0713 -1.26029,-0.21401 -0.33291,-0.14267 -0.60241,-0.34083 -0.80849,-0.59447 -0.19816,-0.25365 -0.34083,-0.55485 -0.42802,-0.90361 -0.0872,-0.35668 -0.13079,-0.74507 -0.13079,-1.16517 l 0,-3.48363 1.43864,0 0,3.25773 c -1e-5,0.66581 0.0951,1.14139 0.28534,1.42674 0.19816,0.28535 0.53899,0.42803 1.0225,0.42802 0.17438,10e-6 0.35668,-0.008 0.54692,-0.0238 0.19815,-0.0159 0.34479,-0.0357 0.43991,-0.0595 l 0,-5.02927 1.43863,0 0,6.02799"
         style="font-size:11.88951588px;font-variant:normal;font-weight:500;font-stretch:normal;fill:#1c1c1c;font-family:Ubuntu;-inkscape-font-specification:Ubuntu Medium"
         id="path4032" />
      <path
         d="m 131.55263,306.8781 c 0,-0.54691 0.0793,-1.02645 0.23779,-1.43863 0.16645,-0.41216 0.38442,-0.75299 0.65392,-1.0225 0.26949,-0.27741 0.57862,-0.4835 0.92738,-0.61825 0.34876,-0.14267 0.70544,-0.21401 1.07006,-0.21401 0.85604,0 1.52185,0.26554 1.99744,0.7966 0.4835,0.53107 0.72525,1.3237 0.72526,2.3779 -1e-5,0.0793 -0.004,0.17042 -0.0119,0.27346 -1e-5,0.0951 -0.004,0.18231 -0.0119,0.26157 l -4.10188,0 c 0.0396,0.49936 0.21401,0.88775 0.52313,1.16517 0.31706,0.2695 0.77282,0.40424 1.3673,0.40424 0.34875,0 0.66581,-0.0317 0.95116,-0.0951 0.29327,-0.0634 0.52313,-0.13079 0.68959,-0.20212 l 0.19023,1.17706 c -0.0793,0.0396 -0.19023,0.0832 -0.3329,0.13078 -0.13476,0.0396 -0.29328,0.0753 -0.47558,0.10701 -0.17439,0.0396 -0.36462,0.0713 -0.5707,0.0951 -0.20609,0.0238 -0.41614,0.0357 -0.63014,0.0357 -0.54692,0 -1.0225,-0.0793 -1.42675,-0.23779 -0.40424,-0.16645 -0.73715,-0.39235 -0.99871,-0.6777 -0.26158,-0.29327 -0.45577,-0.63411 -0.58259,-1.0225 -0.12682,-0.39631 -0.19023,-0.8283 -0.19023,-1.29596 m 4.17322,-0.64203 c -1e-5,-0.19815 -0.0277,-0.38442 -0.0832,-0.55881 -0.0555,-0.1823 -0.13872,-0.33686 -0.24968,-0.46369 -0.10305,-0.13474 -0.23383,-0.23778 -0.39235,-0.30913 -0.15061,-0.0793 -0.33291,-0.11889 -0.54692,-0.11889 -0.22194,0 -0.41614,0.0436 -0.58259,0.13078 -0.16645,0.0793 -0.30913,0.18628 -0.42802,0.32102 -0.11097,0.13475 -0.19816,0.28932 -0.26157,0.46369 -0.0634,0.17439 -0.10701,0.35273 -0.13078,0.53503 l 2.67514,0"
         style="font-size:11.88951588px;font-variant:normal;font-weight:500;font-stretch:normal;fill:#1c1c1c;font-family:Ubuntu;-inkscape-font-specification:Ubuntu Medium"
         id="path4034" />
      <path
         d="m 142.57105,306.83055 c 0,0.63411 0.1506,1.13347 0.4518,1.49808 0.3012,0.35668 0.71733,0.53502 1.2484,0.53502 0.22986,0 0.42406,-0.008 0.58259,-0.0238 0.16645,-0.0238 0.30119,-0.0476 0.40424,-0.0713 l 0,-3.56686 c -0.12683,-0.0872 -0.29724,-0.16645 -0.51125,-0.23779 -0.20609,-0.0793 -0.42802,-0.11889 -0.66581,-0.11889 -0.52314,0 -0.90757,0.17834 -1.15328,0.53503 -0.2378,0.35669 -0.35669,0.84019 -0.35669,1.45052 m 4.12566,2.93671 c -0.28535,0.0872 -0.646,0.16645 -1.08194,0.23779 -0.42803,0.0713 -0.87983,0.107 -1.35541,0.107 -0.49144,0 -0.93135,-0.0753 -1.31973,-0.2259 -0.3884,-0.1506 -0.7213,-0.36461 -0.99872,-0.64203 -0.2695,-0.28535 -0.47955,-0.62618 -0.63015,-1.0225 -0.14267,-0.40424 -0.21401,-0.85604 -0.21401,-1.35541 0,-0.49142 0.0595,-0.9353 0.17834,-1.33162 0.12682,-0.40424 0.30913,-0.74904 0.54692,-1.03439 0.23779,-0.28534 0.5271,-0.50332 0.86794,-0.65392 0.34083,-0.15852 0.73318,-0.23779 1.17706,-0.23779 0.30119,0 0.56673,0.0357 0.7966,0.107 0.22985,0.0713 0.42801,0.15061 0.59447,0.23779 l 0,-2.98426 1.43863,-0.2378 0,9.03604"
         style="font-size:11.88951588px;font-variant:normal;font-weight:500;font-stretch:normal;fill:#1c1c1c;font-family:Ubuntu;-inkscape-font-specification:Ubuntu Medium"
         id="path4036" />
      <path
         d="m 153.62477,309.76726 c -0.27743,0.0713 -0.63808,0.14267 -1.08195,0.21401 -0.44388,0.0793 -0.93135,0.11889 -1.46241,0.11889 -0.49936,0 -0.91946,-0.0713 -1.26029,-0.21401 -0.3329,-0.14267 -0.6024,-0.34083 -0.80848,-0.59447 -0.19816,-0.25365 -0.34084,-0.55485 -0.42803,-0.90361 -0.0872,-0.35668 -0.13078,-0.74507 -0.13078,-1.16517 l 0,-3.48363 1.43863,0 0,3.25773 c 0,0.66581 0.0951,1.14139 0.28535,1.42674 0.19816,0.28535 0.53899,0.42803 1.0225,0.42802 0.17437,10e-6 0.35668,-0.008 0.54692,-0.0238 0.19815,-0.0159 0.34479,-0.0357 0.43991,-0.0595 l 0,-5.02927 1.43863,0 0,6.02799"
         style="font-size:11.88951588px;font-variant:normal;font-weight:500;font-stretch:normal;fill:#1c1c1c;font-family:Ubuntu;-inkscape-font-specification:Ubuntu Medium"
         id="path4038" />
      <path
         d="m 157.88605,306.85433 c 0,-0.45973 0.0713,-0.88775 0.21401,-1.28407 0.14267,-0.40424 0.34479,-0.753 0.60636,-1.04628 0.2695,-0.29327 0.59448,-0.52313 0.97494,-0.68959 0.38047,-0.16645 0.80849,-0.24968 1.28407,-0.24968 0.58655,0 1.14139,0.10701 1.66453,0.32102 l -0.30912,1.17706 c -0.16646,-0.0713 -0.35669,-0.13078 -0.5707,-0.17835 -0.20609,-0.0476 -0.42803,-0.0713 -0.66581,-0.0713 -0.56278,0 -0.9908,0.17835 -1.28407,0.53503 -0.29328,0.34876 -0.43991,0.84416 -0.43991,1.48619 0,0.61825 0.13871,1.10969 0.41613,1.4743 0.27742,0.35668 0.74507,0.53502 1.40296,0.53502 0.24572,0 0.48747,-0.0238 0.72526,-0.0713 0.23779,-0.0476 0.44387,-0.10701 0.61826,-0.17835 l 0.20212,1.18896 c -0.15853,0.0793 -0.40029,0.1506 -0.72526,0.21401 -0.31706,0.0634 -0.646,0.0951 -0.98683,0.0951 -0.53107,0 -0.99476,-0.0793 -1.39107,-0.23779 -0.3884,-0.16645 -0.71338,-0.39235 -0.97494,-0.6777 -0.25365,-0.29327 -0.44388,-0.63807 -0.5707,-1.03439 -0.12682,-0.40424 -0.19023,-0.84019 -0.19023,-1.30784"
         style="font-size:11.88951588px;font-variant:normal;font-weight:500;font-stretch:normal;fill:#1c1c1c;font-family:Ubuntu;-inkscape-font-specification:Ubuntu Medium"
         id="path4040" />
      <path
         d="m 169.33491,306.84244 c -1e-5,0.49143 -0.0713,0.93927 -0.21401,1.34351 -0.14268,0.40425 -0.34481,0.74904 -0.60637,1.03439 -0.26157,0.28535 -0.57863,0.50729 -0.95116,0.66581 -0.36462,0.15853 -0.76886,0.23779 -1.21273,0.23779 -0.44388,0 -0.84812,-0.0793 -1.21273,-0.23779 -0.36461,-0.15852 -0.67771,-0.38046 -0.93927,-0.66581 -0.26157,-0.28535 -0.46766,-0.63014 -0.61826,-1.03439 -0.14267,-0.40424 -0.21401,-0.85208 -0.21401,-1.34351 0,-0.49143 0.0713,-0.93531 0.21401,-1.33163 0.1506,-0.40424 0.35669,-0.74903 0.61826,-1.03439 0.26949,-0.28534 0.58654,-0.50331 0.95116,-0.65392 0.36461,-0.15852 0.76489,-0.23779 1.20084,-0.23779 0.43594,0 0.83622,0.0793 1.20084,0.23779 0.37253,0.15061 0.68959,0.36858 0.95116,0.65392 0.26157,0.28536 0.46369,0.63015 0.60637,1.03439 0.15059,0.39632 0.22589,0.8402 0.2259,1.33163 m -1.4743,0 c -1e-5,-0.61826 -0.13475,-1.10572 -0.40425,-1.46241 -0.26157,-0.36461 -0.63014,-0.54692 -1.10572,-0.54692 -0.47558,0 -0.84812,0.18231 -1.11761,0.54692 -0.26158,0.35669 -0.39236,0.84415 -0.39236,1.46241 0,0.62618 0.13078,1.12158 0.39236,1.48619 0.26949,0.36461 0.64203,0.54691 1.11761,0.54691 0.47558,0 0.84415,-0.1823 1.10572,-0.54691 0.2695,-0.36461 0.40424,-0.86001 0.40425,-1.48619"
         style="font-size:11.88951588px;font-variant:normal;font-weight:500;font-stretch:normal;fill:#1c1c1c;font-family:Ubuntu;-inkscape-font-specification:Ubuntu Medium"
         id="path4042" />
      <path
         d="m 170.81701,303.94139 c 0.27742,-0.0793 0.63807,-0.15455 1.08195,-0.2259 0.44387,-0.0713 0.9353,-0.107 1.4743,-0.107 0.50728,0 0.93134,0.0713 1.27217,0.21401 0.34083,0.13475 0.61033,0.32895 0.80849,0.58259 0.20608,0.24572 0.34875,0.54692 0.42802,0.9036 0.0872,0.34876 0.13078,0.73319 0.13079,1.15328 l 0,3.49552 -1.43863,0 0,-3.26962 c -10e-6,-0.3329 -0.0238,-0.61429 -0.0713,-0.84415 -0.0396,-0.23779 -0.11097,-0.42802 -0.21401,-0.5707 -0.0951,-0.1506 -0.22987,-0.2576 -0.40425,-0.32102 -0.16645,-0.0713 -0.37254,-0.107 -0.61825,-0.107 -0.18231,0 -0.37254,0.0119 -0.5707,0.0357 -0.19816,0.0238 -0.3448,0.0436 -0.43991,0.0594 l 0,5.01738 -1.43863,0 0,-6.0161"
         style="font-size:11.88951588px;font-variant:normal;font-weight:500;font-stretch:normal;fill:#1c1c1c;font-family:Ubuntu;-inkscape-font-specification:Ubuntu Medium"
         id="path4044" />
      <path
         d="m 177.78352,303.94139 c 0.27743,-0.0793 0.63807,-0.15455 1.08195,-0.2259 0.44387,-0.0713 0.93531,-0.107 1.4743,-0.107 0.50728,0 0.93134,0.0713 1.27218,0.21401 0.34083,0.13475 0.61032,0.32895 0.80849,0.58259 0.20607,0.24572 0.34875,0.54692 0.42802,0.9036 0.0872,0.34876 0.13078,0.73319 0.13078,1.15328 l 0,3.49552 -1.43863,0 0,-3.26962 c 0,-0.3329 -0.0238,-0.61429 -0.0713,-0.84415 -0.0396,-0.23779 -0.11097,-0.42802 -0.21401,-0.5707 -0.0951,-0.1506 -0.22987,-0.2576 -0.40424,-0.32102 -0.16646,-0.0713 -0.37254,-0.107 -0.61826,-0.107 -0.1823,0 -0.37254,0.0119 -0.57069,0.0357 -0.19816,0.0238 -0.3448,0.0436 -0.43991,0.0594 l 0,5.01738 -1.43864,0 0,-6.0161"
         style="font-size:11.88951588px;font-variant:normal;font-weight:500;font-stretch:normal;fill:#1c1c1c;font-family:Ubuntu;-inkscape-font-specification:Ubuntu Medium"
         id="path4046" />
      <path
         d="m 184.40524,306.8781 c 0,-0.54691 0.0793,-1.02645 0.23779,-1.43863 0.16646,-0.41216 0.38443,-0.75299 0.65393,-1.0225 0.26949,-0.27741 0.57862,-0.4835 0.92738,-0.61825 0.34876,-0.14267 0.70544,-0.21401 1.07006,-0.21401 0.85604,0 1.52185,0.26554 1.99743,0.7966 0.48351,0.53107 0.72526,1.3237 0.72526,2.3779 0,0.0793 -0.004,0.17042 -0.0119,0.27346 0,0.0951 -0.004,0.18231 -0.0119,0.26157 l -4.10189,0 c 0.0396,0.49936 0.21401,0.88775 0.52314,1.16517 0.31705,0.2695 0.77282,0.40424 1.3673,0.40424 0.34875,0 0.6658,-0.0317 0.95116,-0.0951 0.29327,-0.0634 0.52313,-0.13079 0.68959,-0.20212 l 0.19023,1.17706 c -0.0793,0.0396 -0.19024,0.0832 -0.33291,0.13078 -0.13475,0.0396 -0.29328,0.0753 -0.47558,0.10701 -0.17438,0.0396 -0.36461,0.0713 -0.57069,0.0951 -0.20609,0.0238 -0.41614,0.0357 -0.63015,0.0357 -0.54692,0 -1.0225,-0.0793 -1.42674,-0.23779 -0.40424,-0.16645 -0.73715,-0.39235 -0.99872,-0.6777 -0.26157,-0.29327 -0.45576,-0.63411 -0.58258,-1.0225 -0.12683,-0.39631 -0.19024,-0.8283 -0.19024,-1.29596 m 4.17322,-0.64203 c 0,-0.19815 -0.0277,-0.38442 -0.0832,-0.55881 -0.0555,-0.1823 -0.13872,-0.33686 -0.24968,-0.46369 -0.10305,-0.13474 -0.23383,-0.23778 -0.39236,-0.30913 -0.1506,-0.0793 -0.33291,-0.11889 -0.54692,-0.11889 -0.22194,0 -0.41613,0.0436 -0.58258,0.13078 -0.16646,0.0793 -0.30913,0.18628 -0.42802,0.32102 -0.11098,0.13475 -0.19816,0.28932 -0.26157,0.46369 -0.0634,0.17439 -0.10701,0.35273 -0.13079,0.53503 l 2.67514,0"
         style="font-size:11.88951588px;font-variant:normal;font-weight:500;font-stretch:normal;fill:#1c1c1c;font-family:Ubuntu;-inkscape-font-specification:Ubuntu Medium"
         id="path4048" />
      <path
         d="m 191.18598,306.85433 c 0,-0.45973 0.0713,-0.88775 0.21401,-1.28407 0.14268,-0.40424 0.3448,-0.753 0.60637,-1.04628 0.26949,-0.29327 0.59447,-0.52313 0.97494,-0.68959 0.38046,-0.16645 0.80848,-0.24968 1.28407,-0.24968 0.58654,0 1.14139,0.10701 1.66453,0.32102 l -0.30913,1.17706 c -0.16646,-0.0713 -0.35669,-0.13078 -0.5707,-0.17835 -0.20608,-0.0476 -0.42802,-0.0713 -0.66581,-0.0713 -0.56277,0 -0.99079,0.17835 -1.28407,0.53503 -0.29327,0.34876 -0.43991,0.84416 -0.43991,1.48619 0,0.61825 0.13871,1.10969 0.41613,1.4743 0.27742,0.35668 0.74508,0.53502 1.40297,0.53502 0.24571,0 0.48746,-0.0238 0.72526,-0.0713 0.23778,-0.0476 0.44387,-0.10701 0.61825,-0.17835 l 0.20212,1.18896 c -0.15853,0.0793 -0.40028,0.1506 -0.72526,0.21401 -0.31705,0.0634 -0.646,0.0951 -0.98683,0.0951 -0.53106,0 -0.99475,-0.0793 -1.39107,-0.23779 -0.38839,-0.16645 -0.71337,-0.39235 -0.97494,-0.6777 -0.25364,-0.29327 -0.44388,-0.63807 -0.5707,-1.03439 -0.12682,-0.40424 -0.19023,-0.84019 -0.19023,-1.30784"
         style="font-size:11.88951588px;font-variant:normal;font-weight:500;font-stretch:normal;fill:#1c1c1c;font-family:Ubuntu;-inkscape-font-specification:Ubuntu Medium"
         id="path4050" />
      <path
         d="m 197.07909,302.09852 1.43863,-0.23779 0,1.87854 2.21145,0 0,1.20084 -2.21145,0 0,2.53247 c 0,0.49936 0.0793,0.85605 0.23779,1.07006 0.15853,0.21401 0.42802,0.32101 0.80849,0.32101 0.26157,0 0.49143,-0.0277 0.68959,-0.0832 0.20608,-0.0555 0.36857,-0.10701 0.48747,-0.15457 l 0.23779,1.1414 c -0.16645,0.0713 -0.38443,0.14267 -0.65392,0.21401 -0.2695,0.0793 -0.58655,0.11889 -0.95116,0.11889 -0.44388,0 -0.81642,-0.0594 -1.11762,-0.17834 -0.29327,-0.11889 -0.5271,-0.28931 -0.70148,-0.51125 -0.17438,-0.22986 -0.29724,-0.50332 -0.36857,-0.82038 -0.0713,-0.32497 -0.10701,-0.69355 -0.10701,-1.10572 l 0,-5.38595"
         style="font-size:11.88951588px;font-variant:normal;font-weight:500;font-stretch:normal;fill:#1c1c1c;font-family:Ubuntu;-inkscape-font-specification:Ubuntu Medium"
         id="path4052" />
      <path
         d="m 201.65897,306.8781 c 0,-0.54691 0.0793,-1.02645 0.23779,-1.43863 0.16646,-0.41216 0.38443,-0.75299 0.65393,-1.0225 0.26949,-0.27741 0.57862,-0.4835 0.92738,-0.61825 0.34876,-0.14267 0.70544,-0.21401 1.07006,-0.21401 0.85604,0 1.52185,0.26554 1.99743,0.7966 0.48351,0.53107 0.72526,1.3237 0.72527,2.3779 -1e-5,0.0793 -0.004,0.17042 -0.0119,0.27346 -1e-5,0.0951 -0.004,0.18231 -0.0119,0.26157 l -4.10189,0 c 0.0396,0.49936 0.21401,0.88775 0.52314,1.16517 0.31705,0.2695 0.77282,0.40424 1.3673,0.40424 0.34875,0 0.6658,-0.0317 0.95116,-0.0951 0.29327,-0.0634 0.52313,-0.13079 0.68959,-0.20212 l 0.19023,1.17706 c -0.0793,0.0396 -0.19024,0.0832 -0.3329,0.13078 -0.13476,0.0396 -0.29328,0.0753 -0.47559,0.10701 -0.17438,0.0396 -0.36461,0.0713 -0.57069,0.0951 -0.20609,0.0238 -0.41614,0.0357 -0.63015,0.0357 -0.54692,0 -1.0225,-0.0793 -1.42674,-0.23779 -0.40424,-0.16645 -0.73715,-0.39235 -0.99872,-0.6777 -0.26157,-0.29327 -0.45576,-0.63411 -0.58258,-1.0225 -0.12683,-0.39631 -0.19024,-0.8283 -0.19024,-1.29596 m 4.17322,-0.64203 c 0,-0.19815 -0.0277,-0.38442 -0.0832,-0.55881 -0.0555,-0.1823 -0.13872,-0.33686 -0.24968,-0.46369 -0.10305,-0.13474 -0.23383,-0.23778 -0.39236,-0.30913 -0.1506,-0.0793 -0.33291,-0.11889 -0.54691,-0.11889 -0.22195,0 -0.41614,0.0436 -0.58259,0.13078 -0.16646,0.0793 -0.30913,0.18628 -0.42802,0.32102 -0.11097,0.13475 -0.19816,0.28932 -0.26157,0.46369 -0.0634,0.17439 -0.10701,0.35273 -0.13079,0.53503 l 2.67514,0"
         style="font-size:11.88951588px;font-variant:normal;font-weight:500;font-stretch:normal;fill:#1c1c1c;font-family:Ubuntu;-inkscape-font-specification:Ubuntu Medium"
         id="path4054" />
      <path
         d="m 213.88511,309.76726 c -0.27743,0.0713 -0.63808,0.14267 -1.08195,0.21401 -0.44387,0.0793 -0.93134,0.11889 -1.46241,0.11889 -0.49936,0 -0.91945,-0.0713 -1.26028,-0.21401 -0.33291,-0.14267 -0.60241,-0.34083 -0.80849,-0.59447 -0.19816,-0.25365 -0.34084,-0.55485 -0.42802,-0.90361 -0.0872,-0.35668 -0.13079,-0.74507 -0.13079,-1.16517 l 0,-3.48363 1.43863,0 0,3.25773 c 0,0.66581 0.0951,1.14139 0.28535,1.42674 0.19816,0.28535 0.53899,0.42803 1.0225,0.42802 0.17438,10e-6 0.35668,-0.008 0.54692,-0.0238 0.19815,-0.0159 0.34479,-0.0357 0.43991,-0.0595 l 0,-5.02927 1.43863,0 0,6.02799"
         style="font-size:11.88951588px;font-variant:normal;font-weight:500;font-stretch:normal;fill:#1c1c1c;font-family:Ubuntu;-inkscape-font-specification:Ubuntu Medium"
         id="path4056" />
      <path
         d="m 219.27087,305.03523 c -0.11889,-0.0396 -0.28535,-0.0793 -0.49935,-0.1189 -0.20609,-0.0476 -0.44785,-0.0713 -0.72527,-0.0713 -0.15853,0 -0.32894,0.0159 -0.51124,0.0476 -0.17439,0.0317 -0.29724,0.0594 -0.36858,0.0832 l 0,4.98171 -1.43863,0 0,-5.92098 c 0.27742,-0.10304 0.62222,-0.19815 1.03439,-0.28535 0.42009,-0.0951 0.88378,-0.14267 1.39107,-0.14267 0.0951,0 0.20608,0.008 0.33291,0.0238 0.12681,0.008 0.25364,0.0238 0.38046,0.0476 0.12682,0.0159 0.24968,0.0396 0.36858,0.0713 0.11889,0.0238 0.214,0.0476 0.28534,0.0713 l -0.24968,1.21273"
         style="font-size:11.88951588px;font-variant:normal;font-weight:500;font-stretch:normal;fill:#1c1c1c;font-family:Ubuntu;-inkscape-font-specification:Ubuntu Medium"
         id="path4058" />
      <path
         d="m 225.46253,308.94688 c 0.44387,0 0.78074,-0.0238 1.01061,-0.0713 l 0,-1.59319 c -0.0793,-0.0238 -0.1942,-0.0476 -0.3448,-0.0713 -0.1506,-0.0238 -0.31706,-0.0357 -0.49936,-0.0357 -0.15853,10e-6 -0.32102,0.0119 -0.48747,0.0357 -0.15853,0.0238 -0.30517,0.0674 -0.43991,0.13079 -0.12682,0.0634 -0.22987,0.15456 -0.30913,0.27345 -0.0793,0.11098 -0.1189,0.25365 -0.11889,0.42803 -1e-5,0.34083 0.107,0.57862 0.32101,0.71337 0.21401,0.12682 0.50332,0.19023 0.86794,0.19023 m -0.1189,-5.36217 c 0.47558,0 0.87586,0.0595 1.20084,0.17834 0.32498,0.1189 0.58259,0.28536 0.77282,0.49936 0.19816,0.21402 0.33687,0.47559 0.41614,0.78471 0.0872,0.3012 0.13077,0.63411 0.13078,0.99872 l 0,3.76897 c -0.22194,0.0476 -0.55881,0.10305 -1.01061,0.16646 -0.44388,0.0713 -0.9472,0.107 -1.50997,0.107 -0.37254,0 -0.71337,-0.0357 -1.0225,-0.107 -0.30912,-0.0713 -0.57466,-0.18627 -0.79659,-0.3448 -0.21402,-0.15852 -0.38443,-0.36461 -0.51125,-0.61825 -0.1189,-0.25364 -0.17835,-0.56673 -0.17834,-0.93927 -1e-5,-0.35669 0.0674,-0.65789 0.20212,-0.90361 0.14267,-0.24571 0.3329,-0.44387 0.57069,-0.59447 0.23779,-0.15853 0.51125,-0.2695 0.82038,-0.33291 0.31705,-0.0713 0.64599,-0.107 0.98683,-0.10701 0.15852,1e-5 0.32498,0.0119 0.49936,0.0357 0.17438,0.0159 0.36064,0.0476 0.55881,0.0951 l 0,-0.23779 c -1e-5,-0.16645 -0.0198,-0.32498 -0.0594,-0.47558 -0.0396,-0.1506 -0.11097,-0.28138 -0.21401,-0.39236 -0.0951,-0.11889 -0.22591,-0.21004 -0.39236,-0.27345 -0.15853,-0.0634 -0.36065,-0.0951 -0.60636,-0.0951 -0.33291,0 -0.63807,0.0238 -0.91549,0.0713 -0.27743,0.0476 -0.50333,0.10304 -0.67771,0.16645 l -0.17834,-1.16517 c 0.18231,-0.0634 0.44784,-0.12682 0.7966,-0.19024 0.34876,-0.0634 0.72129,-0.0951 1.11761,-0.0951"
         style="font-size:11.88951588px;font-variant:normal;font-weight:500;font-stretch:normal;fill:#1c1c1c;font-family:Ubuntu;-inkscape-font-specification:Ubuntu Medium"
         id="path4060" />
      <path
         d="m 233.15746,305.03523 c -0.1189,-0.0396 -0.28536,-0.0793 -0.49936,-0.1189 -0.20609,-0.0476 -0.44785,-0.0713 -0.72526,-0.0713 -0.15853,0 -0.32895,0.0159 -0.51125,0.0476 -0.17439,0.0317 -0.29724,0.0594 -0.36858,0.0832 l 0,4.98171 -1.43863,0 0,-5.92098 c 0.27742,-0.10304 0.62222,-0.19815 1.03439,-0.28535 0.42009,-0.0951 0.88378,-0.14267 1.39107,-0.14267 0.0951,0 0.20608,0.008 0.33291,0.0238 0.12682,0.008 0.25364,0.0238 0.38046,0.0476 0.12682,0.0159 0.24968,0.0396 0.36858,0.0713 0.11889,0.0238 0.214,0.0476 0.28535,0.0713 l -0.24968,1.21273"
         style="font-size:11.88951588px;font-variant:normal;font-weight:500;font-stretch:normal;fill:#1c1c1c;font-family:Ubuntu;-inkscape-font-specification:Ubuntu Medium"
         id="path4062" />
      <path
         d="m 237.94113,305.03523 c -0.1189,-0.0396 -0.28535,-0.0793 -0.49936,-0.1189 -0.20609,-0.0476 -0.44784,-0.0713 -0.72526,-0.0713 -0.15853,0 -0.32894,0.0159 -0.51125,0.0476 -0.17438,0.0317 -0.29724,0.0594 -0.36857,0.0832 l 0,4.98171 -1.43863,0 0,-5.92098 c 0.27742,-0.10304 0.62221,-0.19815 1.03438,-0.28535 0.4201,-0.0951 0.88379,-0.14267 1.39108,-0.14267 0.0951,0 0.20608,0.008 0.3329,0.0238 0.12682,0.008 0.25364,0.0238 0.38047,0.0476 0.12682,0.0159 0.24967,0.0396 0.36857,0.0713 0.11889,0.0238 0.21401,0.0476 0.28535,0.0713 l -0.24968,1.21273"
         style="font-size:11.88951588px;font-variant:normal;font-weight:500;font-stretch:normal;fill:#1c1c1c;font-family:Ubuntu;-inkscape-font-specification:Ubuntu Medium"
         id="path4064" />
      <path
         d="m 240.63225,309.95749 -1.43864,0 0,-6.21822 1.43864,0 0,6.21822 m 0.15456,-8.03731 c 0,0.2695 -0.0872,0.48351 -0.26157,0.64203 -0.17438,0.15853 -0.38047,0.2378 -0.61825,0.23779 -0.24572,10e-6 -0.45577,-0.0793 -0.63015,-0.23779 -0.17438,-0.15852 -0.26157,-0.37253 -0.26157,-0.64203 0,-0.27742 0.0872,-0.49539 0.26157,-0.65393 0.17438,-0.15852 0.38443,-0.23778 0.63015,-0.23779 0.23778,1e-5 0.44387,0.0793 0.61825,0.23779 0.17438,0.15854 0.26157,0.37651 0.26157,0.65393"
         style="font-size:11.88951588px;font-variant:normal;font-weight:500;font-stretch:normal;fill:#1c1c1c;font-family:Ubuntu;-inkscape-font-specification:Ubuntu Medium"
         id="path4066" />
      <path
         d="m 242.11119,306.8781 c 0,-0.54691 0.0793,-1.02645 0.23779,-1.43863 0.16645,-0.41216 0.38443,-0.75299 0.65392,-1.0225 0.2695,-0.27741 0.57863,-0.4835 0.92739,-0.61825 0.34875,-0.14267 0.70544,-0.21401 1.07005,-0.21401 0.85604,0 1.52186,0.26554 1.99744,0.7966 0.4835,0.53107 0.72526,1.3237 0.72526,2.3779 0,0.0793 -0.004,0.17042 -0.0119,0.27346 0,0.0951 -0.004,0.18231 -0.0119,0.26157 l -4.10188,0 c 0.0396,0.49936 0.21401,0.88775 0.52314,1.16517 0.31705,0.2695 0.77281,0.40424 1.36729,0.40424 0.34876,0 0.66581,-0.0317 0.95116,-0.0951 0.29327,-0.0634 0.52314,-0.13079 0.6896,-0.20212 l 0.19023,1.17706 c -0.0793,0.0396 -0.19024,0.0832 -0.33291,0.13078 -0.13475,0.0396 -0.29328,0.0753 -0.47558,0.10701 -0.17438,0.0396 -0.36461,0.0713 -0.5707,0.0951 -0.20608,0.0238 -0.41613,0.0357 -0.63014,0.0357 -0.54692,0 -1.0225,-0.0793 -1.42674,-0.23779 -0.40425,-0.16645 -0.73715,-0.39235 -0.99872,-0.6777 -0.26157,-0.29327 -0.45577,-0.63411 -0.58259,-1.0225 -0.12682,-0.39631 -0.19023,-0.8283 -0.19023,-1.29596 m 4.17322,-0.64203 c 0,-0.19815 -0.0277,-0.38442 -0.0832,-0.55881 -0.0555,-0.1823 -0.13871,-0.33686 -0.24968,-0.46369 -0.10304,-0.13474 -0.23383,-0.23778 -0.39235,-0.30913 -0.1506,-0.0793 -0.33291,-0.11889 -0.54692,-0.11889 -0.22194,0 -0.41613,0.0436 -0.58258,0.13078 -0.16646,0.0793 -0.30913,0.18628 -0.42803,0.32102 -0.11097,0.13475 -0.19816,0.28932 -0.26157,0.46369 -0.0634,0.17439 -0.107,0.35273 -0.13078,0.53503 l 2.67514,0 m -1.94988,-5.88531 1.72398,2.08067 -0.71337,0.64203 -1.9261,-1.89043 0.91549,-0.83227"
         style="font-size:11.88951588px;font-variant:normal;font-weight:500;font-stretch:normal;fill:#1c1c1c;font-family:Ubuntu;-inkscape-font-specification:Ubuntu Medium"
         id="path4068" />
      <path
         d="m 252.7798,305.03523 c -0.1189,-0.0396 -0.28535,-0.0793 -0.49936,-0.1189 -0.20609,-0.0476 -0.44784,-0.0713 -0.72526,-0.0713 -0.15853,0 -0.32894,0.0159 -0.51125,0.0476 -0.17438,0.0317 -0.29724,0.0594 -0.36857,0.0832 l 0,4.98171 -1.43863,0 0,-5.92098 c 0.27742,-0.10304 0.62221,-0.19815 1.03438,-0.28535 0.4201,-0.0951 0.88379,-0.14267 1.39108,-0.14267 0.0951,0 0.20608,0.008 0.3329,0.0238 0.12682,0.008 0.25364,0.0238 0.38047,0.0476 0.12682,0.0159 0.24967,0.0396 0.36857,0.0713 0.11889,0.0238 0.21401,0.0476 0.28535,0.0713 l -0.24968,1.21273"
         style="font-size:11.88951588px;font-variant:normal;font-weight:500;font-stretch:normal;fill:#1c1c1c;font-family:Ubuntu;-inkscape-font-specification:Ubuntu Medium"
         id="path4070" />
      <path
         d="m 253.67561,306.8781 c 0,-0.54691 0.0793,-1.02645 0.23779,-1.43863 0.16645,-0.41216 0.38442,-0.75299 0.65392,-1.0225 0.26949,-0.27741 0.57862,-0.4835 0.92738,-0.61825 0.34876,-0.14267 0.70544,-0.21401 1.07006,-0.21401 0.85604,0 1.52185,0.26554 1.99744,0.7966 0.4835,0.53107 0.72525,1.3237 0.72526,2.3779 -1e-5,0.0793 -0.004,0.17042 -0.0119,0.27346 -1e-5,0.0951 -0.004,0.18231 -0.0119,0.26157 l -4.10188,0 c 0.0396,0.49936 0.214,0.88775 0.52313,1.16517 0.31705,0.2695 0.77282,0.40424 1.3673,0.40424 0.34875,0 0.66581,-0.0317 0.95116,-0.0951 0.29327,-0.0634 0.52313,-0.13079 0.68959,-0.20212 l 0.19023,1.17706 c -0.0793,0.0396 -0.19023,0.0832 -0.3329,0.13078 -0.13476,0.0396 -0.29328,0.0753 -0.47558,0.10701 -0.17439,0.0396 -0.36462,0.0713 -0.5707,0.0951 -0.20609,0.0238 -0.41614,0.0357 -0.63014,0.0357 -0.54693,0 -1.02251,-0.0793 -1.42675,-0.23779 -0.40424,-0.16645 -0.73715,-0.39235 -0.99872,-0.6777 -0.26157,-0.29327 -0.45576,-0.63411 -0.58258,-1.0225 -0.12682,-0.39631 -0.19023,-0.8283 -0.19023,-1.29596 m 4.17322,-0.64203 c -1e-5,-0.19815 -0.0278,-0.38442 -0.0832,-0.55881 -0.0555,-0.1823 -0.13872,-0.33686 -0.24968,-0.46369 -0.10305,-0.13474 -0.23383,-0.23778 -0.39235,-0.30913 -0.15061,-0.0793 -0.33291,-0.11889 -0.54692,-0.11889 -0.22194,0 -0.41614,0.0436 -0.58259,0.13078 -0.16645,0.0793 -0.30913,0.18628 -0.42802,0.32102 -0.11097,0.13475 -0.19816,0.28932 -0.26157,0.46369 -0.0634,0.17439 -0.10701,0.35273 -0.13079,0.53503 l 2.67515,0"
         style="font-size:11.88951588px;font-variant:normal;font-weight:500;font-stretch:normal;fill:#1c1c1c;font-family:Ubuntu;-inkscape-font-specification:Ubuntu Medium"
         id="path4072" />
      <path
         d="m 163.20354,321.69244 c 0,0.63411 0.1506,1.13347 0.4518,1.49808 0.3012,0.35669 0.71733,0.53503 1.2484,0.53503 0.22986,0 0.42406,-0.008 0.58259,-0.0238 0.16645,-0.0238 0.30119,-0.0476 0.40424,-0.0713 l 0,-3.56685 c -0.12683,-0.0872 -0.29724,-0.16645 -0.51125,-0.23779 -0.20609,-0.0793 -0.42803,-0.11889 -0.66581,-0.1189 -0.52314,1e-5 -0.90757,0.17835 -1.15329,0.53503 -0.23779,0.35669 -0.35668,0.8402 -0.35668,1.45052 m 4.12566,2.93671 c -0.28535,0.0872 -0.646,0.16645 -1.08194,0.23779 -0.42803,0.0713 -0.87983,0.10701 -1.35541,0.10701 -0.49144,0 -0.93135,-0.0753 -1.31974,-0.2259 -0.38839,-0.1506 -0.72129,-0.36461 -0.99871,-0.64204 -0.2695,-0.28534 -0.47955,-0.62618 -0.63015,-1.0225 -0.14267,-0.40424 -0.21401,-0.85604 -0.21401,-1.3554 0,-0.49143 0.0594,-0.9353 0.17834,-1.33163 0.12682,-0.40423 0.30913,-0.74903 0.54692,-1.03438 0.23779,-0.28535 0.5271,-0.50332 0.86793,-0.65393 0.34083,-0.15852 0.73319,-0.23778 1.17707,-0.23779 0.30119,1e-5 0.56673,0.0357 0.79659,0.10701 0.22986,0.0713 0.42802,0.1506 0.59448,0.23779 l 0,-2.98427 1.43863,-0.23779 0,9.03603"
         style="font-size:11.88951588px;font-variant:normal;font-weight:500;font-stretch:normal;fill:#1c1c1c;font-family:Ubuntu;-inkscape-font-specification:Ubuntu Medium"
         id="path4074" />
      <path
         d="m 168.81186,321.74 c 0,-0.54691 0.0793,-1.02646 0.23779,-1.43863 0.16645,-0.41217 0.38443,-0.753 0.65392,-1.0225 0.2695,-0.27742 0.57863,-0.4835 0.92739,-0.61826 0.34875,-0.14266 0.70544,-0.214 1.07005,-0.21401 0.85604,1e-5 1.52186,0.26554 1.99744,0.7966 0.4835,0.53107 0.72526,1.3237 0.72526,2.3779 0,0.0793 -0.004,0.17042 -0.0119,0.27346 0,0.0951 -0.004,0.18231 -0.0119,0.26157 l -4.10188,0 c 0.0396,0.49936 0.21401,0.88775 0.52314,1.16517 0.31705,0.2695 0.77281,0.40425 1.36729,0.40425 0.34876,0 0.66581,-0.0317 0.95116,-0.0951 0.29327,-0.0634 0.52314,-0.13078 0.6896,-0.20212 l 0.19023,1.17706 c -0.0793,0.0396 -0.19024,0.0832 -0.33291,0.13079 -0.13475,0.0396 -0.29328,0.0753 -0.47558,0.107 -0.17438,0.0396 -0.36461,0.0713 -0.57069,0.0951 -0.20609,0.0238 -0.41614,0.0357 -0.63015,0.0357 -0.54692,0 -1.0225,-0.0793 -1.42674,-0.23779 -0.40425,-0.16646 -0.73715,-0.39236 -0.99872,-0.67771 -0.26157,-0.29327 -0.45577,-0.6341 -0.58259,-1.02249 -0.12682,-0.39632 -0.19023,-0.8283 -0.19023,-1.29596 m 4.17322,-0.64203 c 0,-0.19816 -0.0277,-0.38443 -0.0832,-0.55881 -0.0555,-0.1823 -0.13871,-0.33687 -0.24968,-0.46369 -0.10304,-0.13475 -0.23383,-0.23779 -0.39235,-0.30913 -0.1506,-0.0793 -0.33291,-0.11889 -0.54692,-0.1189 -0.22194,10e-6 -0.41613,0.0436 -0.58258,0.13079 -0.16646,0.0793 -0.30913,0.18627 -0.42803,0.32102 -0.11097,0.13475 -0.19816,0.28931 -0.26157,0.46369 -0.0634,0.17438 -0.107,0.35272 -0.13078,0.53503 l 2.67514,0"
         style="font-size:11.88951588px;font-variant:normal;font-weight:500;font-stretch:normal;fill:#1c1c1c;font-family:Ubuntu;-inkscape-font-specification:Ubuntu Medium"
         id="path4076" />
      <path
         d="m 180.86467,324.93828 c -0.42802,-0.008 -0.78471,-0.0555 -1.07005,-0.14268 -0.27743,-0.0872 -0.49937,-0.21004 -0.66582,-0.36857 -0.16645,-0.16645 -0.28535,-0.36857 -0.35668,-0.60637 -0.0634,-0.24571 -0.0951,-0.52313 -0.0951,-0.83226 l 0,-7.15749 1.43863,-0.23779 0,7.12182 c 0,0.17438 0.0119,0.32102 0.0357,0.43991 0.0317,0.1189 0.0832,0.22194 0.15457,0.30913 0.0713,0.0793 0.16645,0.14267 0.28534,0.19023 0.12682,0.0396 0.28535,0.0713 0.47558,0.0951 l -0.20212,1.18895"
         style="font-size:11.88951588px;font-variant:normal;font-weight:500;font-stretch:normal;fill:#1c1c1c;font-family:Ubuntu;-inkscape-font-specification:Ubuntu Medium"
         id="path4078" />
      <path
         d="m 183.58588,315.78335 0,0.73715 c 0,0.38047 -0.0277,0.79264 -0.0832,1.23651 -0.0555,0.43596 -0.1189,0.87587 -0.19023,1.31974 l -0.9155,0 c -0.0793,-0.44387 -0.14267,-0.88378 -0.19023,-1.31974 -0.0476,-0.43594 -0.0713,-0.85207 -0.0713,-1.2484 l 0,-0.72526 1.45052,0"
         style="font-size:11.88951588px;font-variant:normal;font-weight:500;font-stretch:normal;fill:#1c1c1c;font-family:Ubuntu;-inkscape-font-specification:Ubuntu Medium"
         id="path4080" />
      <path
         d="m 184.97417,321.74 c 0,-0.54691 0.0793,-1.02646 0.23779,-1.43863 0.16645,-0.41217 0.38443,-0.753 0.65393,-1.0225 0.26949,-0.27742 0.57862,-0.4835 0.92738,-0.61826 0.34875,-0.14266 0.70544,-0.214 1.07005,-0.21401 0.85604,1e-5 1.52186,0.26554 1.99744,0.7966 0.4835,0.53107 0.72526,1.3237 0.72526,2.3779 0,0.0793 -0.004,0.17042 -0.0119,0.27346 0,0.0951 -0.004,0.18231 -0.0119,0.26157 l -4.10188,0 c 0.0396,0.49936 0.21401,0.88775 0.52314,1.16517 0.31705,0.2695 0.77282,0.40425 1.36729,0.40425 0.34876,0 0.66581,-0.0317 0.95117,-0.0951 0.29326,-0.0634 0.52313,-0.13078 0.68959,-0.20212 l 0.19023,1.17706 c -0.0793,0.0396 -0.19024,0.0832 -0.33291,0.13079 -0.13475,0.0396 -0.29328,0.0753 -0.47558,0.107 -0.17438,0.0396 -0.36461,0.0713 -0.57069,0.0951 -0.20609,0.0238 -0.41614,0.0357 -0.63015,0.0357 -0.54692,0 -1.0225,-0.0793 -1.42674,-0.23779 -0.40425,-0.16646 -0.73715,-0.39236 -0.99872,-0.67771 -0.26157,-0.29327 -0.45577,-0.6341 -0.58259,-1.02249 -0.12682,-0.39632 -0.19023,-0.8283 -0.19023,-1.29596 m 4.17322,-0.64203 c 0,-0.19816 -0.0277,-0.38443 -0.0832,-0.55881 -0.0555,-0.1823 -0.13872,-0.33687 -0.24968,-0.46369 -0.10305,-0.13475 -0.23384,-0.23779 -0.39236,-0.30913 -0.1506,-0.0793 -0.33291,-0.11889 -0.54692,-0.1189 -0.22194,10e-6 -0.41613,0.0436 -0.58258,0.13079 -0.16646,0.0793 -0.30913,0.18627 -0.42803,0.32102 -0.11097,0.13475 -0.19816,0.28931 -0.26156,0.46369 -0.0634,0.17438 -0.10701,0.35272 -0.13079,0.53503 l 2.67514,0 m 0.24968,-5.04116 -1.93799,1.87854 -0.71337,-0.64203 1.74776,-2.08066 0.9036,0.84415"
         style="font-size:11.88951588px;font-variant:normal;font-weight:500;font-stretch:normal;fill:#1c1c1c;font-family:Ubuntu;-inkscape-font-specification:Ubuntu Medium"
         id="path4082" />
      <path
         d="m 191.75491,321.71622 c 0,-0.45972 0.0713,-0.88775 0.21401,-1.28407 0.14268,-0.40424 0.3448,-0.753 0.60637,-1.04627 0.26949,-0.29327 0.59447,-0.52314 0.97494,-0.6896 0.38046,-0.16644 0.80848,-0.24967 1.28407,-0.24968 0.58654,1e-5 1.14138,0.10702 1.66453,0.32102 l -0.30913,1.17706 c -0.16646,-0.0713 -0.35669,-0.13078 -0.5707,-0.17834 -0.20609,-0.0476 -0.42802,-0.0713 -0.66581,-0.0713 -0.56277,1e-5 -0.9908,0.17835 -1.28407,0.53503 -0.29327,0.34876 -0.43991,0.84416 -0.43991,1.48619 0,0.61826 0.13871,1.10969 0.41613,1.4743 0.27742,0.35669 0.74508,0.53503 1.40297,0.53503 0.24571,0 0.48746,-0.0238 0.72526,-0.0713 0.23778,-0.0476 0.44387,-0.107 0.61825,-0.17834 l 0.20212,1.18895 c -0.15853,0.0793 -0.40028,0.1506 -0.72526,0.21401 -0.31706,0.0634 -0.646,0.0951 -0.98683,0.0951 -0.53107,0 -0.99476,-0.0793 -1.39107,-0.23779 -0.38839,-0.16646 -0.71337,-0.39236 -0.97494,-0.67771 -0.25364,-0.29327 -0.44388,-0.63806 -0.5707,-1.03438 -0.12682,-0.40424 -0.19023,-0.84019 -0.19023,-1.30785"
         style="font-size:11.88951588px;font-variant:normal;font-weight:500;font-stretch:normal;fill:#1c1c1c;font-family:Ubuntu;-inkscape-font-specification:Ubuntu Medium"
         id="path4084" />
      <path
         d="m 201.26244,319.89712 c -0.1189,-0.0396 -0.28536,-0.0792 -0.49936,-0.11889 -0.20609,-0.0476 -0.44785,-0.0713 -0.72526,-0.0713 -0.15853,1e-5 -0.32895,0.0159 -0.51125,0.0476 -0.17439,0.0317 -0.29724,0.0594 -0.36858,0.0832 l 0,4.9817 -1.43863,0 0,-5.92098 c 0.27742,-0.10303 0.62222,-0.19815 1.03439,-0.28534 0.42009,-0.0951 0.88378,-0.14267 1.39107,-0.14268 0.0951,1e-5 0.20608,0.008 0.33291,0.0238 0.12682,0.008 0.25364,0.0238 0.38046,0.0476 0.12682,0.0159 0.24968,0.0396 0.36858,0.0713 0.11889,0.0238 0.214,0.0476 0.28535,0.0713 l -0.24968,1.21273"
         style="font-size:11.88951588px;font-variant:normal;font-weight:500;font-stretch:normal;fill:#1c1c1c;font-family:Ubuntu;-inkscape-font-specification:Ubuntu Medium"
         id="path4086" />
      <path
         d="m 204.6907,323.80878 c 0.44388,0 0.78074,-0.0238 1.01061,-0.0713 l 0,-1.5932 c -0.0793,-0.0238 -0.1942,-0.0476 -0.34479,-0.0713 -0.15061,-0.0238 -0.31706,-0.0357 -0.49936,-0.0357 -0.15853,0 -0.32102,0.0119 -0.48747,0.0357 -0.15853,0.0238 -0.30517,0.0674 -0.43992,0.13078 -0.12682,0.0634 -0.22986,0.15457 -0.30912,0.27346 -0.0793,0.11097 -0.1189,0.25364 -0.1189,0.42802 0,0.34084 0.10701,0.57863 0.32102,0.71337 0.21401,0.12683 0.50332,0.19024 0.86793,0.19024 m -0.11889,-5.36218 c 0.47558,1e-5 0.87586,0.0595 1.20084,0.17835 0.32497,0.1189 0.58258,0.28535 0.77282,0.49936 0.19815,0.21401 0.33686,0.47558 0.41613,0.7847 0.0872,0.30121 0.13078,0.63412 0.13079,0.99872 l 0,3.76898 c -0.22195,0.0476 -0.55882,0.10304 -1.01061,0.16645 -0.44388,0.0713 -0.9472,0.10701 -1.50997,0.10701 -0.37254,0 -0.71337,-0.0357 -1.0225,-0.10701 -0.30913,-0.0713 -0.57466,-0.18627 -0.7966,-0.34479 -0.21401,-0.15853 -0.38443,-0.36461 -0.51125,-0.61826 -0.11889,-0.25364 -0.17834,-0.56673 -0.17834,-0.93927 0,-0.35668 0.0674,-0.65788 0.20212,-0.9036 0.14268,-0.24572 0.33291,-0.44387 0.5707,-0.59448 0.23779,-0.15852 0.51125,-0.26949 0.82038,-0.33291 0.31705,-0.0713 0.64599,-0.107 0.98683,-0.107 0.15852,0 0.32497,0.0119 0.49936,0.0357 0.17437,0.0159 0.36064,0.0476 0.5588,0.0951 l 0,-0.23779 c 0,-0.16645 -0.0198,-0.32497 -0.0594,-0.47558 -0.0396,-0.15059 -0.11097,-0.28138 -0.21401,-0.39235 -0.0951,-0.11889 -0.2259,-0.21004 -0.39235,-0.27346 -0.15853,-0.0634 -0.36065,-0.0951 -0.60637,-0.0951 -0.3329,10e-6 -0.63807,0.0238 -0.91549,0.0713 -0.27742,0.0476 -0.50332,0.10305 -0.6777,0.16645 l -0.17834,-1.16517 c 0.1823,-0.0634 0.44783,-0.12681 0.79659,-0.19023 0.34876,-0.0634 0.7213,-0.0951 1.11762,-0.0951"
         style="font-size:11.88951588px;font-variant:normal;font-weight:500;font-stretch:normal;fill:#1c1c1c;font-family:Ubuntu;-inkscape-font-specification:Ubuntu Medium"
         id="path4088" />
      <path
         d="m 208.84256,318.80329 c 0.27742,-0.0793 0.63807,-0.15456 1.08195,-0.2259 0.44387,-0.0713 0.9353,-0.107 1.4743,-0.10701 0.50728,1e-5 0.93134,0.0713 1.27217,0.21401 0.34083,0.13476 0.61033,0.32895 0.80849,0.58259 0.20608,0.24572 0.34875,0.54692 0.42802,0.9036 0.0872,0.34877 0.13078,0.73319 0.13079,1.15329 l 0,3.49551 -1.43863,0 0,-3.26961 c -1e-5,-0.33291 -0.0238,-0.61429 -0.0713,-0.84416 -0.0396,-0.23778 -0.11097,-0.42802 -0.21401,-0.5707 -0.0951,-0.15059 -0.22987,-0.2576 -0.40425,-0.32101 -0.16645,-0.0713 -0.37254,-0.107 -0.61825,-0.10701 -0.18231,1e-5 -0.37254,0.0119 -0.5707,0.0357 -0.19816,0.0238 -0.3448,0.0436 -0.43991,0.0594 l 0,5.01737 -1.43863,0 0,-6.01609"
         style="font-size:11.88951588px;font-variant:normal;font-weight:500;font-stretch:normal;fill:#1c1c1c;font-family:Ubuntu;-inkscape-font-specification:Ubuntu Medium"
         id="path4090" />
    </g>
    <path
       sodipodi:type="arc"
       style="fill:#eeeeec;fill-opacity:1;stroke:none"
       id="path3902"
       sodipodi:cx="57.673397"
       sodipodi:cy="46.272289"
       sodipodi:rx="0.72604716"
       sodipodi:ry="0.75761437"
       d="m 58.399444,46.272289 c 0,0.418419 -0.325062,0.757615 -0.726047,0.757615 -0.400985,0 -0.726047,-0.339196 -0.726047,-0.757615 0,-0.418419 0.325062,-0.757614 0.726047,-0.757614 0.400985,0 0.726047,0.339195 0.726047,0.757614 z"
       transform="matrix(-2.0659815,0,0,1.9798991,302.48772,132.55102)" />
    <path
       transform="matrix(-2.0659815,0,0,1.9798991,308.68772,132.55102)"
       d="m 58.399444,46.272289 c 0,0.418419 -0.325062,0.757615 -0.726047,0.757615 -0.400985,0 -0.726047,-0.339196 -0.726047,-0.757615 0,-0.418419 0.325062,-0.757614 0.726047,-0.757614 0.400985,0 0.726047,0.339195 0.726047,0.757614 z"
       sodipodi:ry="0.75761437"
       sodipodi:rx="0.72604716"
       sodipodi:cy="46.272289"
       sodipodi:cx="57.673397"
       id="path3904"
       style="fill:#eeeeec;fill-opacity:1;stroke:none"
       sodipodi:type="arc" />
    <path
       sodipodi:type="arc"
       style="fill:#eeeeec;fill-opacity:1;stroke:none"
       id="path3906"
       sodipodi:cx="57.673397"
       sodipodi:cy="46.272289"
       sodipodi:rx="0.72604716"
       sodipodi:ry="0.75761437"
       d="m 58.399444,46.272289 c 0,0.418419 -0.325062,0.757615 -0.726047,0.757615 -0.400985,0 -0.726047,-0.339196 -0.726047,-0.757615 0,-0.418419 0.325062,-0.757614 0.726047,-0.757614 0.400985,0 0.726047,0.339195 0.726047,0.757614 z"
       transform="matrix(-2.0659815,0,0,1.9798991,314.88772,132.55102)" />
    <path
       transform="matrix(-2.0659815,0,0,1.9798991,321.08772,132.55102)"
       d="m 58.399444,46.272289 c 0,0.418419 -0.325062,0.757615 -0.726047,0.757615 -0.400985,0 -0.726047,-0.339196 -0.726047,-0.757615 0,-0.418419 0.325062,-0.757614 0.726047,-0.757614 0.400985,0 0.726047,0.339195 0.726047,0.757614 z"
       sodipodi:ry="0.75761437"
       sodipodi:rx="0.72604716"
       sodipodi:cy="46.272289"
       sodipodi:cx="57.673397"
       id="path3908"
       style="fill:#eeeeec;fill-opacity:1;stroke:none"
       sodipodi:type="arc" />
    <path
       sodipodi:type="arc"
       style="fill:#eeeeec;fill-opacity:1;stroke:none"
       id="path3910"
       sodipodi:cx="57.673397"
       sodipodi:cy="46.272289"
       sodipodi:rx="0.72604716"
       sodipodi:ry="0.75761437"
       d="m 58.399444,46.272289 c 0,0.418419 -0.325062,0.757615 -0.726047,0.757615 -0.400985,0 -0.726047,-0.339196 -0.726047,-0.757615 0,-0.418419 0.325062,-0.757614 0.726047,-0.757614 0.400985,0 0.726047,0.339195 0.726047,0.757614 z"
       transform="matrix(-2.0659815,0,0,1.9798991,327.28772,132.55102)" />
    <path
       transform="matrix(-2.0659815,0,0,1.9798991,333.48772,132.55102)"
       d="m 58.399444,46.272289 c 0,0.418419 -0.325062,0.757615 -0.726047,0.757615 -0.400985,0 -0.726047,-0.339196 -0.726047,-0.757615 0,-0.418419 0.325062,-0.757614 0.726047,-0.757614 0.400985,0 0.726047,0.339195 0.726047,0.757614 z"
       sodipodi:ry="0.75761437"
       sodipodi:rx="0.72604716"
       sodipodi:cy="46.272289"
       sodipodi:cx="57.673397"
       id="path3912"
       style="fill:#eeeeec;fill-opacity:1;stroke:none"
       sodipodi:type="arc" />
    <path
       inkscape:connector-curvature="0"
       id="path8390"
       d="m 214.35417,223.36631 0,-33.26233 25.38907,0"
       style="fill:none;stroke:#ef2929;stroke-width:1.98199999;stroke-linecap:round;stroke-linejoin:round;stroke-miterlimit:4;stroke-opacity:1;stroke-dasharray:none" />
  </g>
</svg>
