<?xml version="1.0" encoding="UTF-8" standalone="no"?>
<!-- Created with Inkscape (http://www.inkscape.org/) -->

<svg
   xmlns:dc="http://purl.org/dc/elements/1.1/"
   xmlns:cc="http://creativecommons.org/ns#"
   xmlns:rdf="http://www.w3.org/1999/02/22-rdf-syntax-ns#"
   xmlns:svg="http://www.w3.org/2000/svg"
   xmlns="http://www.w3.org/2000/svg"
   xmlns:sodipodi="http://sodipodi.sourceforge.net/DTD/sodipodi-0.dtd"
   xmlns:inkscape="http://www.inkscape.org/namespaces/inkscape"
   width="177.17111"
   height="119.79399"
   id="svg2"
   version="1.1"
   inkscape:version="0.91 r13725"
   sodipodi:docname="dotmatrix_connections.svg">
  <defs
     id="defs4" />
  <sodipodi:namedview
     id="base"
     pagecolor="#ffffff"
     bordercolor="#666666"
     borderopacity="1.0"
     inkscape:pageopacity="0.0"
     inkscape:pageshadow="2"
     inkscape:zoom="2.4235312"
     inkscape:cx="89.020669"
     inkscape:cy="59.940186"
     inkscape:document-units="px"
     inkscape:current-layer="layer1"
     showgrid="false"
     fit-margin-top="8"
     fit-margin-left="8"
     fit-margin-right="8"
     fit-margin-bottom="8"
     inkscape:window-width="1317"
     inkscape:window-height="744"
     inkscape:window-x="49"
     inkscape:window-y="24"
     inkscape:window-maximized="1" />
  <metadata
     id="metadata7">
    <rdf:RDF>
      <cc:Work
         rdf:about="">
        <dc:format>image/svg+xml</dc:format>
        <dc:type
           rdf:resource="http://purl.org/dc/dcmitype/StillImage" />
        <dc:title></dc:title>
      </cc:Work>
    </rdf:RDF>
  </metadata>
  <g
     inkscape:label="Calque 1"
     inkscape:groupmode="layer"
     id="layer1"
     transform="translate(-95.300832,-166.49361)">
    <rect
       style="fill:#1c1c1c;fill-opacity:1;stroke:#404040;stroke-width:1.98158598;stroke-linecap:round;stroke-linejoin:round;stroke-opacity:1"
       id="rect8356"
       width="36.279438"
       height="17.309366"
       x="-201.82765"
       y="218.26494"
       transform="scale(-1,1)" />
    <ellipse
       transform="matrix(-2.0659815,0,0,1.9798991,290.08772,138.55102)"
       id="path3876"
       style="fill:#eeeeec;fill-opacity:1;stroke:none"
       cx="57.673397"
       cy="46.272289"
       rx="0.72604716"
       ry="0.75761437" />
    <rect
       y="233.89323"
       x="-188.19957"
       height="1.6808528"
       width="9.0232725"
       id="rect8376"
       style="fill:#404040;fill-opacity:1;stroke:#1c1c1c;stroke-width:1.98199999;stroke-linecap:butt;stroke-linejoin:miter;stroke-miterlimit:4;stroke-dasharray:none;stroke-opacity:1"
       transform="scale(-1,1)"
       ry="0" />
    <ellipse
       style="fill:#eeeeec;fill-opacity:1;stroke:none"
       id="path3878"
       transform="matrix(-2.0659815,0,0,1.9798991,296.28772,138.55102)"
       cx="57.673397"
       cy="46.272289"
       rx="0.72604716"
       ry="0.75761437" />
    <ellipse
       transform="matrix(-2.0659815,0,0,1.9798991,302.48772,138.55102)"
       id="path3880"
       style="fill:#eeeeec;fill-opacity:1;stroke:none"
       cx="57.673397"
       cy="46.272289"
       rx="0.72604716"
       ry="0.75761437" />
    <ellipse
       style="fill:#eeeeec;fill-opacity:1;stroke:none"
       id="path3882"
       transform="matrix(-2.0659815,0,0,1.9798991,308.68772,138.55102)"
       cx="57.673397"
       cy="46.272289"
       rx="0.72604716"
       ry="0.75761437" />
    <path
       inkscape:connector-curvature="0"
       id="path8400"
       d="m 189.5567,230.40803 0,44.44414 33.06096,0"
       style="fill:none;stroke:#73d216;stroke-width:1.98158598px;stroke-linecap:round;stroke-linejoin:round;stroke-opacity:1"
       sodipodi:nodetypes="ccc" />
    <ellipse
       transform="matrix(-2.0659815,0,0,1.9798991,314.88772,138.55102)"
       id="path3884"
       style="fill:#eeeeec;fill-opacity:1;stroke:none"
       cx="57.673397"
       cy="46.272289"
       rx="0.72604716"
       ry="0.75761437" />
    <path
       inkscape:connector-curvature="0"
       id="path8384"
       d="m 170.88419,230.79728 0,33.26232 -24.39807,0"
       style="fill:none;stroke:#555753;stroke-width:1.98158598px;stroke-linecap:round;stroke-linejoin:round;stroke-opacity:1"
       sodipodi:nodetypes="ccc" />
    <ellipse
       style="fill:#eeeeec;fill-opacity:1;stroke:none"
       id="path3898"
       transform="matrix(-2.0659815,0,0,1.9798991,290.08772,132.55102)"
       cx="57.673397"
       cy="46.272289"
       rx="0.72604716"
       ry="0.75761437" />
    <ellipse
       transform="matrix(-2.0659815,0,0,1.9798991,296.28772,132.55102)"
       id="path3900"
       style="fill:#eeeeec;fill-opacity:1;stroke:none"
       cx="57.673397"
       cy="46.272289"
       rx="0.72604716"
       ry="0.75761437" />
    <ellipse
       style="fill:#eeeeec;fill-opacity:1;stroke:none"
       id="path3902"
       transform="matrix(-2.0659815,0,0,1.9798991,302.48772,132.55102)"
       cx="57.673397"
       cy="46.272289"
       rx="0.72604716"
       ry="0.75761437" />
    <ellipse
       transform="matrix(-2.0659815,0,0,1.9798991,308.68772,132.55102)"
       id="path3904"
       style="fill:#eeeeec;fill-opacity:1;stroke:none"
       cx="57.673397"
       cy="46.272289"
       rx="0.72604716"
       ry="0.75761437" />
    <ellipse
       style="fill:#eeeeec;fill-opacity:1;stroke:none"
       id="path3906"
       transform="matrix(-2.0659815,0,0,1.9798991,314.88772,132.55102)"
       cx="57.673397"
       cy="46.272289"
       rx="0.72604716"
       ry="0.75761437" />
    <path
       inkscape:connector-curvature="0"
       id="path8390"
       d="m 170.88398,223.36631 0,-33.26233 -24.39786,0"
       style="fill:none;stroke:#ef2929;stroke-width:1.98199999;stroke-linecap:round;stroke-linejoin:round;stroke-miterlimit:4;stroke-dasharray:none;stroke-opacity:1"
       sodipodi:nodetypes="ccc" />
    <path
       sodipodi:nodetypes="ccc"
       style="fill:none;stroke:#3465a4;stroke-width:1.98158598px;stroke-linecap:round;stroke-linejoin:round;stroke-opacity:1"
       d="m 195.88996,230.40803 0,33.26232 26.7277,0"
       id="path3065"
       inkscape:connector-curvature="0" />
    <g
       transform="matrix(5.9449153,0,0,5.9449153,-26.251412,143.63117)"
       style="font-style:normal;font-variant:normal;font-weight:normal;font-stretch:normal;font-size:2px;line-height:125%;font-family:Ubuntu;-inkscape-font-specification:Ubuntu;letter-spacing:0px;word-spacing:0px;fill:#ef2929;fill-opacity:1;stroke:none"
       id="flowRoot3067">
      <path
         d="m 22.060109,7.4668659 q 0.302,0.012 0.442,0.132 0.142,0.12 0.142,0.326 0,0.092 -0.032,0.17 -0.03,0.078 -0.094,0.134 -0.062,0.056 -0.158,0.088 -0.096,0.032 -0.228,0.032 -0.052,0 -0.106,-0.008 -0.054,-0.008 -0.1,-0.02 -0.046,-0.012 -0.082,-0.024 -0.036,-0.012 -0.052,-0.02 l 0.036,-0.162 q 0.034,0.016 0.11,0.042 0.078,0.026 0.19,0.026 0.09,0 0.15,-0.02 0.062,-0.02 0.1,-0.054 0.038,-0.034 0.054,-0.078 0.018,-0.046 0.018,-0.096 0,-0.076 -0.026,-0.134 -0.026,-0.06 -0.092,-0.1 -0.066,-0.04 -0.176,-0.06 -0.11,-0.022 -0.278,-0.022 0.012,-0.098 0.018,-0.184 0.008,-0.086 0.014,-0.168 0.006,-0.082 0.01,-0.162 0.004,-0.082 0.008,-0.172 l 0.668,0 0,0.158 -0.506,0 q -0.002,0.03 -0.006,0.082 -0.004,0.05 -0.008,0.106 -0.004,0.054 -0.008,0.106 -0.004,0.052 -0.008,0.082 z"
         style=""
         id="path3480" />
      <path
         d="m 24.083016,6.9328659 q -0.076,0.22 -0.146,0.408 -0.068,0.186 -0.134,0.354 -0.066,0.168 -0.132,0.322 -0.064,0.152 -0.132,0.302 l -0.182,0 q -0.068,-0.15 -0.134,-0.302 -0.064,-0.154 -0.132,-0.322 -0.066,-0.168 -0.136,-0.354 -0.07,-0.188 -0.144,-0.408 l 0.214,0 q 0.108,0.316 0.212,0.608 0.104,0.292 0.214,0.548 0.11,-0.254 0.214,-0.546 0.104,-0.294 0.21,-0.61 l 0.208,0 z"
         style=""
         id="path3482" />
      <path
         d="m 24.112703,8.6888659 -0.19,0 0.678,-1.936 0.186,0 -0.674,1.936 z"
         style=""
         id="path3484" />
      <path
         d="m 24.926234,7.2188659 q 0.114,-0.044 0.222,-0.112 0.108,-0.07 0.198,-0.174 l 0.132,0 0,1.386 -0.186,0 0,-1.128 q -0.024,0.022 -0.06,0.046 -0.034,0.024 -0.076,0.046 -0.04,0.022 -0.086,0.042 -0.044,0.02 -0.086,0.034 l -0.058,-0.14 z"
         style=""
         id="path3486" />
      <path
         d="m 26.803141,7.2868659 q 0,0.072 -0.03,0.14 -0.028,0.066 -0.076,0.132 -0.048,0.064 -0.108,0.128 -0.06,0.062 -0.12,0.122 -0.034,0.034 -0.08,0.08 -0.044,0.046 -0.084,0.096 -0.04,0.05 -0.068,0.096 -0.026,0.046 -0.026,0.08 l 0.638,0 0,0.158 -0.84,0 q -0.002,-0.012 -0.002,-0.024 0,-0.012 0,-0.022 0,-0.094 0.03,-0.174 0.032,-0.082 0.082,-0.154 0.05,-0.072 0.112,-0.136 0.062,-0.064 0.122,-0.124 0.05,-0.048 0.094,-0.094 0.046,-0.048 0.08,-0.094 0.036,-0.048 0.056,-0.098 0.022,-0.05 0.022,-0.106 0,-0.06 -0.02,-0.102 -0.018,-0.042 -0.05,-0.07 -0.032,-0.028 -0.076,-0.04 -0.042,-0.014 -0.09,-0.014 -0.058,0 -0.106,0.016 -0.048,0.016 -0.086,0.038 -0.038,0.02 -0.064,0.044 -0.026,0.022 -0.04,0.034 l -0.092,-0.132 q 0.018,-0.02 0.054,-0.048 0.036,-0.03 0.086,-0.056 0.05,-0.026 0.112,-0.044 0.062,-0.018 0.134,-0.018 0.218,0 0.326,0.102 0.11,0.1 0.11,0.284 z"
         style=""
         id="path3488" />
      <path
         d="m 28.290047,6.9328659 q -0.076,0.22 -0.146,0.408 -0.068,0.186 -0.134,0.354 -0.066,0.168 -0.132,0.322 -0.064,0.152 -0.132,0.302 l -0.182,0 q -0.068,-0.15 -0.134,-0.302 -0.064,-0.154 -0.132,-0.322 -0.066,-0.168 -0.136,-0.354 -0.07,-0.188 -0.144,-0.408 l 0.214,0 q 0.108,0.316 0.212,0.608 0.104,0.292 0.214,0.548 0.11,-0.254 0.214,-0.546 0.104,-0.294 0.21,-0.61 l 0.208,0 z"
         style=""
         id="path3490" />
    </g>
    <g
       transform="matrix(5.9449153,0,0,5.9449153,-11.287131,218.15065)"
       style="font-style:normal;font-variant:normal;font-weight:normal;font-stretch:normal;font-size:2px;line-height:125%;font-family:Ubuntu;-inkscape-font-specification:Ubuntu;letter-spacing:0px;word-spacing:0px;fill:#555753;fill-opacity:1;stroke:none"
       id="flowRoot3075">
      <path
         d="m 22.680109,7.6368659 0.194,0 0,0.648 q -0.024,0.008 -0.07,0.018 -0.044,0.01 -0.104,0.02 -0.058,0.01 -0.128,0.016 -0.07,0.008 -0.142,0.008 -0.146,0 -0.266,-0.048 -0.12,-0.048 -0.206,-0.14 -0.086,-0.092 -0.134,-0.226 -0.046,-0.134 -0.046,-0.308 0,-0.174 0.052,-0.308 0.054,-0.136 0.144,-0.228 0.09,-0.092 0.21,-0.14 0.122,-0.048 0.26,-0.048 0.094,0 0.166,0.012 0.074,0.012 0.126,0.028 0.052,0.016 0.084,0.032 0.034,0.016 0.046,0.024 l -0.062,0.162 q -0.058,-0.038 -0.154,-0.062 -0.096,-0.026 -0.196,-0.026 -0.106,0 -0.194,0.038 -0.086,0.038 -0.148,0.11 -0.06,0.072 -0.094,0.176 -0.034,0.102 -0.034,0.23 0,0.124 0.028,0.226 0.03,0.102 0.088,0.176 0.06,0.072 0.146,0.112 0.088,0.04 0.206,0.04 0.084,0 0.142,-0.008 0.06,-0.01 0.086,-0.018 l 0,-0.516 z"
         style=""
         id="path3473" />
      <path
         d="m 24.127859,8.3188659 q -0.044,-0.074 -0.102,-0.166 -0.056,-0.092 -0.122,-0.19 -0.066,-0.1 -0.138,-0.202 -0.07,-0.102 -0.14,-0.196 -0.07,-0.096 -0.136,-0.18 -0.066,-0.084 -0.122,-0.148 l 0,1.082 -0.19,0 0,-1.386 0.154,0 q 0.094,0.1 0.2,0.234 0.108,0.132 0.212,0.274 0.106,0.14 0.198,0.276 0.094,0.136 0.158,0.242 l 0,-1.026 0.19,0 0,1.386 -0.162,0 z"
         style=""
         id="path3475" />
      <path
         d="m 25.772891,7.6248659 q 0,0.18 -0.056,0.314 -0.056,0.132 -0.158,0.22 -0.102,0.086 -0.244,0.13 -0.142,0.042 -0.312,0.042 -0.084,0 -0.186,-0.008 -0.1,-0.006 -0.182,-0.026 l 0,-1.344 q 0.082,-0.02 0.182,-0.026 0.102,-0.008 0.186,-0.008 0.17,0 0.312,0.044 0.142,0.042 0.244,0.13 0.102,0.086 0.158,0.22 0.056,0.132 0.056,0.312 z m -0.754,0.536 q 0.276,0 0.412,-0.14 0.136,-0.142 0.136,-0.396 0,-0.254 -0.136,-0.394 -0.136,-0.142 -0.412,-0.142 -0.082,0 -0.128,0.002 -0.044,0.002 -0.062,0.004 l 0,1.06 q 0.018,0.002 0.062,0.004 0.046,0.002 0.128,0.002 z"
         style=""
         id="path3477" />
    </g>
    <g
       transform="matrix(5.9449153,0,0,5.9449153,97.098892,228.6543)"
       style="font-style:normal;font-variant:normal;font-weight:normal;font-stretch:normal;font-size:2px;line-height:125%;font-family:Ubuntu;-inkscape-font-specification:Ubuntu;letter-spacing:0px;word-spacing:0px;fill:#73d216;fill-opacity:1;stroke:none"
       id="flowRoot3083">
      <path
         d="m 22.060109,7.4668659 q 0.302,0.012 0.442,0.132 0.142,0.12 0.142,0.326 0,0.092 -0.032,0.17 -0.03,0.078 -0.094,0.134 -0.062,0.056 -0.158,0.088 -0.096,0.032 -0.228,0.032 -0.052,0 -0.106,-0.008 -0.054,-0.008 -0.1,-0.02 -0.046,-0.012 -0.082,-0.024 -0.036,-0.012 -0.052,-0.02 l 0.036,-0.162 q 0.034,0.016 0.11,0.042 0.078,0.026 0.19,0.026 0.09,0 0.15,-0.02 0.062,-0.02 0.1,-0.054 0.038,-0.034 0.054,-0.078 0.018,-0.046 0.018,-0.096 0,-0.076 -0.026,-0.134 -0.026,-0.06 -0.092,-0.1 -0.066,-0.04 -0.176,-0.06 -0.11,-0.022 -0.278,-0.022 0.012,-0.098 0.018,-0.184 0.008,-0.086 0.014,-0.168 0.006,-0.082 0.01,-0.162 0.004,-0.082 0.008,-0.172 l 0.668,0 0,0.158 -0.506,0 q -0.002,0.03 -0.006,0.082 -0.004,0.05 -0.008,0.106 -0.004,0.054 -0.008,0.106 -0.004,0.052 -0.008,0.082 z"
         style=""
         id="path3428" />
      <path
         d="m 24.019953,8.3488659 q -0.146,0 -0.266,-0.048 -0.12,-0.048 -0.206,-0.14 -0.086,-0.092 -0.134,-0.226 -0.046,-0.136 -0.046,-0.31 0,-0.174 0.052,-0.308 0.054,-0.136 0.144,-0.228 0.09,-0.092 0.21,-0.14 0.12,-0.048 0.256,-0.048 0.086,0 0.154,0.012 0.07,0.012 0.12,0.028 0.052,0.016 0.084,0.032 0.032,0.016 0.044,0.024 l -0.056,0.16 q -0.018,-0.012 -0.052,-0.026 -0.034,-0.014 -0.078,-0.028 -0.042,-0.014 -0.094,-0.022 -0.05,-0.01 -0.102,-0.01 -0.11,0 -0.198,0.038 -0.088,0.038 -0.15,0.11 -0.062,0.072 -0.096,0.176 -0.032,0.102 -0.032,0.23 0,0.124 0.028,0.226 0.03,0.102 0.088,0.176 0.058,0.072 0.144,0.112 0.088,0.04 0.204,0.04 0.134,0 0.222,-0.028 0.088,-0.028 0.132,-0.05 l 0.05,0.16 q -0.014,0.01 -0.05,0.026 -0.036,0.014 -0.09,0.028 -0.054,0.014 -0.126,0.024 -0.072,0.01 -0.156,0.01 z"
         style=""
         id="path3430" />
      <path
         d="m 25.003766,8.1808659 q 0.304,0 0.304,-0.208 0,-0.064 -0.028,-0.108 -0.026,-0.046 -0.072,-0.078 -0.046,-0.034 -0.106,-0.058 -0.058,-0.024 -0.124,-0.048 -0.076,-0.026 -0.144,-0.058 -0.068,-0.034 -0.118,-0.078 -0.05,-0.046 -0.08,-0.108 -0.028,-0.062 -0.028,-0.15 0,-0.182 0.124,-0.284 0.124,-0.102 0.342,-0.102 0.126,0 0.228,0.028 0.104,0.026 0.152,0.058 l -0.062,0.158 q -0.042,-0.026 -0.126,-0.05 -0.082,-0.026 -0.192,-0.026 -0.056,0 -0.104,0.012 -0.048,0.012 -0.084,0.036 -0.036,0.024 -0.058,0.062 -0.02,0.036 -0.02,0.086 0,0.056 0.022,0.094 0.022,0.038 0.062,0.068 0.04,0.028 0.092,0.052 0.054,0.024 0.118,0.048 0.09,0.036 0.164,0.072 0.076,0.036 0.13,0.086 0.056,0.05 0.086,0.12 0.03,0.068 0.03,0.166 0,0.182 -0.134,0.28 -0.132,0.098 -0.374,0.098 -0.082,0 -0.152,-0.012 -0.068,-0.01 -0.122,-0.024 -0.054,-0.016 -0.094,-0.032 -0.038,-0.018 -0.06,-0.03 l 0.058,-0.16 q 0.046,0.026 0.14,0.058 0.094,0.032 0.23,0.032 z"
         style=""
         id="path3432" />
    </g>
    <g
       transform="matrix(5.9449153,0,0,5.9449153,97.158341,217.26143)"
       style="font-style:normal;font-variant:normal;font-weight:normal;font-stretch:normal;font-size:2px;line-height:125%;font-family:Ubuntu;-inkscape-font-specification:Ubuntu;letter-spacing:0px;word-spacing:0px;fill:#3465a4;fill-opacity:1;stroke:none"
       id="flowRoot3099">
      <path
         d="m 21.988109,8.3188659 q 0.012,-0.16 0.056,-0.336 0.046,-0.178 0.112,-0.344 0.066,-0.168 0.144,-0.31 0.08,-0.144 0.156,-0.234 l -0.674,0 0,-0.162 0.882,0 0,0.154 q -0.066,0.076 -0.146,0.21 -0.08,0.132 -0.152,0.298 -0.07,0.164 -0.122,0.352 -0.05,0.186 -0.062,0.372 l -0.194,0 z"
         style=""
         id="path3435" />
      <path
         d="m 24.561953,7.6248659 q 0,0.18 -0.056,0.314 -0.056,0.132 -0.158,0.22 -0.102,0.086 -0.244,0.13 -0.142,0.042 -0.312,0.042 -0.084,0 -0.186,-0.008 -0.1,-0.006 -0.182,-0.026 l 0,-1.344 q 0.082,-0.02 0.182,-0.026 0.102,-0.008 0.186,-0.008 0.17,0 0.312,0.044 0.142,0.042 0.244,0.13 0.102,0.086 0.158,0.22 0.056,0.132 0.056,0.312 z m -0.754,0.536 q 0.276,0 0.412,-0.14 0.136,-0.142 0.136,-0.396 0,-0.254 -0.136,-0.394 -0.136,-0.142 -0.412,-0.142 -0.082,0 -0.128,0.002 -0.044,0.002 -0.062,0.004 l 0,1.06 q 0.018,0.002 0.062,0.004 0.046,0.002 0.128,0.002 z"
         style=""
         id="path3437" />
      <path
         d="m 25.736672,8.3188659 q -0.034,-0.09 -0.064,-0.176 -0.03,-0.088 -0.062,-0.178 l -0.628,0 -0.126,0.354 -0.202,0 q 0.08,-0.22 0.15,-0.406 0.07,-0.188 0.136,-0.356 0.068,-0.168 0.134,-0.32 0.066,-0.154 0.138,-0.304 l 0.178,0 q 0.072,0.15 0.138,0.304 0.066,0.152 0.132,0.32 0.068,0.168 0.138,0.356 0.07,0.186 0.15,0.406 l -0.212,0 z m -0.182,-0.514 q -0.064,-0.174 -0.128,-0.336 -0.062,-0.164 -0.13,-0.314 -0.07,0.15 -0.134,0.314 -0.062,0.162 -0.124,0.336 l 0.516,0 z"
         style=""
         id="path3439" />
      <path
         d="m 26.931984,6.9328659 0,0.168 -0.436,0 0,1.218 -0.194,0 0,-1.218 -0.436,0 0,-0.168 1.066,0 z"
         style=""
         id="path3441" />
      <path
         d="m 27.931984,8.3188659 q -0.034,-0.09 -0.064,-0.176 -0.03,-0.088 -0.062,-0.178 l -0.628,0 -0.126,0.354 -0.202,0 q 0.08,-0.22 0.15,-0.406 0.07,-0.188 0.136,-0.356 0.068,-0.168 0.134,-0.32 0.066,-0.154 0.138,-0.304 l 0.178,0 q 0.072,0.15 0.138,0.304 0.066,0.152 0.132,0.32 0.068,0.168 0.138,0.356 0.07,0.186 0.15,0.406 l -0.212,0 z m -0.182,-0.514 q -0.064,-0.174 -0.128,-0.336 -0.062,-0.164 -0.13,-0.314 -0.07,0.15 -0.134,0.314 -0.062,0.162 -0.124,0.336 l 0.516,0 z"
         style=""
         id="path3443" />
    </g>
    <path
       sodipodi:nodetypes="ccc"
       style="fill:none;stroke:#f57900;stroke-width:1.98158598px;stroke-linecap:round;stroke-linejoin:round;stroke-opacity:1"
       d="m 189.5567,223.60497 0,-44.44414 33.06096,0"
       id="path3107"
       inkscape:connector-curvature="0" />
    <path
       inkscape:connector-curvature="0"
       id="path3109"
       d="m 195.88996,223.36609 0,-33.26232 26.7277,0"
       style="fill:none;stroke:#fce94f;stroke-width:1.98158598px;stroke-linecap:round;stroke-linejoin:round;stroke-opacity:1"
       sodipodi:nodetypes="ccc" />
    <g
       transform="matrix(5.9449153,0,0,5.9449153,97.122672,144.86142)"
       style="font-style:normal;font-variant:normal;font-weight:normal;font-stretch:normal;font-size:2px;line-height:125%;font-family:Ubuntu;-inkscape-font-specification:Ubuntu;letter-spacing:0px;word-spacing:0px;fill:#fce94f;fill-opacity:1;stroke:none"
       id="flowRoot3111">
      <path
         d="m 21.788109,7.7628659 q 0,-0.202 0.056,-0.356 0.056,-0.156 0.158,-0.262 0.104,-0.106 0.25,-0.16 0.148,-0.056 0.332,-0.058 l 0.014,0.156 q -0.118,0.002 -0.216,0.026 -0.096,0.024 -0.172,0.076 -0.076,0.052 -0.128,0.136 -0.052,0.082 -0.078,0.204 0.052,-0.024 0.116,-0.04 0.066,-0.016 0.136,-0.016 0.118,0 0.2,0.036 0.082,0.036 0.134,0.096 0.052,0.058 0.074,0.136 0.024,0.076 0.024,0.16 0,0.076 -0.026,0.156 -0.026,0.08 -0.08,0.146 -0.052,0.066 -0.134,0.108 -0.082,0.042 -0.194,0.042 -0.228,0 -0.348,-0.156 -0.118,-0.156 -0.118,-0.43 z m 0.448,-0.142 q -0.07,0 -0.13,0.014 -0.06,0.012 -0.12,0.038 -0.002,0.022 -0.004,0.046 0,0.022 0,0.044 0,0.088 0.012,0.166 0.012,0.078 0.042,0.138 0.032,0.058 0.084,0.094 0.052,0.034 0.132,0.034 0.066,0 0.112,-0.028 0.046,-0.028 0.076,-0.072 0.03,-0.044 0.042,-0.094 0.014,-0.052 0.014,-0.1 0,-0.136 -0.066,-0.208 -0.064,-0.072 -0.194,-0.072 z"
         style=""
         id="path3455" />
      <path
         d="m 24.181953,7.3788659 q -0.084,0.268 -0.17,0.496 -0.086,0.228 -0.172,0.444 l -0.194,0 q -0.106,-0.306 -0.188,-0.646 -0.08,-0.34 -0.15,-0.74 l 0.204,0 q 0.028,0.156 0.058,0.312 0.03,0.156 0.062,0.304 0.032,0.146 0.064,0.28 0.032,0.134 0.066,0.248 0.08,-0.21 0.17,-0.46 0.09,-0.252 0.168,-0.52 l 0.168,0 q 0.078,0.268 0.17,0.52 0.092,0.25 0.172,0.46 0.032,-0.112 0.064,-0.246 0.032,-0.134 0.062,-0.28 0.032,-0.148 0.062,-0.304 0.03,-0.158 0.058,-0.314 l 0.198,0 q -0.072,0.4 -0.154,0.74 -0.08,0.34 -0.184,0.646 l -0.194,0 q -0.088,-0.216 -0.172,-0.444 -0.084,-0.228 -0.168,-0.496 z"
         style=""
         id="path3457" />
      <path
         d="m 25.961328,7.7388659 q 0.032,0.04 0.08,0.106 0.05,0.064 0.102,0.144 0.052,0.078 0.102,0.164 0.052,0.086 0.088,0.166 l -0.212,0 q -0.04,-0.076 -0.088,-0.154 -0.046,-0.078 -0.094,-0.148 -0.048,-0.072 -0.096,-0.134 -0.046,-0.062 -0.084,-0.108 -0.026,0.002 -0.054,0.002 -0.026,0 -0.054,0 l -0.174,0 0,0.542 -0.194,0 0,-1.366 q 0.082,-0.02 0.182,-0.026 0.102,-0.008 0.186,-0.008 0.292,0 0.444,0.11 0.154,0.11 0.154,0.328 0,0.138 -0.074,0.236 -0.072,0.098 -0.214,0.146 z m -0.294,-0.65 q -0.124,0 -0.19,0.006 l 0,0.522 0.138,0 q 0.1,0 0.18,-0.01 0.08,-0.01 0.134,-0.038 0.056,-0.028 0.086,-0.078 0.03,-0.052 0.03,-0.136 0,-0.078 -0.03,-0.13 -0.03,-0.052 -0.082,-0.082 -0.05,-0.03 -0.12,-0.042 -0.068,-0.012 -0.146,-0.012 z"
         style=""
         id="path3459" />
    </g>
    <g
       transform="matrix(5.9449153,0,0,5.9449153,97.396138,133.46855)"
       style="font-style:normal;font-variant:normal;font-weight:normal;font-stretch:normal;font-size:2px;line-height:125%;font-family:Ubuntu;-inkscape-font-specification:Ubuntu;letter-spacing:0px;word-spacing:0px;fill:#f57900;fill-opacity:1;stroke:none"
       id="flowRoot3119">
      <path
         d="m 21.742109,7.8388659 q 0.038,-0.088 0.104,-0.204 0.066,-0.118 0.148,-0.242 0.084,-0.124 0.178,-0.244 0.096,-0.12 0.192,-0.216 l 0.178,0 0,0.88 0.164,0 0,0.152 -0.164,0 0,0.354 -0.18,0 0,-0.354 -0.62,0 0,-0.126 z m 0.62,-0.686 q -0.06,0.064 -0.122,0.144 -0.06,0.078 -0.118,0.164 -0.058,0.086 -0.11,0.176 -0.05,0.09 -0.09,0.176 l 0.44,0 0,-0.66 z"
         style=""
         id="path3446" />
      <path
         d="m 24.019953,8.3488659 q -0.146,0 -0.266,-0.048 -0.12,-0.048 -0.206,-0.14 -0.086,-0.092 -0.134,-0.226 -0.046,-0.136 -0.046,-0.31 0,-0.174 0.052,-0.308 0.054,-0.136 0.144,-0.228 0.09,-0.092 0.21,-0.14 0.12,-0.048 0.256,-0.048 0.086,0 0.154,0.012 0.07,0.012 0.12,0.028 0.052,0.016 0.084,0.032 0.032,0.016 0.044,0.024 l -0.056,0.16 q -0.018,-0.012 -0.052,-0.026 -0.034,-0.014 -0.078,-0.028 -0.042,-0.014 -0.094,-0.022 -0.05,-0.01 -0.102,-0.01 -0.11,0 -0.198,0.038 -0.088,0.038 -0.15,0.11 -0.062,0.072 -0.096,0.176 -0.032,0.102 -0.032,0.23 0,0.124 0.028,0.226 0.03,0.102 0.088,0.176 0.058,0.072 0.144,0.112 0.088,0.04 0.204,0.04 0.134,0 0.222,-0.028 0.088,-0.028 0.132,-0.05 l 0.05,0.16 q -0.014,0.01 -0.05,0.026 -0.036,0.014 -0.09,0.028 -0.054,0.014 -0.126,0.024 -0.072,0.01 -0.156,0.01 z"
         style=""
         id="path3448" />
      <path
         d="m 25.496234,8.1508659 0,0.168 -0.834,0 0,-1.386 0.194,0 0,1.218 0.64,0 z"
         style=""
         id="path3450" />
      <path
         d="m 26.727297,6.9328659 q -0.062,0.068 -0.14,0.152 -0.078,0.082 -0.164,0.17 -0.084,0.086 -0.168,0.17 -0.084,0.084 -0.158,0.156 0.086,0.06 0.182,0.148 0.096,0.088 0.188,0.188 0.092,0.1 0.172,0.204 0.082,0.104 0.136,0.198 l -0.228,0 q -0.06,-0.094 -0.138,-0.188 -0.078,-0.096 -0.166,-0.182 -0.086,-0.088 -0.176,-0.162 -0.088,-0.074 -0.172,-0.126 l 0,0.658 -0.194,0 0,-1.386 0.194,0 0,0.612 q 0.07,-0.066 0.154,-0.148 0.084,-0.084 0.166,-0.168 0.082,-0.084 0.154,-0.16 0.074,-0.078 0.124,-0.136 l 0.234,0 z"
         style=""
         id="path3452" />
    </g>
    <g
       transform="translate(6.1271101,-14.381869)"
       style="font-style:normal;font-variant:normal;font-weight:normal;font-stretch:normal;font-size:11.88983059px;line-height:125%;font-family:Ubuntu;-inkscape-font-specification:Ubuntu;letter-spacing:0px;word-spacing:0px;fill:#1c1c1c;fill-opacity:1;stroke:none"
       id="flowRoot3419">
      <path
         d="m 199.46537,237.13411 1.49812,0 0,8.23965 -1.49812,0 0,-8.23965 z"
         style="font-style:normal;font-variant:normal;font-weight:500;font-stretch:normal;font-family:Ubuntu;-inkscape-font-specification:'Ubuntu Medium'"
         id="path3462" />
      <path
         d="m 208.50127,245.37376 q -0.40425,-0.67772 -0.90363,-1.45056 -0.49937,-0.78473 -1.03441,-1.56946 -0.53504,-0.79662 -1.09387,-1.53379 -0.54693,-0.74906 -1.0463,-1.34355 l 0,5.89736 -1.47434,0 0,-8.23965 1.22465,0 q 0.4756,0.49937 1.02253,1.18898 0.54693,0.67772 1.09386,1.41489 0.55882,0.73717 1.07009,1.48623 0.52315,0.73717 0.9274,1.37922 l 0,-5.46932 1.48623,0 0,8.23965 -1.27221,0 z"
         style="font-style:normal;font-variant:normal;font-weight:500;font-stretch:normal;font-family:Ubuntu;-inkscape-font-specification:'Ubuntu Medium'"
         id="path3464" />
      <path
         d="m 214.08039,237.05088 q 1.79536,0 2.74655,0.65394 0.96308,0.65394 0.96308,2.04505 0,0.72528 -0.26158,1.24843 -0.24969,0.51126 -0.73717,0.84418 -0.48748,0.32102 -1.18898,0.47559 -0.7015,0.15457 -1.60513,0.15457 l -0.74906,0 0,2.90112 -1.49812,0 0,-8.12076 q 0.52315,-0.11889 1.15331,-0.15456 0.64206,-0.0476 1.1771,-0.0476 z m 0.10701,1.29599 q -0.57072,0 -0.9393,0.0357 l 0,2.806 0.72528,0 q 1.08197,0 1.66458,-0.29725 0.5826,-0.30913 0.5826,-1.15331 0,-0.40426 -0.15457,-0.67772 -0.15457,-0.27347 -0.42803,-0.42804 -0.27347,-0.15456 -0.65394,-0.21401 -0.36859,-0.0713 -0.79662,-0.0713 z"
         style="font-style:normal;font-variant:normal;font-weight:500;font-stretch:normal;font-family:Ubuntu;-inkscape-font-specification:'Ubuntu Medium'"
         id="path3466" />
      <path
         d="m 222.33249,245.55211 q -0.84418,0 -1.45056,-0.2378 -0.60638,-0.24969 -1.01064,-0.68961 -0.39236,-0.43993 -0.5826,-1.03442 -0.19024,-0.59449 -0.19024,-1.30788 l 0,-5.14829 1.51001,0 0,5.00561 q 0,0.55883 0.1189,0.96308 0.13079,0.39236 0.3567,0.64205 0.23779,0.24969 0.54693,0.36859 0.32102,0.11889 0.71339,0.11889 0.39236,0 0.71339,-0.11889 0.32102,-0.1189 0.54693,-0.36859 0.2378,-0.24969 0.35669,-0.64205 0.13079,-0.40425 0.13079,-0.96308 l 0,-5.00561 1.51001,0 0,5.14829 q 0,0.71339 -0.20213,1.30788 -0.19023,0.59449 -0.59449,1.03442 -0.39236,0.43992 -1.01063,0.68961 -0.61827,0.2378 -1.46245,0.2378 z"
         style="font-style:normal;font-variant:normal;font-weight:500;font-stretch:normal;font-family:Ubuntu;-inkscape-font-specification:'Ubuntu Medium'"
         id="path3468" />
      <path
         d="m 233.26073,237.13411 0,1.29599 -2.53254,0 0,6.94366 -1.51,0 0,-6.94366 -2.53254,0 0,-1.29599 6.57508,0 z"
         style="font-style:normal;font-variant:normal;font-weight:500;font-stretch:normal;font-family:Ubuntu;-inkscape-font-specification:'Ubuntu Medium'"
         id="path3470" />
    </g>
  </g>
</svg>
