<?xml version="1.0" encoding="UTF-8" standalone="no"?>
<!-- Created with Inkscape (http://www.inkscape.org/) -->

<svg
   xmlns:dc="http://purl.org/dc/elements/1.1/"
   xmlns:cc="http://creativecommons.org/ns#"
   xmlns:rdf="http://www.w3.org/1999/02/22-rdf-syntax-ns#"
   xmlns:svg="http://www.w3.org/2000/svg"
   xmlns="http://www.w3.org/2000/svg"
   xmlns:sodipodi="http://sodipodi.sourceforge.net/DTD/sodipodi-0.dtd"
   xmlns:inkscape="http://www.inkscape.org/namespaces/inkscape"
   width="77.257729"
   height="20.0002"
   id="svg4010"
   version="1.1"
   inkscape:version="0.48.4 r9939"
   sodipodi:docname="logo.svg">
  <defs
     id="defs4012" />
  <sodipodi:namedview
     id="base"
     pagecolor="#ffffff"
     bordercolor="#666666"
     borderopacity="1.0"
     inkscape:pageopacity="0.0"
     inkscape:pageshadow="2"
     inkscape:zoom="7.919596"
     inkscape:cx="16.971149"
     inkscape:cy="-0.38679695"
     inkscape:document-units="px"
     inkscape:current-layer="layer1"
     showgrid="false"
     fit-margin-top="0"
     fit-margin-left="0"
     fit-margin-right="0"
     fit-margin-bottom="0"
     inkscape:window-width="1391"
     inkscape:window-height="876"
     inkscape:window-x="49"
     inkscape:window-y="24"
     inkscape:window-maximized="1" />
  <metadata
     id="metadata4015">
    <rdf:RDF>
      <cc:Work
         rdf:about="">
        <dc:format>image/svg+xml</dc:format>
        <dc:type
           rdf:resource="http://purl.org/dc/dcmitype/StillImage" />
        <dc:title />
      </cc:Work>
    </rdf:RDF>
  </metadata>
  <g
     inkscape:label="Calque 1"
     inkscape:groupmode="layer"
     id="layer1"
     transform="translate(-365.20699,-442.53095)">
    <g
       style="font-size:40px;font-style:normal;font-variant:normal;font-weight:normal;font-stretch:normal;line-height:125%;letter-spacing:0px;word-spacing:0px;fill:#d3d7cf;fill-opacity:1;stroke:none;font-family:Ubuntu;-inkscape-font-specification:Ubuntu"
       id="text3783"
       transform="matrix(0.78707899,0,0,0.78707899,77.760338,93.774491)">
      <path
         d="m 402.83936,462.85162 1.512,0.384 0,1.296 -4.896,0 -0.288,-1.296 1.512,-0.336 0,-14.112 -1.368,0.096 -0.24,-1.44 3,-0.504 0.768,0.816 0,15.096"
         style="font-size:24px;font-family:Kreon;-inkscape-font-specification:Kreon;fill:#d3d7cf"
         id="path4030"
         inkscape:connector-curvature="0" />
      <path
         d="m 412.07374,463.54762 c -0.70401,0.736 -1.60001,1.104 -2.688,1.104 -1.08801,0 -1.96801,-0.304 -2.64,-0.912 -0.65601,-0.608 -0.98401,-1.336 -0.984,-2.184 -10e-6,-0.848 0.16799,-1.52 0.504,-2.016 0.35199,-0.496 0.80799,-0.888 1.368,-1.176 0.97599,-0.496 2.40799,-0.76 4.296,-0.792 l 0,-1.704 c -10e-6,-0.31999 -0.15201,-0.60799 -0.456,-0.864 -0.28801,-0.27199 -0.74401,-0.40799 -1.368,-0.408 -0.59201,1e-5 -1.03201,0.12801 -1.32,0.384 l -0.48,1.56 -2.52,-0.744 c 0.36799,-1.32799 1.27199,-2.22399 2.712,-2.688 0.51199,-0.15999 1.08799,-0.23999 1.728,-0.24 1.24799,1e-5 2.19999,0.31201 2.856,0.936 0.67199,0.62401 1.00799,1.44001 1.008,2.448 l 0,6.144 c -1e-5,0.336 0.11199,0.504 0.336,0.504 0.11199,0 0.27999,-0.056 0.504,-0.168 l 0.528,1.272 c -0.49601,0.416 -1.04801,0.624 -1.656,0.624 -0.91201,0 -1.48801,-0.36 -1.728,-1.08 m -3.408,-0.96 c 0.17599,0.112 0.35999,0.192 0.552,0.24 0.19199,0.032 0.40799,0.048 0.648,0.048 0.23999,0 0.47999,-0.048 0.72,-0.144 0.25599,-0.112 0.47199,-0.24 0.648,-0.384 0.33599,-0.256 0.56799,-0.576 0.696,-0.96 l 0,-2.064 c -1.05601,0 -1.83201,0.088 -2.328,0.264 -0.49601,0.16 -0.88001,0.376 -1.152,0.648 -0.27201,0.256 -0.40801,0.584 -0.408,0.984 -1e-5,0.384 0.056,0.68 0.168,0.888 0.12799,0.192 0.27999,0.352 0.456,0.48"
         style="font-size:24px;font-family:Kreon;-inkscape-font-specification:Kreon;fill:#d3d7cf"
         id="path4032"
         inkscape:connector-curvature="0" />
      <path
         d="m 419.41624,464.07562 c -0.76801,0.384 -1.18401,0.584 -1.248,0.6 l -0.552,-0.336 0,-15.552 -1.392,0.096 -0.216,-1.44 3.048,-0.456 0.72,0.768 0,5.76 c 0.67199,-0.43199 1.40799,-0.64799 2.208,-0.648 0.79999,1e-5 1.48799,0.13601 2.064,0.408 0.57599,0.27201 1.07199,0.65601 1.488,1.152 0.87999,1.05601 1.31998,2.448 1.32,4.176 -2e-5,2.176 -0.59201,3.784 -1.776,4.824 -0.91201,0.8 -2.03201,1.2 -3.36,1.2 -0.88001,0 -1.64801,-0.184 -2.304,-0.552 m 2.304,-9.384 c -0.38401,10e-6 -0.76001,0.08 -1.128,0.24 -0.35201,0.14401 -0.62401,0.32801 -0.816,0.552 l 0,6.72 c 0.12799,0.16 0.36799,0.304 0.72,0.432 0.36799,0.128 0.72799,0.192 1.08,0.192 0.35199,0 0.69599,-0.056 1.032,-0.168 0.33599,-0.128 0.64799,-0.352 0.936,-0.672 0.68799,-0.704 1.03199,-1.784 1.032,-3.24 -10e-6,-1.376 -0.29601,-2.416 -0.888,-3.12 -0.51201,-0.62399 -1.16801,-0.93599 -1.968,-0.936"
         style="font-size:24px;font-family:Kreon;-inkscape-font-specification:Kreon;fill:#d3d7cf"
         id="path4034"
         inkscape:connector-curvature="0" />
      <path
         d="m 430.86986,458.91562 c 0,1.28 0.256,2.256 0.768,2.928 0.512,0.656 1.184,0.984 2.016,0.984 0.83199,0 1.51199,-0.32 2.04,-0.96 0.52799,-0.656 0.79199,-1.648 0.792,-2.976 -10e-6,-1.328 -0.25601,-2.36 -0.768,-3.096 -0.49601,-0.75199 -1.17601,-1.12799 -2.04,-1.128 -0.912,10e-6 -1.616,0.39201 -2.112,1.176 -0.464,0.752 -0.696,1.776 -0.696,3.072 m -2.28,-0.264 c 0,-0.928 0.136,-1.752 0.408,-2.472 0.272,-0.71999 0.648,-1.32799 1.128,-1.824 0.928,-0.99199 2.112,-1.48799 3.552,-1.488 1.47199,1e-5 2.68799,0.52801 3.648,1.584 0.95999,1.05601 1.43999,2.472 1.44,4.248 -10e-6,1.856 -0.51201,3.32 -1.536,4.392 -0.94401,1.024 -2.12801,1.536 -3.552,1.536 -1.488,0 -2.704,-0.544 -3.648,-1.632 -0.96,-1.072 -1.44,-2.52 -1.44,-4.344"
         style="font-size:24px;font-family:Kreon;-inkscape-font-specification:Kreon;fill:#d3d7cf"
         id="path4036"
         inkscape:connector-curvature="0" />
      <path
         d="m 442.22524,447.85162 0.576,0 3,3.6 -0.12,0.192 -1.608,0 -1.584,-1.296 -1.608,1.296 -1.56,0 -0.096,-0.168 3,-3.624 m 1.68,15 1.416,0.384 0,1.296 -4.8,0 -0.264,-1.296 1.488,-0.336 0,-8.16 -1.32,0.096 -0.24,-1.44 2.952,-0.528 0.768,0.768 0,9.216"
         style="font-size:24px;font-family:Kreon;-inkscape-font-specification:Kreon;fill:#d3d7cf"
         id="path4038"
         inkscape:connector-curvature="0" />
      <path
         d="m 452.79914,462.10762 c 0.032,0.112 0.19999,0.64 0.504,1.584 -0.22401,0.208 -0.55201,0.416 -0.984,0.624 -0.43201,0.208 -0.99201,0.312 -1.68,0.312 -0.68801,0 -1.27201,-0.208 -1.752,-0.624 -0.464,-0.416 -0.696,-1.096 -0.696,-2.04 l 0,-7.296 -1.968,0 -0.336,-1.56 0.168,-0.24 2.136,0 0,-4.008 1.92,-0.456 0.12,0.36 0,4.104 2.496,0 c 0.08,1e-5 0.11999,0.048 0.12,0.144 l 0,1.656 -2.616,0 0,6.888 c -10e-6,0.512 0.072,0.848 0.216,1.008 0.15999,0.144 0.35199,0.216 0.576,0.216 0.23999,0 0.43999,-0.024 0.6,-0.072 0.15999,-0.048 0.31199,-0.112 0.456,-0.192 0.30399,-0.128 0.54399,-0.264 0.72,-0.408"
         style="font-size:24px;font-family:Kreon;-inkscape-font-specification:Kreon;fill:#d3d7cf"
         id="path4040"
         inkscape:connector-curvature="0" />
      <path
         d="m 463.36439,456.03562 c -1e-5,0.496 -0.088,0.984 -0.264,1.464 -0.16001,0.464 -0.48001,0.888 -0.96,1.272 -1.08801,0.864 -2.86401,1.312 -5.328,1.344 0.25599,1.264 0.90399,2.096 1.944,2.496 0.36799,0.144 0.76799,0.216 1.2,0.216 0.43199,0 0.79999,-0.032 1.104,-0.096 0.30399,-0.08 0.56799,-0.168 0.792,-0.264 0.43199,-0.208 0.73599,-0.4 0.912,-0.576 l 0.528,1.68 c -0.17601,0.176 -0.47201,0.352 -0.888,0.528 -1.60001,0.656 -3.16801,0.712 -4.704,0.168 -1.39201,-0.496 -2.352,-1.464 -2.88,-2.904 -0.272,-0.72 -0.408,-1.56 -0.408,-2.52 0,-0.976 0.144,-1.832 0.432,-2.568 0.288,-0.75199 0.672,-1.37599 1.152,-1.872 0.95999,-1.02399 2.15999,-1.53599 3.6,-1.536 1.05599,1e-5 1.94399,0.28001 2.664,0.84 0.73599,0.59201 1.10399,1.36801 1.104,2.328 m -2.28,0.192 c -10e-6,-0.448 -0.12001,-0.81599 -0.36,-1.104 -0.24001,-0.28799 -0.59201,-0.43199 -1.056,-0.432 -0.44801,10e-6 -0.83201,0.072 -1.152,0.216 -0.30401,0.14401 -0.58401,0.36001 -0.84,0.648 -0.56001,0.656 -0.88801,1.584 -0.984,2.784 1.16799,0 2.03999,-0.088 2.616,-0.264 0.57599,-0.192 1.01599,-0.432 1.32,-0.72 0.30399,-0.304 0.45599,-0.68 0.456,-1.128"
         style="font-size:24px;font-family:Kreon;-inkscape-font-specification:Kreon;fill:#d3d7cf"
         id="path4042"
         inkscape:connector-curvature="0" />
    </g>
    <path
       style="font-size:medium;font-style:normal;font-variant:normal;font-weight:normal;font-stretch:normal;text-indent:0;text-align:start;text-decoration:none;line-height:normal;letter-spacing:normal;word-spacing:normal;text-transform:none;direction:ltr;block-progression:tb;writing-mode:lr-tb;text-anchor:start;baseline-shift:baseline;color:#000000;fill:#d3d7cf;fill-opacity:1;fill-rule:nonzero;stroke:none;stroke-width:0.50000000000000000;marker:none;visibility:visible;display:inline;overflow:visible;enable-background:new;font-family:Sans;-inkscape-font-specification:Sans"
       d="m 367.59369,442.53454 c -0.0432,0.0195 -0.0788,0.0552 -0.0984,0.0984 l -0.12299,0.17218 c -0.59074,1.04671 -1.28414,2.08222 -1.9923,3.14831 l -0.0246,0.0246 c -5.1e-4,0.008 -5.1e-4,0.0164 0,0.0246 -0.008,-5.1e-4 -0.0164,-5.1e-4 -0.0246,0 -5.1e-4,0.008 -5.1e-4,0.0164 0,0.0246 l -0.0246,0.0491 c -0.008,-5.1e-4 -0.0164,-5.1e-4 -0.0246,0 -0.0486,0.11428 -0.041,0.241 -0.0492,0.34435 -0.002,0.0157 -0.0239,0.034 -0.0246,0.0492 -3.5e-4,0.007 2.6e-4,0.0177 0,0.0246 -0.002,0.006 6.8e-4,0.0222 0,0.0246 -1.8e-4,0.006 0,0.0189 0,0.0246 -6e-5,0.008 -5.7e-4,0.0125 0,0.0246 l 0,0.0246 c 7.9e-4,0.008 -5e-5,0.0244 0,0.0246 2e-5,10e-5 -2e-5,0.0246 0,0.0246 3.6e-4,0.0163 -0.002,0.033 0,0.0491 7.9e-4,0.008 -0.002,0.0165 0,0.0246 l 0,14.09363 c 0,0.32481 0.11405,0.64917 0.27056,0.95925 0.0815,0.16157 0.1832,0.33273 0.31975,0.46734 0.13703,0.13507 0.34916,0.29515 0.6395,0.29515 l 21.02977,0 c 0.29034,0 0.50247,-0.16008 0.6395,-0.29515 0.13655,-0.13461 0.23821,-0.30577 0.31975,-0.46734 0.15651,-0.31008 0.27056,-0.63444 0.27056,-0.95925 l 0,-14.21661 0,-0.0246 0,-0.0246 c 5.1e-4,-0.008 5.1e-4,-0.0164 0,-0.0246 l -0.0492,-0.27056 0,-0.0246 0,-0.0246 c -0.003,-0.0259 -0.0117,-0.0512 -0.0246,-0.0737 l -0.0246,-0.0246 c 3.8e-4,-0.007 9e-5,-0.0162 0,-0.0246 5.1e-4,-0.008 5.1e-4,-0.0164 0,-0.0246 -0.002,-0.0185 0.006,-0.0317 0,-0.0491 -0.002,-0.045 -0.0194,-0.0891 -0.0491,-0.12291 l -0.0246,-0.0246 -1.69715,-2.85317 c -0.008,-0.009 -0.0157,-0.0171 -0.0246,-0.0246 -0.008,-0.009 -0.0157,-0.0171 -0.0246,-0.0246 -0.004,-0.01 -0.0199,-0.015 -0.0246,-0.0246 -0.0366,-0.0762 -0.073,-0.15138 -0.14757,-0.22136 l 0,-0.0246 -0.0246,0 -0.0737,-0.0737 c -0.0151,-0.0104 -0.0318,-0.0188 -0.0492,-0.0246 -0.0227,-0.013 -0.048,-0.0214 -0.0737,-0.0246 l -0.14757,0 c -8.20573,0 -2.17408,-0.0246 -7.1083,-0.0246 l -11.26508,0 -0.14757,0 -0.0492,0 c -0.0243,-0.005 -0.0496,-0.005 -0.0737,0 z m 0.56572,1.08223 10.96992,0 c 4.72659,0 0.0215,0.023 6.81315,0.0246 l 1.42657,2.38587 -20.75921,0.0491 c 0.53511,-0.8022 1.06443,-1.62847 1.54957,-2.45962 z m 19.45561,3.51726 0,13.67549 c 0,0.003 -0.0258,0.10038 -0.0492,0.19678 -0.0234,0.0964 -0.0596,0.21842 -0.0984,0.29515 -0.0289,0.0573 -0.0722,0.0911 -0.0984,0.12299 l -20.83299,0 c -0.0262,-0.0319 -0.0695,-0.0657 -0.0984,-0.12299 -0.0387,-0.0767 -0.075,-0.19875 -0.0984,-0.29515 -0.0234,-0.0964 -0.0246,-0.19329 -0.0246,-0.19678 l 0,-13.6263 z m -20.07052,1.50037 c -0.0395,0.0133 -0.0745,0.0396 -0.0984,0.0737 -0.009,0.007 -0.0172,0.0157 -0.0246,0.0246 -0.0165,0.0299 -0.0251,0.0643 -0.0246,0.0984 l 0,0.41813 0,9.7893 0,0.41814 c -6.2e-4,0.0692 0.0384,0.13753 0.0984,0.17217 0.0227,0.013 0.0479,0.0214 0.0737,0.0246 0.008,5.1e-4 0.0164,5.1e-4 0.0246,0 l 0.41814,0 17.68469,0 0.41813,0 c 0.0163,0.002 0.0329,0.002 0.0492,0 0.0522,-0.014 0.0978,-0.0507 0.12299,-0.0984 0.0105,-0.0151 0.0187,-0.0317 0.0246,-0.0491 0.002,-0.0163 0.002,-0.0329 0,-0.0492 l 0,-0.41814 0,-9.7893 0,-0.41813 c 0.002,-0.0163 0.002,-0.0329 0,-0.0492 -0.006,-0.0175 -0.0142,-0.0341 -0.0246,-0.0492 -0.0174,-0.0306 -0.0433,-0.0564 -0.0737,-0.0737 -0.0227,-0.013 -0.048,-0.0214 -0.0737,-0.0246 -0.008,-5.1e-4 -0.0164,-5.1e-4 -0.0246,0 l -0.41812,0 -17.68469,0 -0.41814,0 c -0.0163,-0.002 -0.0329,-0.002 -0.0492,0 z m 1.08224,1.22981 16.45487,0 0,8.55948 -16.45487,0 z"
       id="path3678"
       inkscape:connector-curvature="0"
       sodipodi:nodetypes="cccccccccccccccccccccscsssscsccccccccccccccccccccccccssccccccscccccssscccssccccccccccccccccccccccccccccccccccccc" />
  </g>
</svg>
